<svg xmlns="http://www.w3.org/2000/svg" xmlns:xlink="http://www.w3.org/1999/xlink" viewBox="0 0 369 274.599"><defs><style>.a{fill:none;}.b{fill:#31db93;}.c{opacity:0.501;}.d{clip-path:url(#c);}.e,.i{fill:#fff;}.e{opacity:0.2;}.f{fill:#381c10;}.g{fill:#41271b;}.h{fill:url(#d);}.i{opacity:0.1;}.j{fill:#61f9b4;}.k{fill:#fbb32b;}.l{fill:#2ace85;}.m{opacity:0.189;}.n{filter:url(#a);}</style><filter id="a" x="0" y="0" width="369" height="274.599" filterUnits="userSpaceOnUse"><feOffset dy="1" input="SourceAlpha"/><feGaussianBlur stdDeviation="1.5" result="b"/><feFlood flood-opacity="0.2"/><feComposite operator="in" in2="b"/><feComposite in="SourceGraphic"/></filter><clipPath id="c"><rect class="a" width="360" height="265" transform="translate(0 -4)"/></clipPath><linearGradient id="d" x1="0.5" y1="1" x2="0.5" gradientUnits="objectBoundingBox"><stop offset="0" stop-color="#6affba"/><stop offset="1" stop-color="#2ed991"/></linearGradient></defs><g transform="translate(-3071.5 313.5)"><g class="n" transform="matrix(1, 0, 0, 1, 3071.5, -313.5)"><path class="b" d="M0,0H360V265.6H0Z" transform="translate(4.5 3.5)"/></g><g class="c" transform="translate(3076 -405)"><g transform="translate(0 99)"><g class="d"><g transform="translate(-20.197 -9.67)"><path class="e" d="M193.516,246.056c3.288-3.293,9.931-4.048,14.118-5.205,2.737-.755,6.755-.6,9.1-2.134s2.287-4.221,4.283-5.7c2.155-1.6,5.3-.653,7.419-2.279,1.894-1.453,1.908-4.321,3.64-6.022,4.049-3.979,9.518-3.344,14.181-5.013,1.524-.546,5.489-2.993,7.479-4.017,4.608-2.371,2.6-1.3,4.885-5.278,2.462-4.29,3.448-9.4,8-11.4,4.871-2.134,11.782,1.544,10.429-7.978,3.277-1.555,9.087.912,9.815-4.361,3.92-.234,7.849.108,11.491-.939,0-2.45.665-4.612.8-7.02,4.153-.561,3.275-5.214,6.042-6.67,2.5-1.317,7.9.313,10.426.615,8.932,1.068,9.973-1.131,16.639-4.883,2.942-1.657,6.878-.921,9.706-3.079,2.968-2.264,2.326-5.279,6.252-6.346,2.942-.8,6.305.447,9.383-.53,2.778-.882,4.014-2.707,7.729-2.475-.383-9.172,6.774-12.421,12.984-15.971,8.675-4.96,15.758,1.613,23.975-1.289,3.68-1.3,5.138-3.824,9.216-4.339,5-.63,7.086.564,10.89-2.916,1.638-1.5,1.958-3.8,3.708-5.221a2.821,2.821,0,0,1,.8-.435V248.02H192.149A8.408,8.408,0,0,1,193.516,246.056Z" transform="translate(-33.604 -123.92)"/><path class="e" d="M-18.2,123.432c.312.1.625.194.946.29,7.237,2.166,14.609,8.448,20.755,13.766,10.417,9.015,21.473,10.2,32.534,18.092,10.715,7.645,22.113,9.65,33.453,15.051,10.833,5.16,22.2,13.072,33.7,17.343a150.607,150.607,0,0,0,17.773,5.426c5.767,1.331,11.967-.475,17.821.53,6.139,1.052,13.445,4.111,19.06,7.253,7.3,4.085,10.171,10.53,18.57,10.854,5.872.227,10.861.5,16.1,3.564,6.71,3.932,9.109,3.241,16.3,3.659,5.785.335,11.676,4.259,17.083,6.689,5.28,2.372,10.434,3.745,16.112,5.467,6.888,2.088,12.169,7.664,18.588,11.575a65.783,65.783,0,0,0,13.057,5.948H-18.2Z" transform="translate(25.293 -123.432)"/><path class="e" d="M215.191,287.343c-3.288-3.293-9.931-4.048-14.118-5.205-2.737-.755-6.755-.6-9.1-2.134s-2.287-4.221-4.283-5.7c-2.155-1.6-5.3-.653-7.419-2.279-1.894-1.453-1.908-4.32-3.64-6.022-4.049-3.979-9.518-3.345-14.181-5.013-1.524-.546-5.489-2.993-7.478-4.017-4.609-2.371-2.6-1.3-4.886-5.278-2.462-4.29-3.448-9.4-8-11.4-4.87-2.134-11.782,1.544-10.43-7.978-3.276-1.554-9.087.912-9.814-4.36-3.92-.234-7.849.107-11.491-.94,0-2.45-.665-4.612-.8-7.02-4.153-.561-3.275-5.213-6.042-6.67-2.5-1.317-7.9.313-10.426.615-8.932,1.068-9.973-1.131-16.639-4.883-2.942-1.657-6.878-.921-9.706-3.079-2.967-2.263-2.326-5.279-6.251-6.347-2.942-.8-6.305.447-9.383-.53-2.777-.881-4.013-2.706-7.728-2.475.382-9.172-6.775-12.421-12.984-15.971-8.675-4.96-15.759,1.613-23.975-1.289-3.681-1.3-5.139-3.824-9.217-4.339-5-.63-7.086.564-10.89-2.916-1.638-1.5-1.958-3.8-3.708-5.221a2.812,2.812,0,0,0-.8-.435V289.307H216.558A8.377,8.377,0,0,0,215.191,287.343Z" transform="translate(25.293 -135.531)"/><path class="e" d="M404.7,164.719c-.312.1-.625.194-.946.29-7.237,2.166-14.609,8.448-20.755,13.765-10.417,9.014-21.473,10.2-32.534,18.092-10.715,7.645-22.113,9.649-33.453,15.051-10.833,5.161-22.2,13.072-33.7,17.343a150.743,150.743,0,0,1-17.773,5.426c-5.767,1.331-11.967-.475-17.821.53-6.139,1.052-13.445,4.111-19.06,7.252-7.3,4.084-10.172,10.53-18.57,10.854-5.872.227-10.861.5-16.1,3.564-6.71,3.932-9.109,3.241-16.3,3.658-5.786.336-11.677,4.259-17.084,6.689-5.28,2.373-10.434,3.746-16.112,5.468-6.888,2.088-12.169,7.664-18.588,11.575a65.763,65.763,0,0,1-13.056,5.948H404.7Z" transform="translate(-11.399 -135.043)"/><path class="e" d="M360.949,186.4a51.1,51.1,0,0,0-11.06,11.916c-1.85,2.772-1.7,7.562-3.2,9.806-1.539,2.308-5.232,3.784-7.25,6.24-4.012,4.883-8.149,8.1-11.827,13.333-4.4-3.892-6.56,1.405-10.278,2.3-3.794.911-7.119-1.606-10.888.167-4.357,2.05-7.006,6.194-11.876,7.576-4.27,1.214-9.437.249-13.636,1.486-5.581,1.642-9.757,7.159-14.764,10.833-4.479,3.286-8.154,3.081-13.367,3.075-10.569-.011-18.409,2.822-28.266,5.027-11.551,2.582-23.423,2.21-35.021,4.22-11.684,2.023-17.536-.163-28.264-4.744-10.187-4.348-21.066-.884-31.951-.884-6.79,0-26.958-1.572-28.984-10.023-1.531-.093-3.244.131-4.782-.106-6.34-.979-10.791-.967-16.59-3.656-4.226-1.96-8.325-4.339-12.916-5.932-6.3-2.187-9.249-1.46-15.361.341-8.29,2.443-7.326-3.789-14.149-5.08-4.854-.917-9.79,3.03-15.36.776-2.466-1-4.928-4.239-7.51-5.119-2.256-.768-5.221.367-7.271-.831-4-2.338-5.84-8.056-10.38-10.893a62.123,62.123,0,0,0-14.2-6.467v83.125h386.2V179.172C365.462,181.77,363.11,184.656,360.949,186.4Z" transform="translate(25.293 -139.107)"/><g transform="translate(7.096 198.858)"><path class="f" d="M309.628,402.373c-15.057,0-28.259,2.6-42.657,3.841-14.118,1.221-27.688-1.66-41.134-2.321a806.9,806.9,0,0,0-82.266,0c-28.475,1.5-57.718,1.313-86.071,0-12.836-.6-25.471-3.8-38.855-3.8-12.54,0-24.593,1.318-36.842,1.95V471.9h386.2V402.329C348.793,403.841,328.328,402.373,309.628,402.373Z" transform="translate(18.197 -400.092)"/><path class="g" d="M368.007,405.435a90.874,90.874,0,0,0-10.158-1.675c-16.146.5-32.783-.494-48.22-.494-15.057,0-28.259,2.6-42.657,3.841-14.118,1.221-27.688-1.66-41.134-2.321-22.7-1.115-45.333-1.36-67.987-.6-15.82,3.386-30.583,4.076-46.722,4.674-13.892.515-27.695,3.415-41.606,4.215-9.546.549-20.21,1.061-29.742.029-8.52-.921-16.411-4.829-24.747-6.516C6.2,404.8-7,403.017-18.2,403.656v19.674c8.216,1.806,16.3,3.506,25.215,2.749,11.624-.987,20.067-2.376,31.352,0,19.264,4.055,39.994,6.359,60.35,4.43,23.5-2.227,44.27-10.663,68.681-9.337,11.478.623,22.094,2.587,33.2,4.739,12.192,2.363,23.738,2.594,36.235,1.977,12-.593,22.087,4.627,33.18,4.325,10.95-.3,20.365-6.083,31.949-5.532,11.906.566,23.15,6.621,35.639,6.759,11.241.124,19.783-5.254,30.406-8.431Z" transform="translate(18.197 -400.985)"/><path class="g" d="M274.919,474.929c-11.694-7.015-26.277-7.157-38.882-12.076-13.267-5.176-25.124-12.294-39.779-11.523-13.063.687-24.7,6.477-37.487,8.087-11.681,1.471-24.411-3.051-35.6-5.082-12.326-2.237-25.07-4.626-37.793-5.755-13.674-1.214-26.091,4.132-40.019,3.326-6.566-.381-12.339-2.943-18.448-4.574S15.34,445.59,9.037,445.574c-10.3-.027-18.233,1.47-27.234-.019v19.268c6.985,1.989,13.913,3.978,21.02,6.5,11.9,4.231,24.284,7.657,37.169,7.626,13.668-.032,25.76-2.442,38.786-4.49,4.746-.745,10.133-.125,14.962-.114,6.228.015,11.832-1.511,17.9-1.727,12.547-.446,25.217,1.727,38.033,1.727,13.211,0,26.016.412,38.8-2.46,13.1-2.943,25.859-1.671,39.061-.993,14.741.758,28.408,6.228,41.094,13.792h19.709C284.029,481.38,279.813,477.865,274.919,474.929Z" transform="translate(18.197 -412.877)"/></g><path class="h" d="M-18.2,337.671v62.644c19.485.518,40.049-2.84,59.6.978a204.806,204.806,0,0,0,40.986,3.989c15.21,0,27.778-6.3,42.619-7.6a473.236,473.236,0,0,1,83.238.037c14.078,1.345,27.048,4.819,40.982,6.027,13.194,1.144,23.6-4.576,36.506-4.545,8.148.019,14.354,3.124,22.108,4.545a87.453,87.453,0,0,0,25.119.778c9.01-1,17.4-3.441,26.492-3.972,2.548-.149,5.491-.086,8.549-.023V337.671Z" transform="translate(25.293 -183.68)"/><path class="i" d="M-17.525,349.21c13.7-.424,28,1.233,41.578,2.646a349.515,349.515,0,0,0,49.19,1.323c16.812-.607,33.894,1.076,50.36-1.323,8.842-1.288,17.606-2.669,26.634-2.646,8.45.022,15.607,1.865,23.736,2.662,10.9,1.067,22.473.021,33.256.644,9.89.571,23.254-1.518,32.265,1.177-12.815-.492-26.33,2.792-39.7,2.792-13.714,0-27.628.007-41.078.662-14.161.69-27.948.971-41.549,4.633-8.149,2.194-16.026,4.806-24.709,3.982-7.037-.668-13.148-2-20.5-2-14.951,0-30.127-.749-45.053-.015-15.188.747-30.6,3.8-45.752,3.322" transform="translate(25.476 -186.906)"/><path class="i" d="M440.576,364.709a116.224,116.224,0,0,1-5.331-11.658c-7.929-.2-16.379,1.874-24.873,1.884-9.361.011-18.071-1.968-27.52-1.32-21.954,1.505-44.218,4.1-66.511,5.788-19.357,1.467-39.5,1.461-58.643,4.131-8.544,1.192-17.131,2-25.832,2.628-7.092.515-19.159-.712-24.975,1.341H194.383c14.675.971,27.889,3.263,43.407,2.68,32.978-1.241,67.663-.951,101.05-2.166,35.606-1.3,73.984-2.614,107.914,6.824C445.639,371.406,442.223,367.857,440.576,364.709Z" transform="translate(-34.23 -188.002)"/><path class="i" d="M-16.457,379.567c23.223,0,46.578-2.134,69.7-2.826,23.3-.7,48.224,3.294,70.209,3.294-24.011,0-45.271,2.266-68.388,5.627-24.107,3.5-48.92.939-73.638.939h-1.2" transform="translate(25.733 -194.645)"/><path class="i" d="M442.678,389.8c-16.853-4.873-40.362,0-58.144,0-24.938,0-49.656-.665-74.382-.661-13.069,0-25.431,2.659-38.413,2.645q-19.886-.019-39.772,0c-10.77,0-21.146.6-31.731,1.471,10.238,4.023,25.393,1.837,37.05,1.837,13.585,0,27.2-.394,40.418,1.5,27.724,3.979,54.33-3.628,82.655-2.166,14.8.763,29.641,1.275,44.589,1.969,6.672.31,13.807.305,20.652.678,9.639.523,23.311,5.437,32.318.661" transform="translate(-35.868 -197.73)"/><path class="i" d="M-17.192,402.908c23.035-6.662,55.157.385,78.525,1.323,14.6.587,28.943.065,43.273,1.323,11.322.994,26.152,2.432,36.206,1.985-13.149,0-24.7,1.491-36.875,2.646-12.688,1.2-26.058-.311-38.635.646-14.085,1.072-27.513,1.693-41.561.035-18.837-2.223-33.45.99-51.793,3.288" transform="translate(28.052 -201.229)"/><g transform="translate(7.096 120.793)"><path class="j" d="M368.007,294.257c-8.664,1.42-17.709-2.772-26.718-2.772-19.665,0-36.446,16.992-56.946,15.5-20.42-1.49-40.684-9.693-61.937-8.129-21.414,1.576-42.638,17.562-63.882,11.058-20.636-6.317-39.921,7.267-60.736.763-17.917-5.6-39.024-18.5-57.826-13.849-10.043,2.485-17.6,12.035-28.4,11.282-10.306-.718-20.074-7-29.754-7.386v23.961h386.2Z" transform="translate(18.197 -291.485)"/></g><g transform="translate(24.505 116.824)"><path class="k" d="M17.868,294.892v.254c1.822,15,0,19.268,0,19.268h2.789C21.169,295.66,17.868,294.892,17.868,294.892Z" transform="translate(-9.311 -288.474)"/><path class="k" d="M24.182,293.648s-3.056-3.758-6.573-3.033a8.184,8.184,0,0,1,6.813.587s-4.071-3.5-7.419-1.429a10.911,10.911,0,0,1,5.574-2.561s-4.923-2.647-7.322,3.122c.451-2.245.094-5-4.782-4.239a5.321,5.321,0,0,1,4.013,4.616c-1.184-5.813-6.727-3.161-6.727-3.161,2.246-.234,4.163,1.4,5.409,2.866A5.131,5.131,0,0,0,6.248,291a5.367,5.367,0,0,1,3.7-.568c-2.687.881-3.969,4.383-3.969,4.383a6.406,6.406,0,0,1,7.235-2.358c-2.43.068-6.994,1.012-6.97,7.165,0,0,1.575-5.266,6.888-6.042-1.5,1.448-3.2,3.97-1.683,7.169,0,0-.468-2.79,2.245-6.912a5.034,5.034,0,0,0,.5,4.346,22.493,22.493,0,0,1,.592-5.238h.069c1.874,1.016,3.478,3.973,3.478,3.973a4.141,4.141,0,0,0-1.7-3.727,12.241,12.241,0,0,1,4.155,2.055,6.641,6.641,0,0,0-2.64-3.23A9.912,9.912,0,0,1,24.182,293.648Z" transform="translate(-5.983 -285.963)"/><g transform="translate(12.242 7.879)"><g transform="translate(3.337 5.043)"><path class="k" d="M29.517,303.941v.171c-1.215,10,0,12.847,0,12.847h-1.86C27.315,304.453,29.517,303.941,29.517,303.941Z" transform="translate(-27.62 -303.941)"/></g><path class="k" d="M34.164,302.547s-.839-3.624-4.748-2.023c1.191-2.81,3.2-3.212,3.2-3.212a4.167,4.167,0,0,0-3.909,2.441,3.342,3.342,0,0,0-2.778-2.828,4.441,4.441,0,0,1,1.918,2.69,3.467,3.467,0,0,0-4.013-.374,3.861,3.861,0,0,1,3.254.727c-2.5-.625-3.987,2.054-3.987,2.054a4.034,4.034,0,0,1,3.634-1.078c-1.025.107-2.4.71-3.749,2.733a7.6,7.6,0,0,1,2.9-1.875c-2.192,1.124-2.785,4.249-2.785,4.249a6.173,6.173,0,0,1,4.807-3.742c1.377.764,1.207,3.742,1.207,3.742a4.036,4.036,0,0,0,.023-3.311,4.719,4.719,0,0,1,1.687,3.876,3.992,3.992,0,0,0-.922-4.3,4.852,4.852,0,0,1,2.334,1.766c-.4-2.134-1.377-2.785-2.116-2.959A3.386,3.386,0,0,1,34.164,302.547Z" transform="translate(-22.986 -296.925)"/></g></g><g transform="translate(41.826 100.555)"><g transform="translate(26.677 6.509)"><path class="l" d="M78.976,281.311v.255c1.821,15,0,19.268,0,19.268h2.789C82.277,282.079,78.976,281.311,78.976,281.311Z" transform="translate(-70.419 -274.894)"/><path class="l" d="M85.29,280.068s-3.056-3.758-6.573-3.034a8.185,8.185,0,0,1,6.813.587s-4.072-3.5-7.419-1.429a10.911,10.911,0,0,1,5.574-2.561s-4.923-2.647-7.322,3.122c.451-2.245.094-5-4.782-4.239a5.321,5.321,0,0,1,4.013,4.616c-1.184-5.814-6.727-3.161-6.727-3.161,2.246-.234,4.163,1.4,5.409,2.866a5.13,5.13,0,0,0-6.921.582,5.367,5.367,0,0,1,3.7-.568c-2.687.881-3.969,4.383-3.969,4.383a6.407,6.407,0,0,1,7.235-2.358c-2.43.068-6.994,1.012-6.97,7.165,0,0,1.575-5.266,6.888-6.042-1.5,1.448-3.2,3.97-1.683,7.169,0,0-.468-2.79,2.245-6.912a5.032,5.032,0,0,0,.5,4.346,22.493,22.493,0,0,1,.592-5.238h.069c1.874,1.016,3.478,3.973,3.478,3.973a4.142,4.142,0,0,0-1.7-3.728,12.249,12.249,0,0,1,4.156,2.056,6.641,6.641,0,0,0-2.64-3.23A9.912,9.912,0,0,1,85.29,280.068Z" transform="translate(-67.091 -272.383)"/></g><g transform="translate(0 10.182)"><path class="l" d="M41.925,286.422v.254c1.822,15,0,19.268,0,19.268h2.789C45.226,287.19,41.925,286.422,41.925,286.422Z" transform="translate(-33.368 -280.004)"/><path class="l" d="M48.239,285.178s-3.056-3.759-6.573-3.034a8.184,8.184,0,0,1,6.813.587s-4.071-3.5-7.419-1.429a10.914,10.914,0,0,1,5.574-2.561s-4.922-2.647-7.322,3.122c.451-2.245.094-5-4.782-4.239a5.322,5.322,0,0,1,4.013,4.617c-1.184-5.814-6.727-3.162-6.727-3.162,2.246-.234,4.164,1.4,5.409,2.866a5.131,5.131,0,0,0-6.921.582,5.375,5.375,0,0,1,3.7-.568c-2.687.882-3.969,4.384-3.969,4.384a6.407,6.407,0,0,1,7.235-2.359c-2.43.068-6.994,1.013-6.97,7.165,0,0,1.575-5.266,6.888-6.042-1.5,1.449-3.2,3.97-1.683,7.17,0,0-.468-2.79,2.245-6.913a5.034,5.034,0,0,0,.5,4.346,22.536,22.536,0,0,1,.592-5.238h.069c1.874,1.016,3.479,3.973,3.479,3.973a4.143,4.143,0,0,0-1.7-3.727,12.241,12.241,0,0,1,4.155,2.055,6.644,6.644,0,0,0-2.64-3.23A9.912,9.912,0,0,1,48.239,285.178Z" transform="translate(-30.04 -277.493)"/></g><g transform="translate(59.489 12.97)"><path class="l" d="M124.548,290.3v.254c1.822,15,0,19.268,0,19.268h2.789C127.849,291.069,124.548,290.3,124.548,290.3Z" transform="translate(-115.991 -283.883)"/><path class="l" d="M130.862,289.057s-3.056-3.758-6.573-3.034a8.184,8.184,0,0,1,6.813.587s-4.071-3.5-7.419-1.429a10.914,10.914,0,0,1,5.574-2.561s-4.923-2.647-7.322,3.122c.451-2.245.094-5-4.782-4.239a5.322,5.322,0,0,1,4.013,4.617c-1.184-5.814-6.727-3.162-6.727-3.162,2.246-.234,4.164,1.4,5.41,2.866a5.131,5.131,0,0,0-6.921.582,5.371,5.371,0,0,1,3.7-.568c-2.687.881-3.969,4.384-3.969,4.384a6.407,6.407,0,0,1,7.235-2.359c-2.43.068-6.994,1.012-6.97,7.165,0,0,1.575-5.266,6.888-6.042-1.5,1.448-3.2,3.97-1.683,7.17,0,0-.468-2.79,2.245-6.913a5.034,5.034,0,0,0,.5,4.346,22.531,22.531,0,0,1,.592-5.238h.069c1.874,1.016,3.479,3.973,3.479,3.973a4.142,4.142,0,0,0-1.7-3.727,12.231,12.231,0,0,1,4.155,2.055,6.637,6.637,0,0,0-2.64-3.23A9.909,9.909,0,0,1,130.862,289.057Z" transform="translate(-112.663 -281.372)"/></g><g transform="translate(242.682 10.83)"><path class="l" d="M379.715,287.324v.255c-1.822,15,0,19.267,0,19.267h-2.789C376.414,288.092,379.715,287.324,379.715,287.324Z" transform="translate(-369.835 -280.906)"/><path class="l" d="M367.337,286.08s3.056-3.758,6.573-3.034a8.183,8.183,0,0,0-6.812.587s4.071-3.5,7.417-1.43a10.91,10.91,0,0,0-5.574-2.56s4.923-2.647,7.322,3.122c-.451-2.245-.094-5,4.782-4.239a5.321,5.321,0,0,0-4.013,4.617c1.184-5.814,6.726-3.161,6.726-3.161-2.245-.235-4.162,1.4-5.409,2.866a5.13,5.13,0,0,1,6.921.582,5.375,5.375,0,0,0-3.7-.568c2.688.882,3.969,4.384,3.969,4.384a6.406,6.406,0,0,0-7.235-2.358c2.43.068,6.994,1.012,6.97,7.165,0,0-1.575-5.267-6.888-6.043,1.5,1.449,3.2,3.971,1.683,7.17,0,0,.469-2.79-2.246-6.912a5.033,5.033,0,0,1-.5,4.346,22.581,22.581,0,0,0-.591-5.239h-.07c-1.874,1.016-3.478,3.974-3.478,3.974a4.143,4.143,0,0,1,1.7-3.728,12.235,12.235,0,0,0-4.155,2.056,6.641,6.641,0,0,1,2.64-3.23A9.908,9.908,0,0,0,367.337,286.08Z" transform="translate(-367.098 -278.396)"/></g><g transform="translate(202.787 12.205)"><path class="l" d="M321.851,287.5v.206c-1.467,12.077,0,15.516,0,15.516H319.6C319.192,288.116,321.851,287.5,321.851,287.5Z" transform="translate(-313.893 -282.33)"/><path class="l" d="M311.882,286.5s2.461-3.027,5.293-2.442a6.585,6.585,0,0,0-5.486.472s3.279-2.82,5.974-1.151a8.789,8.789,0,0,0-4.489-2.062s3.965-2.131,5.9,2.514c-.364-1.809-.076-4.03,3.851-3.414a4.284,4.284,0,0,0-3.231,3.718c.953-4.682,5.416-2.546,5.416-2.546-1.808-.189-3.352,1.124-4.356,2.308a4.132,4.132,0,0,1,5.574.468,4.327,4.327,0,0,0-2.983-.457c2.164.71,3.2,3.531,3.2,3.531a5.158,5.158,0,0,0-5.826-1.9c1.956.054,5.633.815,5.612,5.77,0,0-1.268-4.241-5.547-4.865a4.823,4.823,0,0,1,1.356,5.773s.377-2.247-1.808-5.566a4.057,4.057,0,0,1-.407,3.5,18.126,18.126,0,0,0-.476-4.219h-.056a9.422,9.422,0,0,0-2.8,3.2,3.337,3.337,0,0,1,1.367-3,9.857,9.857,0,0,0-3.347,1.655,5.359,5.359,0,0,1,2.126-2.6A7.981,7.981,0,0,0,311.882,286.5Z" transform="translate(-311.689 -280.308)"/></g><g transform="translate(147.536 21.57)"><path class="l" d="M245.112,300.527v.206c-1.467,12.076,0,15.515,0,15.515h-2.246C242.453,301.146,245.112,300.527,245.112,300.527Z" transform="translate(-237.155 -295.359)"/><path class="l" d="M235.143,299.526s2.461-3.027,5.293-2.442a6.588,6.588,0,0,0-5.486.472s3.278-2.82,5.974-1.151a8.8,8.8,0,0,0-4.49-2.062s3.965-2.13,5.9,2.514c-.364-1.808-.076-4.03,3.85-3.414a4.285,4.285,0,0,0-3.231,3.718c.953-4.681,5.417-2.546,5.417-2.546-1.809-.188-3.352,1.125-4.356,2.308a4.129,4.129,0,0,1,5.572.469,4.324,4.324,0,0,0-2.982-.457c2.164.709,3.2,3.53,3.2,3.53a5.158,5.158,0,0,0-5.826-1.9c1.957.055,5.633.815,5.612,5.77,0,0-1.266-4.242-5.545-4.866a4.826,4.826,0,0,1,1.356,5.773s.377-2.247-1.809-5.566a4.057,4.057,0,0,1-.407,3.5,18.092,18.092,0,0,0-.476-4.219h-.056a9.423,9.423,0,0,0-2.8,3.2,3.334,3.334,0,0,1,1.367-3,9.863,9.863,0,0,0-3.347,1.655,5.36,5.36,0,0,1,2.127-2.6A7.988,7.988,0,0,0,235.143,299.526Z" transform="translate(-234.951 -293.337)"/></g><g transform="translate(116.627 17.548)"><path class="l" d="M202.184,294.932v.206c-1.467,12.077,0,15.516,0,15.516h-2.246C199.525,295.55,202.184,294.932,202.184,294.932Z" transform="translate(-194.226 -289.764)"/><path class="l" d="M192.215,293.931s2.461-3.027,5.293-2.443a6.59,6.59,0,0,0-5.486.472s3.279-2.819,5.974-1.151a8.789,8.789,0,0,0-4.489-2.062s3.965-2.131,5.9,2.514c-.364-1.809-.076-4.031,3.851-3.414a4.284,4.284,0,0,0-3.231,3.718c.953-4.681,5.417-2.545,5.417-2.545-1.809-.189-3.352,1.124-4.357,2.307a4.13,4.13,0,0,1,5.573.469,4.324,4.324,0,0,0-2.982-.457c2.164.709,3.2,3.53,3.2,3.53a5.158,5.158,0,0,0-5.826-1.9c1.956.054,5.633.814,5.612,5.77,0,0-1.267-4.241-5.546-4.865a4.824,4.824,0,0,1,1.356,5.773s.377-2.247-1.808-5.566a4.057,4.057,0,0,1-.407,3.5,18.131,18.131,0,0,0-.476-4.219h-.056a9.423,9.423,0,0,0-2.8,3.2,3.337,3.337,0,0,1,1.367-3,9.857,9.857,0,0,0-3.347,1.655,5.352,5.352,0,0,1,2.126-2.6A7.981,7.981,0,0,0,192.215,293.931Z" transform="translate(-192.022 -287.742)"/></g><g transform="translate(158.371 19.678)"><path class="l" d="M260.161,297.895v.206c-1.467,12.076,0,15.516,0,15.516h-2.246C257.5,298.513,260.161,297.895,260.161,297.895Z" transform="translate(-252.204 -292.727)"/><path class="l" d="M250.193,296.894s2.46-3.027,5.293-2.443a6.588,6.588,0,0,0-5.486.472s3.279-2.82,5.974-1.151a8.786,8.786,0,0,0-4.49-2.062s3.965-2.131,5.9,2.514c-.364-1.809-.076-4.031,3.851-3.414A4.285,4.285,0,0,0,258,294.527c.953-4.681,5.417-2.546,5.417-2.546-1.808-.188-3.352,1.125-4.356,2.308a4.13,4.13,0,0,1,5.573.469,4.325,4.325,0,0,0-2.982-.457c2.164.709,3.2,3.53,3.2,3.53a5.158,5.158,0,0,0-5.826-1.9c1.957.054,5.633.814,5.612,5.77,0,0-1.268-4.242-5.546-4.866a4.825,4.825,0,0,1,1.356,5.774s.377-2.247-1.809-5.567a4.056,4.056,0,0,1-.406,3.5,18.169,18.169,0,0,0-.476-4.219H257.7a9.426,9.426,0,0,0-2.8,3.2,3.334,3.334,0,0,1,1.367-3,9.85,9.85,0,0,0-3.347,1.655,5.354,5.354,0,0,1,2.126-2.6A7.982,7.982,0,0,0,250.193,296.894Z" transform="translate(-250 -290.705)"/></g><g transform="translate(97.772 27.069)"><path class="l" d="M176,308.178v.206c-1.467,12.077,0,15.516,0,15.516H173.75C173.338,308.8,176,308.178,176,308.178Z" transform="translate(-168.039 -303.01)"/><path class="l" d="M166.028,307.177s2.461-3.027,5.293-2.443a6.59,6.59,0,0,0-5.486.472s3.279-2.819,5.974-1.151a8.79,8.79,0,0,0-4.489-2.062s3.965-2.131,5.9,2.514c-.364-1.809-.076-4.031,3.851-3.414a4.284,4.284,0,0,0-3.231,3.718c.953-4.682,5.416-2.546,5.416-2.546-1.808-.189-3.352,1.124-4.356,2.308a4.132,4.132,0,0,1,5.574.468,4.327,4.327,0,0,0-2.983-.457c2.164.709,3.2,3.53,3.2,3.53a5.158,5.158,0,0,0-5.826-1.9c1.956.054,5.633.815,5.612,5.77,0,0-1.268-4.241-5.547-4.865a4.823,4.823,0,0,1,1.356,5.773s.377-2.247-1.808-5.566a4.057,4.057,0,0,1-.407,3.5,18.122,18.122,0,0,0-.476-4.218h-.056a9.416,9.416,0,0,0-2.8,3.2,3.337,3.337,0,0,1,1.367-3,9.857,9.857,0,0,0-3.347,1.655,5.351,5.351,0,0,1,2.126-2.6A7.981,7.981,0,0,0,166.028,307.177Z" transform="translate(-165.835 -300.988)"/></g><g transform="translate(109.203 19.678)"><path class="l" d="M191.872,297.895v.206c-1.467,12.076,0,15.516,0,15.516h-2.246C189.214,298.513,191.872,297.895,191.872,297.895Z" transform="translate(-183.915 -292.727)"/><path class="l" d="M181.9,296.894s2.461-3.027,5.293-2.443a6.588,6.588,0,0,0-5.486.472s3.279-2.82,5.974-1.151a8.786,8.786,0,0,0-4.49-2.062s3.965-2.131,5.9,2.514c-.364-1.809-.076-4.031,3.85-3.414a4.284,4.284,0,0,0-3.231,3.718c.953-4.681,5.417-2.546,5.417-2.546-1.808-.188-3.352,1.125-4.356,2.308a4.13,4.13,0,0,1,5.573.469,4.325,4.325,0,0,0-2.982-.457c2.164.709,3.2,3.53,3.2,3.53a5.158,5.158,0,0,0-5.826-1.9c1.957.054,5.633.814,5.612,5.77,0,0-1.268-4.242-5.546-4.866a4.825,4.825,0,0,1,1.356,5.774s.377-2.247-1.809-5.567a4.056,4.056,0,0,1-.406,3.5,18.131,18.131,0,0,0-.477-4.219h-.056a9.426,9.426,0,0,0-2.8,3.2,3.334,3.334,0,0,1,1.367-3,9.85,9.85,0,0,0-3.347,1.655,5.354,5.354,0,0,1,2.126-2.6A7.985,7.985,0,0,0,181.9,296.894Z" transform="translate(-181.711 -290.705)"/></g><g transform="translate(186.666 18.081)"><path class="l" d="M299.461,295.674v.206c-1.469,12.077,0,15.516,0,15.516h-2.248C296.8,296.292,299.461,295.674,299.461,295.674Z" transform="translate(-291.503 -290.506)"/><path class="l" d="M289.491,294.673s2.461-3.027,5.293-2.443a6.586,6.586,0,0,0-5.486.473s3.279-2.82,5.974-1.151a8.79,8.79,0,0,0-4.489-2.062s3.964-2.131,5.9,2.514c-.363-1.809-.076-4.031,3.85-3.414a4.284,4.284,0,0,0-3.23,3.718c.953-4.682,5.416-2.546,5.416-2.546-1.807-.189-3.352,1.124-4.355,2.308a4.13,4.13,0,0,1,5.573.468,4.327,4.327,0,0,0-2.983-.457c2.164.71,3.2,3.53,3.2,3.53a5.159,5.159,0,0,0-5.826-1.9c1.956.054,5.632.815,5.612,5.77,0,0-1.269-4.241-5.546-4.865a4.824,4.824,0,0,1,1.356,5.773s.377-2.247-1.809-5.566a4.054,4.054,0,0,1-.407,3.5,18.042,18.042,0,0,0-.477-4.219H297a9.42,9.42,0,0,0-2.8,3.2,3.335,3.335,0,0,1,1.367-3,9.849,9.849,0,0,0-3.347,1.655,5.352,5.352,0,0,1,2.126-2.6A7.984,7.984,0,0,0,289.491,294.673Z" transform="translate(-289.299 -288.484)"/></g><g transform="translate(253.695 20.666)"><path class="l" d="M392.556,299.27v.206c-1.468,12.076,0,15.516,0,15.516h-2.247C389.9,299.888,392.556,299.27,392.556,299.27Z" transform="translate(-384.598 -294.102)"/><path class="l" d="M382.587,298.269s2.461-3.027,5.293-2.443a6.59,6.59,0,0,0-5.486.472s3.28-2.82,5.974-1.151a8.781,8.781,0,0,0-4.488-2.062s3.964-2.131,5.9,2.514c-.362-1.809-.076-4.031,3.851-3.414a4.283,4.283,0,0,0-3.23,3.718c.953-4.681,5.415-2.546,5.415-2.546-1.807-.188-3.351,1.125-4.355,2.308a4.131,4.131,0,0,1,5.574.469,4.328,4.328,0,0,0-2.983-.457c2.164.709,3.2,3.53,3.2,3.53a5.158,5.158,0,0,0-5.826-1.9c1.956.054,5.632.814,5.612,5.77,0,0-1.269-4.242-5.546-4.866a4.825,4.825,0,0,1,1.355,5.774s.377-2.247-1.808-5.567a4.058,4.058,0,0,1-.407,3.5,18.093,18.093,0,0,0-.477-4.219h-.056a9.423,9.423,0,0,0-2.8,3.2,3.336,3.336,0,0,1,1.367-3,9.857,9.857,0,0,0-3.347,1.655,5.362,5.362,0,0,1,2.126-2.6A7.983,7.983,0,0,0,382.587,298.269Z" transform="translate(-382.394 -292.08)"/></g><g transform="translate(276.892 17.07)"><path class="l" d="M424.774,294.267v.206c-1.468,12.076,0,15.516,0,15.516h-2.247C422.115,294.885,424.774,294.267,424.774,294.267Z" transform="translate(-416.816 -289.099)"/><path class="l" d="M414.8,293.265s2.461-3.026,5.293-2.442a6.589,6.589,0,0,0-5.486.472s3.28-2.82,5.974-1.151a8.784,8.784,0,0,0-4.488-2.062s3.964-2.131,5.9,2.514c-.363-1.809-.076-4.031,3.851-3.414a4.284,4.284,0,0,0-3.23,3.718c.953-4.682,5.415-2.547,5.415-2.547-1.807-.188-3.351,1.125-4.355,2.309a4.13,4.13,0,0,1,5.573.468,4.326,4.326,0,0,0-2.982-.457c2.164.709,3.2,3.53,3.2,3.53a5.157,5.157,0,0,0-5.825-1.9c1.955.054,5.632.814,5.612,5.77,0,0-1.268-4.241-5.546-4.866a4.825,4.825,0,0,1,1.356,5.774s.377-2.247-1.809-5.566a4.055,4.055,0,0,1-.406,3.5,18.122,18.122,0,0,0-.477-4.219h-.056a9.415,9.415,0,0,0-2.8,3.2,3.336,3.336,0,0,1,1.367-3,9.848,9.848,0,0,0-3.347,1.655,5.358,5.358,0,0,1,2.126-2.6A7.987,7.987,0,0,0,414.8,293.265Z" transform="translate(-414.612 -287.077)"/></g><g transform="translate(304.986 9.233)"><path class="l" d="M463.794,283.363v.206c-1.469,12.077,0,15.516,0,15.516h-2.248C461.134,283.982,463.794,283.363,463.794,283.363Z" transform="translate(-455.836 -278.195)"/><path class="l" d="M453.824,282.362s2.461-3.027,5.293-2.442a6.586,6.586,0,0,0-5.486.472s3.279-2.82,5.974-1.151a8.789,8.789,0,0,0-4.489-2.062s3.964-2.131,5.9,2.514c-.363-1.808-.076-4.03,3.85-3.414a4.284,4.284,0,0,0-3.23,3.718c.953-4.682,5.416-2.546,5.416-2.546-1.807-.188-3.352,1.125-4.355,2.308a4.131,4.131,0,0,1,5.573.468,4.331,4.331,0,0,0-2.983-.456c2.164.709,3.2,3.53,3.2,3.53a5.16,5.16,0,0,0-5.826-1.9c1.956.055,5.632.815,5.612,5.77,0,0-1.269-4.242-5.546-4.866a4.824,4.824,0,0,1,1.356,5.773s.377-2.247-1.809-5.566a4.054,4.054,0,0,1-.407,3.5,18.051,18.051,0,0,0-.477-4.219h-.056a9.426,9.426,0,0,0-2.8,3.2,3.333,3.333,0,0,1,1.367-3,9.84,9.84,0,0,0-3.347,1.655,5.359,5.359,0,0,1,2.126-2.6A7.986,7.986,0,0,0,453.824,282.362Z" transform="translate(-453.632 -276.173)"/></g><g transform="translate(135.575 25.343)"><path class="l" d="M225.251,303.478v.14c-1,8.215,0,10.554,0,10.554h-1.528C223.443,303.9,225.251,303.478,225.251,303.478Z" transform="translate(-219.838 -299.962)"/><path class="l" d="M218.47,302.8s1.675-2.059,3.6-1.661a4.48,4.48,0,0,0-3.732.321s2.231-1.918,4.064-.783a5.981,5.981,0,0,0-3.054-1.4,2.784,2.784,0,0,1,4.011,1.71c-.247-1.231-.051-2.741,2.619-2.322a2.914,2.914,0,0,0-2.2,2.529c.649-3.185,3.685-1.732,3.685-1.732a3.67,3.67,0,0,0-2.964,1.569,2.809,2.809,0,0,1,3.791.319,2.943,2.943,0,0,0-2.028-.311,4.29,4.29,0,0,1,2.174,2.4,3.512,3.512,0,0,0-3.964-1.292,3.577,3.577,0,0,1,3.817,3.925,4.919,4.919,0,0,0-3.772-3.309,3.281,3.281,0,0,1,.922,3.927,5.818,5.818,0,0,0-1.23-3.787,2.76,2.76,0,0,1-.276,2.381,12.364,12.364,0,0,0-.324-2.87h-.038a6.415,6.415,0,0,0-1.906,2.177,2.268,2.268,0,0,1,.93-2.042,6.7,6.7,0,0,0-2.277,1.126,3.643,3.643,0,0,1,1.446-1.77A5.436,5.436,0,0,0,218.47,302.8Z" transform="translate(-218.339 -298.587)"/></g><g transform="translate(125.475 24.477)"><path class="l" d="M211.223,302.272v.141c-1,8.215,0,10.554,0,10.554h-1.529C209.414,302.693,211.223,302.272,211.223,302.272Z" transform="translate(-205.81 -298.757)"/><path class="l" d="M204.442,301.591s1.674-2.059,3.6-1.661a4.48,4.48,0,0,0-3.732.321s2.231-1.918,4.064-.783a5.983,5.983,0,0,0-3.054-1.4,2.785,2.785,0,0,1,4.012,1.71c-.248-1.231-.052-2.742,2.619-2.322a2.914,2.914,0,0,0-2.2,2.529c.649-3.185,3.684-1.732,3.684-1.732a3.669,3.669,0,0,0-2.963,1.569,2.81,2.81,0,0,1,3.791.319,2.944,2.944,0,0,0-2.029-.311,4.29,4.29,0,0,1,2.174,2.4,3.509,3.509,0,0,0-3.963-1.292,3.577,3.577,0,0,1,3.817,3.925,4.921,4.921,0,0,0-3.773-3.309,3.28,3.28,0,0,1,.922,3.927,5.816,5.816,0,0,0-1.23-3.787,2.758,2.758,0,0,1-.276,2.381,12.363,12.363,0,0,0-.323-2.87h-.039a6.418,6.418,0,0,0-1.905,2.177,2.267,2.267,0,0,1,.93-2.041,6.694,6.694,0,0,0-2.277,1.126,3.647,3.647,0,0,1,1.446-1.77A5.432,5.432,0,0,0,204.442,301.591Z" transform="translate(-204.311 -297.381)"/></g><g transform="translate(72.877 25.809)"><path class="l" d="M138.17,304.125v.14c-1,8.215,0,10.555,0,10.555h-1.529C136.361,304.546,138.17,304.125,138.17,304.125Z" transform="translate(-132.757 -300.61)"/><path class="l" d="M131.389,303.444s1.674-2.059,3.6-1.662a4.484,4.484,0,0,0-3.732.322s2.23-1.918,4.064-.783a5.98,5.98,0,0,0-3.054-1.4,2.785,2.785,0,0,1,4.012,1.711c-.248-1.231-.052-2.742,2.619-2.322a2.914,2.914,0,0,0-2.2,2.529c.649-3.185,3.684-1.732,3.684-1.732a3.671,3.671,0,0,0-2.963,1.57,2.809,2.809,0,0,1,3.791.318,2.944,2.944,0,0,0-2.029-.311,4.29,4.29,0,0,1,2.174,2.4,3.509,3.509,0,0,0-3.963-1.292,3.577,3.577,0,0,1,3.817,3.925,4.922,4.922,0,0,0-3.773-3.31,3.281,3.281,0,0,1,.922,3.927,5.818,5.818,0,0,0-1.23-3.787,2.759,2.759,0,0,1-.276,2.382,12.32,12.32,0,0,0-.324-2.87h-.038a6.412,6.412,0,0,0-1.905,2.176,2.269,2.269,0,0,1,.93-2.042,6.689,6.689,0,0,0-2.277,1.126,3.644,3.644,0,0,1,1.446-1.77A5.425,5.425,0,0,0,131.389,303.444Z" transform="translate(-131.258 -299.234)"/></g><g transform="translate(50.097 20.887)"><path class="l" d="M106.531,297.278v.141c-1,8.214,0,10.554,0,10.554H105C104.723,297.7,106.531,297.278,106.531,297.278Z" transform="translate(-101.118 -293.763)"/><path class="l" d="M99.75,296.6s1.674-2.059,3.6-1.661a4.48,4.48,0,0,0-3.732.321s2.231-1.918,4.064-.783a5.983,5.983,0,0,0-3.054-1.4,2.785,2.785,0,0,1,4.012,1.71c-.248-1.231-.052-2.742,2.619-2.322a2.914,2.914,0,0,0-2.2,2.529c.649-3.185,3.684-1.732,3.684-1.732a3.669,3.669,0,0,0-2.963,1.569,2.809,2.809,0,0,1,3.791.319,2.945,2.945,0,0,0-2.029-.311,4.29,4.29,0,0,1,2.174,2.4,3.508,3.508,0,0,0-3.963-1.292,3.577,3.577,0,0,1,3.817,3.925,4.92,4.92,0,0,0-3.772-3.31,3.282,3.282,0,0,1,.922,3.927,5.815,5.815,0,0,0-1.23-3.787,2.759,2.759,0,0,1-.276,2.381,12.4,12.4,0,0,0-.324-2.87h-.038a6.408,6.408,0,0,0-1.906,2.176,2.267,2.267,0,0,1,.93-2.041,6.692,6.692,0,0,0-2.277,1.126,3.647,3.647,0,0,1,1.446-1.77A5.426,5.426,0,0,0,99.75,296.6Z" transform="translate(-99.619 -292.387)"/></g><g transform="translate(312.41)"><path class="l" d="M476.561,272.257v.254c-1.822,15,0,19.268,0,19.268h-2.789C473.26,273.025,476.561,272.257,476.561,272.257Z" transform="translate(-466.68 -265.839)"/><path class="l" d="M464.182,271.013s3.056-3.758,6.573-3.034a8.183,8.183,0,0,0-6.812.587s4.072-3.5,7.418-1.429a10.9,10.9,0,0,0-5.574-2.56s4.923-2.647,7.322,3.121c-.451-2.245-.094-5,4.782-4.239a5.321,5.321,0,0,0-4.013,4.617c1.184-5.814,6.726-3.162,6.726-3.162-2.245-.234-4.162,1.4-5.409,2.867a5.131,5.131,0,0,1,6.921.581,5.371,5.371,0,0,0-3.7-.568c2.687.882,3.969,4.384,3.969,4.384a6.408,6.408,0,0,0-7.235-2.359c2.43.068,6.994,1.013,6.97,7.165,0,0-1.575-5.266-6.888-6.042,1.5,1.448,3.2,3.97,1.683,7.17,0,0,.468-2.79-2.246-6.912a5.032,5.032,0,0,1-.5,4.346,22.529,22.529,0,0,0-.592-5.238H473.5c-1.874,1.016-3.478,3.973-3.478,3.973a4.14,4.14,0,0,1,1.7-3.727,12.232,12.232,0,0,0-4.155,2.055,6.64,6.64,0,0,1,2.64-3.23A9.915,9.915,0,0,0,464.182,271.013Z" transform="translate(-463.943 -263.328)"/></g><g transform="translate(324.767 4.278)"><path class="l" d="M493.723,278.208v.254c-1.822,15,0,19.268,0,19.268h-2.789C490.422,278.976,493.723,278.208,493.723,278.208Z" transform="translate(-483.842 -271.79)"/><path class="l" d="M481.344,276.964s3.057-3.759,6.573-3.034a8.183,8.183,0,0,0-6.812.587s4.072-3.5,7.418-1.429a10.911,10.911,0,0,0-5.574-2.56s4.923-2.647,7.322,3.121c-.451-2.245-.094-5,4.782-4.239a5.321,5.321,0,0,0-4.013,4.617c1.184-5.814,6.726-3.162,6.726-3.162-2.245-.234-4.162,1.4-5.409,2.867a5.131,5.131,0,0,1,6.921.582,5.375,5.375,0,0,0-3.7-.568c2.688.882,3.969,4.384,3.969,4.384a6.407,6.407,0,0,0-7.235-2.358c2.43.067,6.994,1.012,6.97,7.164,0,0-1.575-5.266-6.888-6.042,1.5,1.449,3.2,3.971,1.683,7.17,0,0,.469-2.79-2.246-6.913a5.032,5.032,0,0,1-.5,4.346,22.575,22.575,0,0,0-.591-5.238h-.07c-1.874,1.016-3.478,3.974-3.478,3.974a4.141,4.141,0,0,1,1.7-3.728,12.231,12.231,0,0,0-4.155,2.055,6.644,6.644,0,0,1,2.64-3.23A9.915,9.915,0,0,0,481.344,276.964Z" transform="translate(-481.105 -269.28)"/></g><g transform="translate(77.927 22.731)"><path class="l" d="M150.89,303.881v.254c-1.822,15,0,19.268,0,19.268H148.1C147.589,304.649,150.89,303.881,150.89,303.881Z" transform="translate(-141.009 -297.463)"/><path class="l" d="M138.511,302.637s3.056-3.759,6.573-3.034a8.183,8.183,0,0,0-6.812.587s4.071-3.5,7.418-1.429a10.91,10.91,0,0,0-5.575-2.56s4.923-2.647,7.322,3.121c-.451-2.245-.094-5,4.782-4.239a5.321,5.321,0,0,0-4.013,4.617c1.184-5.814,6.726-3.162,6.726-3.162-2.246-.234-4.163,1.4-5.409,2.867a5.13,5.13,0,0,1,6.921.581,5.369,5.369,0,0,0-3.7-.568c2.687.882,3.969,4.384,3.969,4.384a6.408,6.408,0,0,0-7.235-2.359c2.43.068,6.994,1.013,6.97,7.165,0,0-1.575-5.266-6.888-6.042,1.5,1.449,3.2,3.97,1.683,7.17,0,0,.468-2.79-2.246-6.913a5.034,5.034,0,0,1-.5,4.346,22.5,22.5,0,0,0-.591-5.238h-.07c-1.873,1.016-3.478,3.973-3.478,3.973a4.142,4.142,0,0,1,1.7-3.727,12.239,12.239,0,0,0-4.156,2.055,6.641,6.641,0,0,1,2.64-3.23A9.915,9.915,0,0,0,138.511,302.637Z" transform="translate(-138.272 -294.952)"/></g><g transform="translate(175.339 22.974)"><path class="l" d="M280.867,300.776v.157c1.12,9.213,0,11.836,0,11.836h1.714C282.9,301.248,280.867,300.776,280.867,300.776Z" transform="translate(-275.61 -296.833)"/><path class="l" d="M284.746,300.012s-1.878-2.309-4.038-1.864a5.029,5.029,0,0,1,4.185.361s-2.5-2.151-4.558-.878a6.705,6.705,0,0,1,3.425-1.573s-3.025-1.625-4.5,1.918c.277-1.379.058-3.074-2.938-2.6a3.271,3.271,0,0,1,2.466,2.837c-.728-3.572-4.132-1.942-4.132-1.942a4.111,4.111,0,0,1,3.322,1.76,3.151,3.151,0,0,0-4.251.357,3.3,3.3,0,0,1,2.276-.349c-1.651.542-2.439,2.693-2.439,2.693a3.935,3.935,0,0,1,4.445-1.448c-1.493.042-4.3.621-4.282,4.4a5.521,5.521,0,0,1,4.231-3.712,3.678,3.678,0,0,0-1.034,4.4s-.288-1.714,1.379-4.246a3.092,3.092,0,0,0,.31,2.67,13.848,13.848,0,0,1,.364-3.217h.043a7.185,7.185,0,0,1,2.137,2.441,2.543,2.543,0,0,0-1.043-2.289,7.52,7.52,0,0,1,2.552,1.262,4.084,4.084,0,0,0-1.621-1.985A6.085,6.085,0,0,1,284.746,300.012Z" transform="translate(-273.566 -295.291)"/></g><g transform="translate(222.789 16.181)"><path class="l" d="M346.769,291.325v.157c1.12,9.213,0,11.836,0,11.836h1.714C348.8,291.8,346.769,291.325,346.769,291.325Z" transform="translate(-341.513 -287.382)"/><path class="l" d="M350.648,290.561s-1.877-2.309-4.037-1.864a5.029,5.029,0,0,1,4.185.36s-2.5-2.151-4.558-.878a6.705,6.705,0,0,1,3.425-1.573s-3.024-1.625-4.5,1.918c.277-1.379.058-3.074-2.938-2.6a3.271,3.271,0,0,1,2.466,2.836c-.728-3.571-4.133-1.942-4.133-1.942a4.116,4.116,0,0,1,3.323,1.761,3.152,3.152,0,0,0-4.252.357,3.3,3.3,0,0,1,2.276-.349c-1.651.542-2.439,2.693-2.439,2.693a3.935,3.935,0,0,1,4.445-1.448c-1.494.041-4.3.621-4.283,4.4a5.521,5.521,0,0,1,4.231-3.712,3.678,3.678,0,0,0-1.033,4.4s-.289-1.714,1.379-4.247a3.092,3.092,0,0,0,.31,2.67,13.839,13.839,0,0,1,.364-3.217h.042a7.191,7.191,0,0,1,2.138,2.441,2.544,2.544,0,0,0-1.043-2.289,7.5,7.5,0,0,1,2.552,1.262,4.076,4.076,0,0,0-1.621-1.985A6.085,6.085,0,0,1,350.648,290.561Z" transform="translate(-339.469 -285.84)"/></g><g transform="translate(291.74 14.719)"><path class="l" d="M442.987,289.292v.157c-1.12,9.213,0,11.836,0,11.836h-1.714C440.959,289.763,442.987,289.292,442.987,289.292Z" transform="translate(-436.916 -285.349)"/><path class="l" d="M435.383,288.528s1.878-2.309,4.038-1.865a5.034,5.034,0,0,0-4.185.361s2.5-2.151,4.558-.878a6.705,6.705,0,0,0-3.424-1.573s3.024-1.626,4.5,1.918c-.277-1.379-.058-3.074,2.938-2.6a3.27,3.27,0,0,0-2.466,2.836c.728-3.571,4.132-1.942,4.132-1.942a4.114,4.114,0,0,0-3.322,1.76,3.152,3.152,0,0,1,4.251.357,3.3,3.3,0,0,0-2.276-.349c1.651.542,2.439,2.693,2.439,2.693a3.937,3.937,0,0,0-4.445-1.449c1.493.042,4.3.622,4.282,4.4a5.521,5.521,0,0,0-4.231-3.712,3.677,3.677,0,0,1,1.034,4.4s.288-1.713-1.379-4.246a3.093,3.093,0,0,1-.31,2.67,13.836,13.836,0,0,0-.364-3.217h-.042a7.182,7.182,0,0,0-2.138,2.441,2.545,2.545,0,0,1,1.043-2.29,7.519,7.519,0,0,0-2.552,1.262,4.081,4.081,0,0,1,1.621-1.984A6.086,6.086,0,0,0,435.383,288.528Z" transform="translate(-435.235 -283.807)"/></g><g transform="translate(38.919 14.388)"><g transform="translate(3.337 5.043)"><path class="l" d="M90.624,290.361v.171c-1.215,10,0,12.847,0,12.847h-1.86C88.423,290.874,90.624,290.361,90.624,290.361Z" transform="translate(-88.728 -290.361)"/></g><path class="l" d="M95.272,288.967s-.839-3.624-4.749-2.023c1.192-2.811,3.2-3.211,3.2-3.211a4.167,4.167,0,0,0-3.909,2.441,3.342,3.342,0,0,0-2.778-2.828,4.441,4.441,0,0,1,1.918,2.69,3.467,3.467,0,0,0-4.013-.374,3.861,3.861,0,0,1,3.254.727c-2.5-.625-3.987,2.053-3.987,2.053a4.036,4.036,0,0,1,3.634-1.078c-1.025.108-2.4.711-3.749,2.734a7.6,7.6,0,0,1,2.9-1.875c-2.192,1.124-2.785,4.249-2.785,4.249a6.171,6.171,0,0,1,4.807-3.742c1.377.764,1.207,3.742,1.207,3.742a4.036,4.036,0,0,0,.023-3.311,4.719,4.719,0,0,1,1.687,3.876,3.992,3.992,0,0,0-.922-4.3,4.852,4.852,0,0,1,2.334,1.766c-.4-2.134-1.377-2.785-2.116-2.959A3.386,3.386,0,0,1,95.272,288.967Z" transform="translate(-84.094 -283.345)"/></g><g transform="translate(13.206 13.7)"><g transform="translate(3.337 5.043)"><path class="l" d="M54.911,289.4v.171c-1.215,10,0,12.847,0,12.847h-1.86C52.71,289.918,54.911,289.4,54.911,289.4Z" transform="translate(-53.015 -289.405)"/></g><path class="l" d="M59.559,288.011s-.839-3.624-4.749-2.023c1.192-2.811,3.2-3.211,3.2-3.211a4.167,4.167,0,0,0-3.909,2.441,3.342,3.342,0,0,0-2.778-2.828,4.441,4.441,0,0,1,1.918,2.69,3.467,3.467,0,0,0-4.013-.374,3.861,3.861,0,0,1,3.254.727c-2.5-.625-3.987,2.053-3.987,2.053a4.034,4.034,0,0,1,3.633-1.078c-1.025.108-2.4.711-3.749,2.734a7.6,7.6,0,0,1,2.9-1.875c-2.192,1.124-2.784,4.249-2.784,4.249a6.17,6.17,0,0,1,4.806-3.742c1.377.763,1.207,3.742,1.207,3.742a4.038,4.038,0,0,0,.022-3.311,4.721,4.721,0,0,1,1.688,3.876,3.993,3.993,0,0,0-.923-4.3,4.852,4.852,0,0,1,2.334,1.766c-.4-2.134-1.377-2.785-2.116-2.959A3.386,3.386,0,0,1,59.559,288.011Z" transform="translate(-48.381 -282.389)"/></g></g><path class="i" d="M380.188,303.912a74.732,74.732,0,0,1-18.364-2.92c-5.949-1.742-9.672-6-15.306-7.593-11.344-3.217-21.639-11.2-33.842-6.735-11.1,4.063-20.245,14.908-31,15.549-7.579.453-12.062,8.422-19.21,10.086-6.1,1.418-11.763-1.284-17.657-1.7-6.712-.471-13.069,1.246-19.731-.239a109.548,109.548,0,0,0-16.51-2.626c-12.766-.811-24.288,6.739-37.483,4.778-22.1-3.286-45.267-3.205-68.008-2.867-5.885.088-11.772-.023-17.657,0-6.547.027-10.455-3.452-16.525-4.777-11.686-2.55-22.313-4.014-34.307-5.732-6.424-.919-10.475-7.291-16.682-7.644-4.55-.259-11.763,1.141-16.064,3.535-5.9,3.281-7.384,7.841-14.445,7.931-4.48.057-12.051-2.284-15.254,2.866v17.131H379.848Z" transform="translate(27.999 -168.964)"/></g><g transform="translate(-33.154 17.628)"><g transform="translate(43.86 35.314)"><path class="f" d="M24.294,375.643c-13.615-54.151-9.989-96.064-4.55-121.687,5.924-27.91,15.011-42.8,15.394-43.416l4.376,2.7c-.361.584-35.754,59.649-10.234,161.157Z" transform="translate(-14.869 -210.539)"/></g><path class="f" d="M38.634,207.389c1.735.572,3.476,1.17,5.21,1.78l3.547-4.4-1.7,5.058q2.087.755,4.141,1.525l2.982-5.036-1.381,5.641q2.055.782,4.036,1.56l2.1-4.551-1.035,4.972c1.258.5,2.486.993,3.675,1.477l2.229-3.263-.706,3.884q1.641.676,3.165,1.315l3.4-5.513-1.1,6.486c1.08.461,2.1.9,3.046,1.308l.485-6.97,2.158,8.127c3,1.324,4.792,2.154,4.792,2.154-8.147-29.642-28.739-31.092-43.73-27.618,1.423-.725,2.94-1.476,4.524-2.238l-.935-3.449,3.187,2.384q1.348-.624,2.752-1.256l-1.513-2.9,3.065,2.21q.988-.431,2-.863L45.343,184l4.02,4.243q1.5-.612,3.04-1.213L50.931,184l4.086,2.039q1.214-.451,2.455-.888l-1.231-2.917,3.612,2.1q1.7-.573,3.43-1.114l-1.511-2.137,3.6,1.5q2.746-.813,5.566-1.53s-31.173-9.07-45.234,7.181c1.649-7.72-.063-17.651-13.259-26.828,0,0,.427,1.987,1.058,5.105l1.943-.193-1.58,1.988c.167.845.345,1.742.528,2.687l2.129-.211-1.743,2.194c.2,1.07.414,2.179.624,3.319l4.2.49-3.83,1.506c.176.967.349,1.946.521,2.931l4.386.51-4.026,1.585c.216,1.278.424,2.555.621,3.81-5.018-11.362-15.949-21.842-39.751-10.964,0,0,1.254.52,3.347,1.471l4.941-1.37-2.447,2.527c.952.452,1.992.952,3.108,1.507l4.821-3.062-2.543,4.208c1.151.589,2.361,1.224,3.609,1.9l3.074-3.429L-6.08,184.2q1.161.642,2.352,1.322L-.1,182.469l-1.543,4.27q1.379.817,2.775,1.686l4.409-2.186-2.126,3.638c1.585,1.031,3.161,2.1,4.7,3.219-15.426-5.162-42.237-8.658-54.158,22.806a55.237,55.237,0,0,1,11.585-6.107l2.611-6.906.636,5.642c2.114-.776,4.456-1.552,7.038-2.292v-6.386l1.92,5.851q2.164-.583,4.535-1.121v-3.817l1.39,3.518q1.392-.3,2.854-.576l3.062-5.921,1.39,5.151q2.768-.431,5.749-.774l.778-4.741,1.953,4.455c3.29-.312,6.759-.535,10.425-.642-34.029,5.482-34.053,41.057-34.053,41.057q2.013-1.92,4.02-3.827L-20.947,234l2.583,2.765q2.134-2.028,4.239-4.026l-.738-4.153,2.4,2.576q1.537-1.457,3.043-2.882l-.5-2.805,1.624,1.739L-7,225.992l-.7-3.943,2.284,2.447c1.214-1.146,2.406-2.273,3.568-3.367v-4.764l1.8,3.069,3.4-3.206-.633-3.567,2.069,2.217,1.683-1.583-.933-5.254,3.048,3.265c4.048-3.8,7.276-6.826,9.266-8.687.014.012.03.022.046.033.1,2.038.266,5.469.54,10.009H23.6l-5.06,1.738c.086,1.383.181,2.864.285,4.419l4,.862-3.884.835q.141,2.085.306,4.339l6.232.566L19.5,228.177q.2,2.609.426,5.4l7,1.013-6.768,1.762q.221,2.6.466,5.341l5.749.627L20.9,244.792q.333,3.6.711,7.367l6.857-3.546-6.543,6.629q.145,1.385.294,2.79l3.262-1.686-2.978,4.313q.231,2.142.481,4.318s21.66-22.205,8.086-48.184c1.361,1.876,2.692,3.823,3.983,5.795l3.593-2.908L35.844,223.8q1.372,2.136,2.67,4.279l5-3.361L39.663,230q.343.577.678,1.151l7.05-6.944-5.929,8.88q.926,1.615,1.791,3.177l4.139-1.785-3.627,2.716q.545,1,1.063,1.956l4.224-2.573-3.248,4.4c.688,1.3,1.326,2.527,1.905,3.667l2.228-2.544L48.9,247c1.758,3.521,2.772,5.744,2.772,5.744C55.906,226.294,47.99,213.524,38.634,207.389Z" transform="translate(46.047 -161.409)"/><g transform="translate(29.55 58.218)"><g transform="translate(31.119 25.055)"><path class="f" d="M44.9,394.407c-9.66-38.421-7.088-68.158-3.228-86.339,4.2-19.8,10.65-30.364,10.923-30.8l3.1,1.914c-.256.415-25.368,42.323-7.261,114.344Z" transform="translate(-38.214 -277.263)"/></g><path class="f" d="M55.076,275.029c1.231.405,2.467.829,3.7,1.264l2.516-3.124-1.208,3.588q1.481.536,2.938,1.082l2.116-3.573-.98,4c.971.369,1.928.74,2.863,1.107l1.491-3.229-.734,3.527c.892.354,1.763.7,2.607,1.048l1.582-2.315-.5,2.756q1.163.48,2.246.933l2.415-3.912-.778,4.6c.766.327,1.491.638,2.161.929l.344-4.946,1.531,5.767c2.131.94,3.4,1.529,3.4,1.529C77,265.032,62.392,264,51.756,266.468c1.009-.515,2.086-1.047,3.21-1.587l-.663-2.447,2.261,1.691c.638-.295,1.287-.593,1.953-.891l-1.073-2.056,2.174,1.568q.7-.305,1.423-.612l-1.2-3.7,2.853,3.01q1.063-.435,2.157-.86l-1.045-2.15,2.9,1.448q.862-.32,1.742-.63l-.874-2.069,2.562,1.486q1.2-.407,2.434-.791l-1.071-1.516,2.554,1.066Q76,256.852,78,256.344s-22.117-6.435-32.093,5.1c1.169-5.477-.045-12.524-9.408-19.035,0,0,.3,1.41.75,3.622l1.379-.137L37.5,247.3q.178.9.375,1.906l1.511-.15-1.237,1.557c.144.759.294,1.546.443,2.355l2.977.347-2.717,1.069c.125.686.248,1.381.369,2.079l3.113.362-2.857,1.124c.153.907.3,1.813.441,2.7-3.56-8.062-11.317-15.5-28.2-7.779,0,0,.89.368,2.375,1.043l3.506-.973-1.737,1.793c.675.321,1.413.676,2.205,1.07l3.421-2.174-1.8,2.985c.817.419,1.675.87,2.56,1.347l2.182-2.434-1.071,3.04q.823.456,1.668.938l2.573-2.167-1.1,3.03q.98.58,1.969,1.2l3.128-1.55L30.085,262.6c1.125.732,2.243,1.493,3.334,2.284-10.945-3.662-29.967-6.143-38.426,16.181a39.227,39.227,0,0,1,8.22-4.334l1.852-4.9.451,4c1.5-.551,3.162-1.1,4.993-1.627v-4.531l1.362,4.151q1.536-.414,3.217-.795v-2.709l.986,2.5c.659-.143,1.334-.278,2.025-.41l2.173-4.2.986,3.655q1.963-.307,4.08-.549l.552-3.365,1.386,3.161c2.334-.221,4.8-.38,7.4-.455-24.144,3.889-24.161,29.131-24.161,29.131q1.429-1.363,2.853-2.715l-.562-3.171,1.832,1.962,3.008-2.857-.523-2.946,1.706,1.828q1.09-1.034,2.159-2.045l-.353-1.99,1.152,1.234c.307-.291.611-.577.914-.865l-.5-2.8,1.62,1.736c.862-.813,1.707-1.613,2.532-2.389V281.4l1.276,2.178,2.414-2.275-.449-2.532,1.468,1.573c.4-.38.808-.76,1.194-1.123l-.662-3.728,2.163,2.317c2.871-2.7,5.162-4.843,6.574-6.164l.033.023c.067,1.446.189,3.881.383,7.1h3.666L40.822,280c.061.981.128,2.032.2,3.135l2.838.612-2.755.592q.1,1.48.217,3.079l4.422.4L41.5,289.778q.141,1.851.3,3.83l4.965.72-4.8,1.249q.158,1.849.33,3.789l4.08.446L42.5,301.566q.237,2.552.5,5.227l4.865-2.516-4.643,4.7q.1.983.209,1.98l2.314-1.2-2.113,3.06q.165,1.519.342,3.064s15.368-15.755,5.737-34.188c.966,1.332,1.91,2.713,2.826,4.111l2.55-2.063-1.99,2.927q.972,1.515,1.894,3.036l3.55-2.385-2.735,3.743q.244.41.481.817l5-4.927-4.207,6.3q.657,1.146,1.271,2.254l2.936-1.267-2.573,1.928q.388.706.754,1.388l3-1.826-2.3,3.122c.488.921.94,1.793,1.352,2.6l1.58-1.8-.736,3.477c1.247,2.5,1.967,4.074,1.967,4.074C67.33,288.441,61.714,279.382,55.076,275.029Z" transform="translate(5.006 -242.405)"/></g><g transform="translate(5.87 94.96)"><g transform="translate(31.119 25.055)"><path class="f" d="M12.014,445.523c-9.66-38.421-7.088-68.158-3.228-86.339,4.2-19.8,10.65-30.364,10.922-30.8l3.1,1.914c-.256.415-25.368,42.322-7.261,114.344Z" transform="translate(-5.327 -328.379)"/></g><path class="f" d="M22.189,326.145c1.231.406,2.467.83,3.7,1.264l2.516-3.124-1.208,3.589q1.481.535,2.938,1.081l2.116-3.572-.979,4c.971.369,1.928.74,2.863,1.107l1.491-3.229-.734,3.527q1.339.532,2.608,1.048l1.582-2.315-.5,2.756q1.163.48,2.246.933l2.415-3.912-.778,4.6c.766.327,1.491.638,2.161.929l.345-4.946,1.531,5.767c2.131.94,3.4,1.529,3.4,1.529-5.78-21.031-20.391-22.061-31.027-19.6,1.009-.515,2.086-1.047,3.209-1.587l-.662-2.447,2.261,1.691q.956-.442,1.953-.891L24.555,312.3l2.174,1.568q.7-.305,1.422-.612l-1.2-3.7,2.852,3.011q1.064-.436,2.157-.861l-1.045-2.15,2.9,1.448q.862-.32,1.742-.63l-.874-2.069,2.562,1.486q1.2-.406,2.434-.79l-1.072-1.517,2.554,1.066q1.949-.577,3.949-1.086s-22.118-6.435-32.094,5.1c1.17-5.477-.045-12.524-9.407-19.034,0,0,.3,1.409.75,3.621l1.379-.137-1.122,1.411c.119.6.245,1.236.375,1.906l1.511-.149-1.237,1.557c.144.759.294,1.547.443,2.355l2.976.346L5.966,305.5c.125.686.248,1.38.369,2.079l3.112.362-2.856,1.124c.153.907.3,1.813.44,2.7-3.56-8.062-11.316-15.5-28.2-7.779,0,0,.889.369,2.375,1.043l3.506-.972-1.737,1.793c.675.321,1.413.676,2.2,1.07l3.421-2.174-1.8,2.986c.816.418,1.675.869,2.56,1.346l2.182-2.434-1.071,3.04q.823.455,1.668.937l2.573-2.166-1.1,3.029q.98.58,1.969,1.2l3.128-1.551L-2.8,313.72c1.125.732,2.242,1.493,3.334,2.284-10.945-3.662-29.967-6.143-38.426,16.181a39.222,39.222,0,0,1,8.22-4.333l1.852-4.9.451,4c1.5-.551,3.162-1.1,4.993-1.627V320.8l1.362,4.151q1.536-.414,3.217-.795v-2.709l.986,2.5q.988-.213,2.025-.41l2.173-4.2.986,3.654q1.965-.307,4.08-.549L-7,319.072l1.385,3.161c2.334-.221,4.8-.379,7.4-.455-24.144,3.889-24.161,29.131-24.161,29.131q1.429-1.362,2.853-2.715l-.562-3.171,1.832,1.962,3.008-2.856-.523-2.946,1.706,1.828q1.09-1.034,2.159-2.045l-.353-1.99,1.151,1.235.914-.865-.5-2.8,1.62,1.736c.861-.813,1.707-1.612,2.532-2.389v-3.38l1.276,2.177,2.414-2.275-.449-2.532,1.468,1.573,1.194-1.123-.662-3.728L.87,328.923c2.871-2.7,5.162-4.843,6.574-6.164l.033.023c.067,1.446.189,3.881.383,7.1h3.666l-3.591,1.233c.061.981.128,2.032.2,3.136l2.838.611-2.755.592q.1,1.48.217,3.079l4.422.4-4.246,1.957q.141,1.851.3,3.83l4.965.72-4.8,1.249q.158,1.849.33,3.789l4.08.446-3.878,1.755q.235,2.552.5,5.228l4.865-2.516-4.643,4.7q.1.983.208,1.979l2.315-1.2-2.113,3.06q.165,1.519.341,3.064s15.368-15.755,5.738-34.188c.966,1.332,1.91,2.713,2.826,4.111l2.55-2.063-1.99,2.927q.972,1.516,1.894,3.036l3.55-2.384-2.735,3.743q.244.409.481.817l5-4.927-4.207,6.3q.657,1.146,1.271,2.254l2.936-1.267-2.573,1.927q.387.706.754,1.388l3-1.825-2.3,3.121c.487.922.94,1.793,1.352,2.6l1.58-1.806-.736,3.477c1.247,2.5,1.966,4.075,1.966,4.075C34.443,339.558,28.827,330.5,22.189,326.145Z" transform="translate(37.894 -293.522)"/></g><g transform="translate(361.69 86.374)"><g transform="translate(35.888 22.946)"><path class="f" d="M481.312,420.789c8.847-35.189,6.492-62.424,2.957-79.075-3.85-18.136-9.754-27.81-10-28.214l-2.843,1.754c.234.38,23.234,38.761,6.65,104.723Z" transform="translate(-471.422 -313.5)"/></g><path class="f" d="M446.954,311.455c-1.127.372-2.259.76-3.385,1.157l-2.3-2.862,1.107,3.287q-1.357.491-2.691.991l-1.938-3.272.9,3.665c-.89.339-1.766.678-2.622,1.014l-1.366-2.958.672,3.23q-1.227.488-2.388.96l-1.449-2.12.459,2.524q-1.067.439-2.058.854l-2.211-3.582.713,4.214c-.7.3-1.365.585-1.979.851l-.315-4.53-1.4,5.282c-1.953.86-3.114,1.4-3.114,1.4,5.293-19.263,18.675-20.2,28.416-17.947-.924-.471-1.91-.959-2.94-1.453l.608-2.242-2.07,1.548c-.585-.27-1.179-.543-1.79-.816l.984-1.882-1.992,1.436q-.642-.279-1.3-.56l1.1-3.387-2.611,2.757q-.975-.4-1.976-.788l.958-1.969-2.655,1.326q-.789-.294-1.6-.578l.8-1.9-2.346,1.362q-1.1-.373-2.23-.724l.981-1.389-2.339.977q-1.784-.529-3.617-.995s20.257-5.894,29.393,4.666c-1.071-5.016.041-11.47,8.616-17.433,0,0-.278,1.292-.688,3.317l-1.262-.125,1.027,1.292c-.109.548-.225,1.132-.343,1.745l-1.385-.137,1.133,1.426c-.131.7-.269,1.416-.406,2.156l-2.726.318,2.489.98c-.114.627-.227,1.264-.338,1.9l-2.85.332,2.616,1.03c-.14.83-.276,1.66-.4,2.476,3.262-7.383,10.364-14.193,25.831-7.125,0,0-.814.338-2.174.955l-3.211-.89,1.59,1.642c-.618.294-1.295.619-2.02.98l-3.132-1.99,1.652,2.734c-.748.384-1.534.8-2.346,1.233l-2-2.228.981,2.784q-.755.417-1.528.859l-2.356-1.985,1,2.775q-.9.53-1.8,1.1l-2.864-1.42,1.381,2.364c-1.029.671-2.053,1.368-3.054,2.092,10.025-3.354,27.446-5.626,35.194,14.82a35.905,35.905,0,0,0-7.528-3.969l-1.7-4.487-.413,3.667c-1.374-.5-2.9-1.009-4.573-1.49v-4.15l-1.248,3.8q-1.406-.378-2.946-.729v-2.48l-.9,2.286c-.6-.131-1.222-.254-1.855-.375l-1.989-3.848-.9,3.347q-1.8-.281-3.737-.5l-.505-3.081-1.268,2.895c-2.138-.2-4.393-.346-6.775-.416,22.113,3.562,22.129,26.68,22.129,26.68q-1.309-1.247-2.613-2.487l.516-2.9-1.679,1.8-2.755-2.616.48-2.7-1.562,1.674q-1-.948-1.979-1.873l.323-1.824-1.055,1.131-.837-.793.455-2.562-1.484,1.59-2.319-2.187v-3.1l-1.168,1.994-2.211-2.083.41-2.319-1.344,1.44-1.094-1.029.606-3.414L466.479,314c-2.63-2.471-4.728-4.436-6.021-5.645l-.03.021c-.061,1.325-.173,3.554-.351,6.5H456.72l3.288,1.129c-.057.9-.118,1.862-.186,2.872l-2.6.56,2.524.543c-.061.9-.127,1.842-.2,2.82l-4.05.368,3.889,1.792q-.13,1.695-.276,3.507l-4.548.659,4.4,1.144q-.145,1.694-.3,3.47l-3.736.409,3.552,1.607q-.216,2.337-.461,4.788l-4.456-2.3,4.251,4.308q-.093.9-.19,1.813l-2.12-1.1,1.936,2.8q-.151,1.392-.313,2.806s-14.075-14.43-5.255-31.311c-.884,1.219-1.749,2.484-2.588,3.765l-2.335-1.89,1.823,2.68q-.891,1.389-1.736,2.781l-3.251-2.184,2.506,3.428c-.15.25-.3.5-.441.748l-4.581-4.513,3.853,5.77c-.4.7-.789,1.389-1.163,2.064l-2.69-1.16,2.357,1.765q-.354.647-.691,1.27l-2.744-1.671,2.11,2.859c-.446.844-.861,1.642-1.238,2.383l-1.448-1.654.675,3.186c-1.143,2.288-1.8,3.732-1.8,3.732C435.73,323.738,440.874,315.441,446.954,311.455Z" transform="translate(-421.578 -281.576)"/></g><g transform="translate(313.482 107.402)"><g transform="translate(35.888 22.946)"><path class="f" d="M414.356,450.045c8.847-35.189,6.492-62.424,2.957-79.075-3.85-18.136-9.754-27.81-10-28.214l-2.843,1.753c.234.381,23.234,38.762,6.65,104.723Z" transform="translate(-404.466 -342.756)"/></g><path class="f" d="M380,340.71c-1.128.372-2.259.76-3.385,1.158l-2.3-2.861,1.107,3.287q-1.356.491-2.691.99l-1.938-3.271.9,3.665c-.89.339-1.766.678-2.622,1.014l-1.366-2.958.673,3.23q-1.227.488-2.389.96l-1.448-2.12.459,2.524q-1.066.439-2.057.854L360.72,343.6l.713,4.214c-.7.3-1.366.585-1.979.851l-.316-4.53-1.4,5.282c-1.953.86-3.114,1.4-3.114,1.4,5.293-19.263,18.675-20.2,28.416-17.947-.924-.471-1.911-.959-2.94-1.453l.608-2.242-2.07,1.548c-.585-.27-1.179-.543-1.79-.816l.984-1.882-1.992,1.436q-.642-.279-1.3-.56l1.1-3.387-2.611,2.757q-.975-.4-1.976-.789l.958-1.969-2.655,1.325q-.789-.293-1.6-.577l.8-1.9-2.346,1.362q-1.1-.373-2.23-.724l.981-1.389-2.339.977q-1.784-.529-3.617-.995s20.257-5.894,29.393,4.666c-1.071-5.016.041-11.47,8.616-17.433,0,0-.278,1.292-.688,3.317l-1.262-.126,1.027,1.292c-.109.549-.225,1.133-.343,1.746l-1.385-.137,1.133,1.426c-.13.7-.269,1.416-.405,2.156l-2.726.318,2.489.98c-.115.628-.228,1.264-.338,1.9l-2.85.332,2.616,1.03c-.14.83-.276,1.66-.4,2.476,3.262-7.383,10.364-14.193,25.831-7.125,0,0-.814.338-2.174.955l-3.211-.89,1.59,1.642c-.618.294-1.295.619-2.02.98l-3.132-1.99,1.652,2.733c-.748.383-1.534.8-2.346,1.233l-2-2.229.981,2.784q-.755.418-1.528.86l-2.356-1.985,1,2.775q-.9.532-1.8,1.1l-2.864-1.42,1.381,2.364c-1.029.671-2.053,1.368-3.053,2.092,10.025-3.354,27.446-5.627,35.194,14.82a35.9,35.9,0,0,0-7.528-3.969l-1.7-4.487-.413,3.667c-1.374-.505-2.9-1.009-4.573-1.49v-4.15l-1.249,3.8q-1.407-.38-2.946-.729v-2.48l-.9,2.286c-.6-.131-1.222-.254-1.855-.375l-1.989-3.847-.9,3.347q-1.8-.281-3.737-.5l-.505-3.081-1.269,2.895c-2.138-.2-4.392-.346-6.774-.416,22.113,3.562,22.129,26.68,22.129,26.68q-1.309-1.247-2.613-2.487l.516-2.9-1.679,1.8-2.755-2.616.48-2.7-1.562,1.675q-1-.948-1.978-1.873l.323-1.824-1.055,1.131-.837-.792.455-2.562-1.484,1.59c-.789-.744-1.564-1.476-2.319-2.187v-3.1l-1.168,1.994-2.211-2.083.41-2.319-1.343,1.44-1.094-1.029.606-3.414-1.981,2.122c-2.63-2.47-4.728-4.435-6.021-5.645l-.03.021c-.061,1.325-.173,3.554-.351,6.5h-3.357l3.288,1.129c-.057.9-.118,1.862-.186,2.872l-2.6.561,2.524.543q-.092,1.355-.2,2.82l-4.05.368,3.889,1.791q-.13,1.7-.276,3.508l-4.548.659,4.4,1.144c-.1,1.129-.2,2.288-.3,3.47l-3.736.408,3.552,1.607q-.216,2.338-.461,4.788l-4.456-2.3,4.251,4.308q-.093.9-.19,1.813l-2.12-1.1,1.936,2.8c-.1.928-.206,1.861-.313,2.806,0,0-14.075-14.43-5.255-31.311-.884,1.22-1.749,2.484-2.588,3.766l-2.335-1.89,1.823,2.68q-.891,1.388-1.736,2.78l-3.252-2.184,2.506,3.429c-.149.25-.3.5-.441.748l-4.581-4.513,3.853,5.77c-.4.7-.789,1.389-1.163,2.064l-2.69-1.16,2.357,1.765c-.236.431-.467.855-.691,1.27l-2.744-1.671,2.11,2.859c-.446.844-.861,1.642-1.238,2.383l-1.448-1.654.674,3.186c-1.142,2.288-1.8,3.731-1.8,3.731C368.774,352.994,373.918,344.7,380,340.71Z" transform="translate(-354.622 -310.832)"/></g><g transform="translate(321.675 16.935)"><g transform="translate(52.911 33.832)"><path class="f" d="M454.071,390.221c13.045-51.882,9.572-92.036,4.36-116.586-5.676-26.739-14.381-41-14.75-41.6l-4.192,2.585c.346.561,34.256,57.149,9.805,154.4Z" transform="translate(-439.49 -232.038)"/></g><path class="f" d="M403.416,229.022q-2.495.824-4.992,1.707l-3.4-4.219,1.632,4.845q-2,.723-3.968,1.461l-2.856-4.824,1.323,5.4q-1.969.748-3.867,1.494l-2.013-4.36.991,4.763q-1.808.718-3.522,1.416l-2.135-3.127.676,3.721q-1.571.648-3.032,1.259l-3.262-5.282,1.051,6.213c-1.033.442-2.012.863-2.918,1.254l-.465-6.678-2.067,7.787c-2.879,1.269-4.591,2.065-4.591,2.065,7.8-28.4,27.534-29.789,41.9-26.46-1.363-.694-2.817-1.414-4.334-2.143l.9-3.3-3.052,2.283c-.861-.4-1.737-.8-2.637-1.2l1.449-2.776-2.937,2.118q-.945-.411-1.92-.826l1.624-4.993-3.851,4.065q-1.438-.588-2.912-1.162l1.41-2.9-3.914,1.955q-1.166-.433-2.354-.852l1.179-2.795-3.46,2.008q-1.625-.549-3.288-1.067l1.448-2.048-3.447,1.439q-2.633-.778-5.334-1.466s29.867-8.69,43.338,6.88c-1.579-7.4.06-16.911,12.7-25.7,0,0-.41,1.9-1.014,4.891l-1.861-.185,1.515,1.905c-.161.809-.332,1.669-.505,2.573l-2.041-.2,1.67,2.1c-.194,1.024-.4,2.087-.6,3.179l-4.019.469,3.669,1.443c-.169.926-.334,1.865-.5,2.807l-4.2.49,3.857,1.517c-.206,1.225-.407,2.448-.594,3.651,4.807-10.886,15.281-20.926,38.084-10.5,0,0-1.2.5-3.205,1.409l-4.735-1.312,2.344,2.422c-.912.434-1.909.913-2.978,1.445l-4.619-2.935,2.436,4.031c-1.1.565-2.261,1.174-3.457,1.818l-2.945-3.286,1.446,4.1q-1.111.617-2.252,1.267l-3.473-2.925,1.476,4.091q-1.321.783-2.658,1.616l-4.222-2.094,2.035,3.485c-1.518.988-3.027,2.016-4.5,3.084,14.779-4.945,40.466-8.3,51.888,21.849a52.979,52.979,0,0,0-11.1-5.851l-2.5-6.616-.609,5.407c-2.025-.745-4.269-1.488-6.742-2.2V221.8l-1.84,5.606q-2.075-.558-4.344-1.074v-3.658l-1.332,3.371q-1.333-.289-2.735-.553l-2.934-5.673-1.332,4.934q-2.651-.415-5.509-.741l-.746-4.543-1.869,4.268c-3.153-.3-6.477-.511-9.989-.613,32.6,5.251,32.626,39.335,32.626,39.335q-1.929-1.839-3.852-3.666l.76-4.282-2.475,2.649q-2.046-1.942-4.062-3.856l.708-3.978-2.3,2.468q-1.472-1.4-2.916-2.761l.475-2.69-1.554,1.668c-.415-.394-.824-.78-1.235-1.169l.67-3.778-2.187,2.345c-1.163-1.1-2.306-2.177-3.419-3.225v-4.565l-1.723,2.94-3.259-3.071.606-3.419-1.981,2.123c-.544-.512-1.091-1.025-1.613-1.515l.895-5.034-2.922,3.129c-3.879-3.643-6.971-6.54-8.877-8.323-.015.01-.029.019-.045.031-.09,1.953-.256,5.24-.518,9.589h-4.949l4.849,1.665c-.084,1.325-.175,2.745-.274,4.234l-3.832.827,3.72.8q-.135,2-.293,4.157l-5.972.543,5.733,2.641q-.191,2.5-.407,5.172l-6.7.971,6.486,1.687q-.214,2.5-.446,5.117l-5.51.6,5.238,2.369q-.319,3.447-.68,7.06l-6.569-3.4,6.267,6.352c-.091.884-.185,1.778-.279,2.672l-3.126-1.614,2.854,4.132q-.223,2.052-.462,4.138s-20.75-21.275-7.747-46.165c-1.3,1.8-2.579,3.663-3.815,5.552L403.4,240.8l2.688,3.952q-1.314,2.046-2.56,4.1l-4.793-3.219,3.694,5.055q-.329.551-.65,1.1l-6.754-6.654,5.681,8.508q-.886,1.546-1.715,3.043l-3.966-1.71,3.475,2.6q-.524.954-1.02,1.874l-4.046-2.464,3.112,4.215c-.657,1.243-1.269,2.421-1.824,3.513l-2.135-2.438,1,4.7c-1.685,3.372-2.658,5.5-2.658,5.5C386.867,247.133,394.451,234.9,403.416,229.022Z" transform="translate(-366.002 -184.97)"/></g></g></g></g></g><path class="m" d="M0,0H360V265H0Z" transform="translate(3076 -310)"/></g></svg>