<svg xmlns="http://www.w3.org/2000/svg" xmlns:xlink="http://www.w3.org/1999/xlink" viewBox="0 0 96 96"><defs><style>.a{fill:url(#a);}.b{fill:#fff;}</style><linearGradient id="a" x1="0.394" y1="0.386" x2="0.89" y2="0.796" gradientUnits="objectBoundingBox"><stop offset="0" stop-color="#6affba"/><stop offset="1" stop-color="#2ed991"/><stop offset="1"/></linearGradient></defs><path class="a" d="M56.125,10c24.853,0,46.125,21.272,46.125,46.125S80.978,102.25,56.125,102.25,10,80.978,10,56.125,31.272,10,56.125,10Z" transform="translate(-8.125 -8.125)"/><path class="b" d="M179.352,177.648a5.622,5.622,0,0,1,0,7.954l-22.5,22.5a5.622,5.622,0,0,1-7.954,0l-11.25-11.25A5.624,5.624,0,1,1,145.6,188.9l7.273,7.273L171.4,177.648A5.622,5.622,0,0,1,179.352,177.648Z" transform="translate(-110.5 -143)"/><path d="M92.133,29.562A49.888,49.888,0,0,0,66.438,3.867a45.89,45.89,0,0,0-36.877,0A49.888,49.888,0,0,0,3.867,29.562a45.89,45.89,0,0,0,0,36.877A49.888,49.888,0,0,0,29.562,92.133a45.89,45.89,0,0,0,36.877,0A49.888,49.888,0,0,0,92.133,66.438a45.89,45.89,0,0,0,0-36.877ZM48,92.25C24.014,92.25,3.75,71.986,3.75,48S24.014,3.75,48,3.75,92.25,24.014,92.25,48,71.986,92.25,48,92.25Z"/><path d="M119.683,67.526A41.021,41.021,0,0,0,98.349,46.192,38.772,38.772,0,0,0,82.938,43c-7.212,0-14.729,2.463-21.74,7.121a1.875,1.875,0,1,0,2.075,3.123C69.667,49,76.467,46.75,82.938,46.75c19.616,0,36.187,16.572,36.187,36.188s-16.572,36.187-36.187,36.187S46.75,102.553,46.75,82.938c0-6.47,2.245-13.27,6.493-19.664A1.875,1.875,0,1,0,50.119,61.2C45.462,68.21,43,75.727,43,82.938a38.774,38.774,0,0,0,3.192,15.412,41.021,41.021,0,0,0,21.333,21.333,38.8,38.8,0,0,0,30.824,0,41.021,41.021,0,0,0,21.333-21.333,38.8,38.8,0,0,0,0-30.824Z" transform="translate(-34.938 -34.938)"/><path d="M128.2,190.053l11.25,11.25a7.5,7.5,0,0,0,10.605,0l22.5-22.5a7.5,7.5,0,1,0-10.6-10.606l-17.2,17.2-5.947-5.947A7.5,7.5,0,1,0,128.2,190.053Zm2.652-7.954a3.747,3.747,0,0,1,5.3,0l8.6,8.6L164.6,170.849a3.749,3.749,0,1,1,5.3,5.3l-22.5,22.5a3.747,3.747,0,0,1-5.3,0L130.848,187.4a3.747,3.747,0,0,1,0-5.3Z" transform="translate(-102.375 -134.875)"/><path d="M106.875,105a1.875,1.875,0,1,0,1.875,1.875A1.876,1.876,0,0,0,106.875,105Z" transform="translate(-85.313 -85.313)"/></svg>