<svg xmlns="http://www.w3.org/2000/svg" xmlns:xlink="http://www.w3.org/1999/xlink" viewBox="0 0 94.274 94.275"><defs><style>.a{fill:none;}.b,.g,.k{fill:#fff;}.c{fill:url(#a);}.d{clip-path:url(#b);}.e{opacity:0.101;}.f{clip-path:url(#c);}.g{opacity:0.2;}.h{fill:#381c10;}.i{fill:#41271b;}.j{fill:url(#d);}.k{opacity:0.1;}.l{fill:#61f9b4;}.m{fill:#fbb32b;}.n{fill:#2ace85;}.o{fill:#31b057;}.p{fill:#efefef;}.q{fill:#31db93;}.r{fill:#f19758;}.s{fill:#00ab6b;}.t{fill:#009743;}.u{fill:#74757b;}.v{fill:#606268;}.w{fill:#c3c4c6;}.x{fill:#afb0b4;}.y{fill:#ffb92e;}.z{fill:#ef9a1d;}.aa{fill:#605e5a;}.ab{fill:#7c7a75;}</style><linearGradient id="a" x1="0.75" y1="0.067" x2="0.25" y2="0.933" gradientUnits="objectBoundingBox"><stop offset="0" stop-color="#e6e7e8"/><stop offset="0.07" stop-color="#e8e9ea" stop-opacity="0.812"/><stop offset="0.14" stop-color="#eaebec" stop-opacity="0.62"/><stop offset="0.23" stop-color="#eceded" stop-opacity="0.459"/><stop offset="0.32" stop-color="#eeefef" stop-opacity="0.31"/><stop offset="0.41" stop-color="#eff0f0" stop-opacity="0.2"/><stop offset="0.52" stop-color="#f0f1f1" stop-opacity="0.11"/><stop offset="0.63" stop-color="#f0f1f2" stop-opacity="0.051"/><stop offset="0.77" stop-color="#f1f2f2" stop-opacity="0.012"/><stop offset="1" stop-color="#f1f2f2" stop-opacity="0"/></linearGradient><clipPath id="b"><circle class="a" cx="46.108" cy="46.108" r="46.108" transform="translate(0)"/></clipPath><clipPath id="c"><rect class="a" width="91.805" height="66.559"/></clipPath><linearGradient id="d" x1="0.5" y1="1" x2="0.5" gradientUnits="objectBoundingBox"><stop offset="0" stop-color="#6affba"/><stop offset="1" stop-color="#2ed991"/></linearGradient></defs><g transform="translate(0 0)"><rect class="b" width="94.275" height="94.275" transform="translate(0)"/><g transform="translate(0 1.473)"><circle class="c" cx="46.108" cy="46.108" r="46.108" transform="translate(1.726)"/><g class="d" transform="translate(1.726)"><g class="e" transform="translate(0.411 -85.035)"><g transform="translate(0 99)"><g class="f"><g transform="translate(-5.151 -2.466)"><path class="g" d="M192.5,156c.839-.84,2.533-1.032,3.6-1.327a8.829,8.829,0,0,0,2.32-.544c.6-.389.583-1.076,1.092-1.454.55-.408,1.352-.166,1.892-.581.483-.371.487-1.1.928-1.536,1.033-1.015,2.427-.853,3.616-1.278.389-.139,1.4-.763,1.907-1.024,1.175-.6.664-.332,1.246-1.346.628-1.094.879-2.4,2.041-2.907,1.242-.544,3,.394,2.66-2.034.836-.4,2.317.233,2.5-1.112a13.592,13.592,0,0,0,2.93-.24c0-.625.17-1.176.2-1.79,1.059-.143.835-1.33,1.541-1.7.638-.336,2.016.08,2.659.157,2.278.272,2.543-.288,4.243-1.245.75-.423,1.754-.235,2.475-.785.757-.577.593-1.346,1.594-1.618.75-.2,1.608.114,2.393-.135.708-.225,1.024-.69,1.971-.631-.1-2.339,1.728-3.167,3.311-4.073,2.212-1.265,4.019.411,6.114-.329.938-.331,1.31-.975,2.35-1.106,1.274-.161,1.807.144,2.777-.744.418-.382.5-.969.946-1.331a.72.72,0,0,1,.2-.111V156.5H192.149A2.144,2.144,0,0,1,192.5,156Z" transform="translate(-151.718 -124.85)"/><path class="g" d="M-18.2,123.432l.241.074c1.845.552,3.725,2.154,5.293,3.511,2.656,2.3,5.476,2.6,8.3,4.614,2.732,1.95,5.639,2.461,8.531,3.838,2.763,1.316,5.66,3.334,8.595,4.423a38.4,38.4,0,0,0,4.532,1.384c1.471.339,3.052-.121,4.545.135a16.625,16.625,0,0,1,4.861,1.849c1.862,1.042,2.594,2.685,4.735,2.768a8.077,8.077,0,0,1,4.105.909c1.711,1,2.323.827,4.157.933,1.475.085,2.977,1.086,4.357,1.706a33.145,33.145,0,0,0,4.109,1.394c1.756.532,3.1,1.954,4.74,2.952a16.775,16.775,0,0,0,3.33,1.517H-18.2Z" transform="translate(20.006 -123.432)"/><path class="g" d="M41.32,197.283c-.839-.84-2.533-1.032-3.6-1.327a8.83,8.83,0,0,1-2.32-.544c-.6-.389-.583-1.076-1.092-1.454-.55-.408-1.352-.166-1.892-.581-.483-.371-.487-1.1-.928-1.536-1.033-1.015-2.427-.853-3.616-1.278-.389-.139-1.4-.763-1.907-1.024-1.175-.6-.664-.332-1.246-1.346-.628-1.094-.879-2.4-2.041-2.907-1.242-.544-3,.394-2.66-2.034-.835-.4-2.317.233-2.5-1.112a13.6,13.6,0,0,1-2.93-.24c0-.625-.17-1.176-.2-1.79-1.059-.143-.835-1.329-1.541-1.7-.638-.336-2.016.08-2.659.157-2.278.272-2.543-.288-4.243-1.245-.75-.423-1.754-.235-2.475-.785-.757-.577-.593-1.346-1.594-1.619-.75-.2-1.608.114-2.393-.135-.708-.225-1.023-.69-1.971-.631.1-2.339-1.728-3.167-3.311-4.073-2.212-1.265-4.019.411-6.114-.329-.939-.331-1.31-.975-2.35-1.106-1.274-.161-1.807.144-2.777-.744-.418-.382-.5-.969-.946-1.331a.717.717,0,0,0-.2-.111v31.329H41.669A2.136,2.136,0,0,0,41.32,197.283Z" transform="translate(20.006 -158.569)"/><path class="g" d="M187.273,164.719l-.241.074c-1.845.552-3.725,2.154-5.293,3.51-2.656,2.3-5.476,2.6-8.3,4.614-2.732,1.95-5.639,2.461-8.531,3.838-2.763,1.316-5.66,3.334-8.595,4.423a38.435,38.435,0,0,1-4.532,1.384c-1.471.339-3.052-.121-4.545.135a16.629,16.629,0,0,0-4.861,1.849c-1.862,1.042-2.594,2.685-4.736,2.768a8.077,8.077,0,0,0-4.105.909c-1.711,1-2.323.826-4.157.933-1.475.086-2.978,1.086-4.357,1.706a33.081,33.081,0,0,1-4.109,1.394c-1.757.532-3.1,1.954-4.74,2.952a16.768,16.768,0,0,1-3.33,1.517h74.427Z" transform="translate(-86.976 -157.151)"/><path class="g" d="M78.491,181.015a13.031,13.031,0,0,0-2.82,3.039c-.472.707-.434,1.928-.815,2.5-.393.589-1.334.965-1.849,1.591-1.023,1.245-2.078,2.065-3.016,3.4-1.122-.993-1.673.358-2.621.586-.967.232-1.816-.41-2.777.043-1.111.523-1.787,1.579-3.028,1.932-1.089.31-2.407.064-3.477.379-1.423.419-2.488,1.826-3.765,2.763a4.9,4.9,0,0,1-3.409.784c-2.7,0-4.695.72-7.208,1.282-2.946.658-5.973.564-8.931,1.076-2.98.516-4.472-.042-7.208-1.21-2.6-1.109-5.372-.225-8.148-.225-1.732,0-6.875-.4-7.391-2.556-.39-.024-.827.033-1.219-.027a13.82,13.82,0,0,1-4.231-.932,35.346,35.346,0,0,0-3.294-1.513,5.218,5.218,0,0,0-3.917.087c-2.114.623-1.868-.966-3.608-1.3-1.238-.234-2.5.773-3.917.2-.629-.254-1.257-1.081-1.915-1.305-.575-.2-1.332.093-1.854-.212-1.021-.6-1.489-2.054-2.647-2.778a15.843,15.843,0,0,0-3.621-1.649v21.2H80.29v-29C79.642,179.834,79.042,180.57,78.491,181.015Z" transform="translate(20.006 -168.955)"/><g transform="translate(1.809 50.712)"><path class="h" d="M65.4,400.674c-3.84,0-7.206.662-10.878.979-3.6.311-7.061-.423-10.49-.592a205.765,205.765,0,0,0-20.979,0c-7.262.383-14.719.335-21.949,0-3.273-.152-6.5-.969-9.909-.969-3.2,0-6.272.336-9.4.5v17.816H80.29V400.662C75.391,401.048,70.172,400.674,65.4,400.674Z" transform="translate(18.197 -400.092)"/><path class="i" d="M80.29,403.819a23.162,23.162,0,0,0-2.591-.427c-4.117.128-8.36-.126-12.3-.126-3.84,0-7.206.662-10.878.98-3.6.311-7.061-.423-10.49-.592-5.789-.284-11.561-.347-17.338-.153a66.939,66.939,0,0,1-11.915,1.192c-3.543.131-7.063.871-10.61,1.075a47.648,47.648,0,0,1-7.585.008c-2.173-.235-4.185-1.232-6.311-1.662a36.07,36.07,0,0,0-8.474-.748v5.017a20.957,20.957,0,0,0,6.43.7c2.964-.252,5.117-.606,8,0a51.748,51.748,0,0,0,15.39,1.13c5.993-.568,11.289-2.719,17.515-2.381a61.091,61.091,0,0,1,8.466,1.208,37.561,37.561,0,0,0,9.24.5c3.06-.151,5.633,1.18,8.461,1.1,2.792-.076,5.193-1.551,8.147-1.411,3.036.144,5.9,1.688,9.089,1.724,2.867.032,5.045-1.34,7.754-2.15Z" transform="translate(18.197 -402.684)"/><path class="i" d="M56.552,453.046c-2.982-1.789-6.7-1.825-9.916-3.079-3.383-1.32-6.407-3.135-10.144-2.939-3.331.175-6.3,1.652-9.56,2.062-2.979.375-6.225-.778-9.079-1.3-3.143-.57-6.393-1.18-9.638-1.468-3.487-.31-6.653,1.054-10.205.848a23.271,23.271,0,0,1-4.7-1.166,16.947,16.947,0,0,0-4.558-.448c-2.626-.007-4.65.375-6.945,0v4.914c1.781.507,3.548,1.014,5.36,1.659a28.187,28.187,0,0,0,9.479,1.945,62.5,62.5,0,0,0,9.891-1.145,25.192,25.192,0,0,1,3.815-.029c1.588,0,3.017-.385,4.565-.44,3.2-.114,6.431.44,9.7.44a44.547,44.547,0,0,0,9.895-.627c3.341-.75,6.594-.426,9.961-.253a22.815,22.815,0,0,1,10.48,3.517h5.026A36.177,36.177,0,0,0,56.552,453.046Z" transform="translate(18.197 -437.222)"/></g><path class="j" d="M-18.2,337.671v15.975c4.969.132,10.213-.724,15.2.249a52.225,52.225,0,0,0,10.452,1.017c3.879,0,7.084-1.608,10.868-1.939a120.679,120.679,0,0,1,21.227.009c3.59.343,6.9,1.229,10.451,1.537,3.365.292,6.019-1.167,9.31-1.159,2.078,0,3.66.8,5.638,1.159a22.3,22.3,0,0,0,6.406.2c2.3-.254,4.437-.878,6.756-1.013.65-.038,1.4-.022,2.18-.006V337.671Z" transform="translate(20.006 -298.401)"/><path class="k" d="M-18.513,349.159a80.233,80.233,0,0,1,10.6.675,89.124,89.124,0,0,0,12.544.337c4.287-.155,8.643.274,12.842-.337a46.088,46.088,0,0,1,6.792-.675,60.269,60.269,0,0,1,6.053.679c2.78.272,5.731.005,8.481.164,2.522.146,5.93-.387,8.228.3-3.268-.125-6.715.712-10.124.712-3.5,0-7.045,0-10.476.169a49.419,49.419,0,0,0-10.6,1.181,17.525,17.525,0,0,1-6.3,1.015,51.837,51.837,0,0,0-5.229-.51c-3.813,0-7.683-.191-11.489,0-3.873.19-7.8.968-11.667.847" transform="translate(20.54 -307.77)"/><path class="k" d="M257.166,356.014a29.64,29.64,0,0,1-1.359-2.973c-2.022-.052-4.177.478-6.343.48-2.387,0-4.608-.5-7.018-.337-5.6.384-11.276,1.045-16.961,1.476-4.936.374-10.072.372-14.955,1.053-2.179.3-4.369.509-6.588.67-1.809.131-4.886-.181-6.369.342h-3.19c3.742.248,7.112.832,11.07.684,8.41-.317,17.255-.242,25.769-.552,9.08-.33,18.867-.667,27.52,1.74A19.864,19.864,0,0,0,257.166,356.014Z" transform="translate(-153.542 -310.951)"/><path class="k" d="M-18.925,377.4c5.922,0,11.878-.544,17.775-.721,5.943-.177,12.3.84,17.9.84a117.088,117.088,0,0,0-17.44,1.435c-6.148.894-12.475.24-18.779.24h-.305" transform="translate(21.291 -330.243)"/><path class="k" d="M262.061,388.184c-4.3-1.243-10.293,0-14.828,0-6.359,0-12.663-.17-18.969-.169-3.333,0-6.485.678-9.8.675q-5.071,0-10.142,0c-2.746,0-5.392.154-8.092.375,2.611,1.026,6.476.469,9.448.469a72.9,72.9,0,0,1,10.307.383c7.07,1.015,13.855-.925,21.078-.552,3.774.195,7.559.325,11.371.5,1.7.079,3.521.078,5.266.173,2.458.133,5.945,1.386,8.242.169" transform="translate(-158.319 -339.204)"/><path class="k" d="M-25.283,400.8c5.874-1.7,14.066.1,20.025.337,3.723.15,7.381.016,11.035.337a81.562,81.562,0,0,0,9.233.506c-3.353,0-6.3.38-9.4.675-3.236.307-6.645-.079-9.853.165a53.9,53.9,0,0,1-10.6.009c-4.8-.567-8.53.252-13.208.838" transform="translate(28.052 -349.366)"/><g transform="translate(1.809 30.804)"><path class="l" d="M80.29,292.192c-2.209.362-4.516-.707-6.814-.707-5.015,0-9.294,4.333-14.522,3.952-5.207-.38-10.375-2.472-15.795-2.073-5.461.4-10.873,4.479-16.291,2.82-5.262-1.611-10.18,1.853-15.488.195-4.569-1.428-9.952-4.719-14.746-3.532-2.561.634-4.488,3.069-7.244,2.877-2.628-.183-5.119-1.786-7.588-1.884v6.11H80.29Z" transform="translate(18.197 -291.485)"/></g><g transform="translate(6.249 29.792)"><path class="m" d="M17.868,294.892v.065c.465,3.825,0,4.914,0,4.914h.711C18.71,295.088,17.868,294.892,17.868,294.892Z" transform="translate(-15.686 -293.255)"/><path class="m" d="M10.624,287.923s-.779-.958-1.676-.774a2.087,2.087,0,0,1,1.737.15s-1.038-.893-1.892-.364a2.783,2.783,0,0,1,1.422-.653,1.3,1.3,0,0,0-1.867.8c.115-.573.024-1.276-1.22-1.081a1.357,1.357,0,0,1,1.023,1.177c-.3-1.483-1.715-.806-1.715-.806a1.708,1.708,0,0,1,1.379.731,1.308,1.308,0,0,0-1.765.148A1.368,1.368,0,0,1,7,287.1a2,2,0,0,0-1.012,1.118,1.634,1.634,0,0,1,1.845-.6,1.665,1.665,0,0,0-1.777,1.827A2.292,2.292,0,0,1,7.807,287.9a1.527,1.527,0,0,0-.429,1.828,2.708,2.708,0,0,1,.572-1.763,1.284,1.284,0,0,0,.129,1.108,5.736,5.736,0,0,1,.151-1.336h.018a2.982,2.982,0,0,1,.887,1.013,1.056,1.056,0,0,0-.433-.95,3.122,3.122,0,0,1,1.06.524,1.694,1.694,0,0,0-.673-.824A2.528,2.528,0,0,1,10.624,287.923Z" transform="translate(-5.983 -285.963)"/><g transform="translate(3.122 2.009)"><g transform="translate(0.851 1.286)"><path class="m" d="M28.1,303.941v.044a7.731,7.731,0,0,0,0,3.276h-.474C27.542,304.072,28.1,303.941,28.1,303.941Z" transform="translate(-27.62 -303.941)"/></g><path class="m" d="M25.837,298.359a.808.808,0,0,0-1.211-.516,1.28,1.28,0,0,1,.816-.819,1.063,1.063,0,0,0-1,.622.852.852,0,0,0-.708-.721,1.132,1.132,0,0,1,.489.686.884.884,0,0,0-1.023-.1.985.985,0,0,1,.83.186c-.637-.159-1.017.524-1.017.524a1.029,1.029,0,0,1,.927-.275,1.35,1.35,0,0,0-.956.7,1.939,1.939,0,0,1,.74-.478,1.693,1.693,0,0,0-.71,1.083,1.574,1.574,0,0,1,1.226-.954c.351.195.308.954.308.954a1.029,1.029,0,0,0,.006-.844,1.2,1.2,0,0,1,.43.988,1.018,1.018,0,0,0-.235-1.1,1.237,1.237,0,0,1,.6.45c-.1-.544-.351-.71-.54-.755A.864.864,0,0,1,25.837,298.359Z" transform="translate(-22.986 -296.925)"/></g></g><g transform="translate(10.666 25.643)"><g transform="translate(6.803 1.66)"><path class="n" d="M78.976,281.311v.065c.464,3.825,0,4.913,0,4.913h.711C79.818,281.507,78.976,281.311,78.976,281.311Z" transform="translate(-76.794 -279.675)"/><path class="n" d="M71.732,274.343s-.779-.958-1.676-.774a2.087,2.087,0,0,1,1.737.15s-1.038-.893-1.892-.364a2.783,2.783,0,0,1,1.422-.653,1.3,1.3,0,0,0-1.867.8c.115-.573.024-1.276-1.22-1.081a1.357,1.357,0,0,1,1.023,1.177c-.3-1.483-1.715-.806-1.715-.806a1.709,1.709,0,0,1,1.379.731,1.308,1.308,0,0,0-1.765.148,1.369,1.369,0,0,1,.945-.145,2,2,0,0,0-1.012,1.118,1.634,1.634,0,0,1,1.845-.6,1.665,1.665,0,0,0-1.777,1.827,2.292,2.292,0,0,1,1.756-1.541,1.528,1.528,0,0,0-.429,1.828,2.707,2.707,0,0,1,.572-1.763,1.283,1.283,0,0,0,.129,1.108,5.735,5.735,0,0,1,.151-1.336h.018a2.982,2.982,0,0,1,.887,1.013,1.056,1.056,0,0,0-.433-.951,3.124,3.124,0,0,1,1.06.524,1.694,1.694,0,0,0-.673-.824A2.528,2.528,0,0,1,71.732,274.343Z" transform="translate(-67.091 -272.383)"/></g><g transform="translate(0 2.596)"><path class="n" d="M41.925,286.422v.065c.465,3.825,0,4.914,0,4.914h.711C42.767,286.618,41.925,286.422,41.925,286.422Z" transform="translate(-39.743 -284.785)"/><path class="n" d="M34.681,279.453s-.779-.958-1.676-.774a2.087,2.087,0,0,1,1.737.15s-1.038-.893-1.892-.364a2.784,2.784,0,0,1,1.422-.653,1.3,1.3,0,0,0-1.867.8c.115-.573.024-1.276-1.22-1.081a1.357,1.357,0,0,1,1.023,1.177c-.3-1.483-1.715-.806-1.715-.806a1.709,1.709,0,0,1,1.379.731,1.308,1.308,0,0,0-1.765.148,1.371,1.371,0,0,1,.945-.145,2,2,0,0,0-1.012,1.118,1.634,1.634,0,0,1,1.845-.6,1.665,1.665,0,0,0-1.777,1.827,2.292,2.292,0,0,1,1.756-1.541,1.528,1.528,0,0,0-.429,1.828,2.708,2.708,0,0,1,.572-1.763,1.284,1.284,0,0,0,.129,1.108,5.747,5.747,0,0,1,.151-1.336H32.3a2.983,2.983,0,0,1,.887,1.013,1.056,1.056,0,0,0-.433-.95,3.122,3.122,0,0,1,1.06.524,1.694,1.694,0,0,0-.673-.824A2.528,2.528,0,0,1,34.681,279.453Z" transform="translate(-30.04 -277.493)"/></g><g transform="translate(15.17 3.307)"><path class="n" d="M124.548,290.3v.065c.465,3.825,0,4.914,0,4.914h.711C125.39,290.5,124.548,290.3,124.548,290.3Z" transform="translate(-122.366 -288.664)"/><path class="n" d="M117.3,283.332s-.779-.958-1.676-.774a2.087,2.087,0,0,1,1.737.15s-1.038-.893-1.892-.364a2.783,2.783,0,0,1,1.422-.653,1.3,1.3,0,0,0-1.867.8c.115-.573.024-1.276-1.22-1.081a1.357,1.357,0,0,1,1.023,1.177c-.3-1.483-1.715-.806-1.715-.806a1.709,1.709,0,0,1,1.38.731,1.309,1.309,0,0,0-1.765.148,1.37,1.37,0,0,1,.945-.145,2,2,0,0,0-1.012,1.118,1.634,1.634,0,0,1,1.845-.6,1.665,1.665,0,0,0-1.777,1.827,2.292,2.292,0,0,1,1.756-1.541,1.528,1.528,0,0,0-.429,1.828,2.708,2.708,0,0,1,.572-1.763,1.284,1.284,0,0,0,.129,1.108,5.746,5.746,0,0,1,.151-1.336h.018a2.983,2.983,0,0,1,.887,1.013,1.056,1.056,0,0,0-.433-.95,3.119,3.119,0,0,1,1.06.524,1.693,1.693,0,0,0-.673-.824A2.527,2.527,0,0,1,117.3,283.332Z" transform="translate(-112.663 -281.372)"/></g><g transform="translate(61.887 2.762)"><path class="n" d="M377.6,287.324v.065c-.465,3.825,0,4.913,0,4.913h-.711C376.755,287.52,377.6,287.324,377.6,287.324Z" transform="translate(-375.077 -285.687)"/><path class="n" d="M367.159,280.355s.779-.958,1.676-.774a2.087,2.087,0,0,0-1.737.15s1.038-.893,1.892-.365a2.782,2.782,0,0,0-1.422-.653,1.3,1.3,0,0,1,1.867.8c-.115-.573-.024-1.276,1.22-1.081a1.357,1.357,0,0,0-1.023,1.177c.3-1.483,1.715-.806,1.715-.806a1.708,1.708,0,0,0-1.379.731,1.308,1.308,0,0,1,1.765.148,1.371,1.371,0,0,0-.945-.145,2,2,0,0,1,1.012,1.118,1.634,1.634,0,0,0-1.845-.6,1.665,1.665,0,0,1,1.777,1.827,2.292,2.292,0,0,0-1.757-1.541,1.528,1.528,0,0,1,.429,1.828,2.706,2.706,0,0,0-.573-1.763,1.283,1.283,0,0,1-.128,1.108,5.761,5.761,0,0,0-.151-1.336h-.018a2.984,2.984,0,0,0-.887,1.013,1.057,1.057,0,0,1,.433-.951,3.121,3.121,0,0,0-1.06.524,1.694,1.694,0,0,1,.673-.824A2.527,2.527,0,0,0,367.159,280.355Z" transform="translate(-367.098 -278.396)"/></g><g transform="translate(51.714 3.112)"><path class="n" d="M320.145,287.5v.052c-.374,3.08,0,3.957,0,3.957h-.573C319.467,287.656,320.145,287.5,320.145,287.5Z" transform="translate(-318.115 -286.18)"/><path class="n" d="M311.738,281.886s.628-.772,1.35-.623a1.679,1.679,0,0,0-1.4.12s.836-.719,1.523-.294a2.241,2.241,0,0,0-1.145-.526,1.044,1.044,0,0,1,1.5.641c-.093-.461-.019-1.028.982-.871a1.092,1.092,0,0,0-.824.948c.243-1.194,1.381-.649,1.381-.649a1.376,1.376,0,0,0-1.111.589,1.054,1.054,0,0,1,1.421.119,1.1,1.1,0,0,0-.761-.117,1.608,1.608,0,0,1,.815.9,1.315,1.315,0,0,0-1.486-.484,1.341,1.341,0,0,1,1.431,1.471,1.845,1.845,0,0,0-1.415-1.241,1.23,1.23,0,0,1,.346,1.472,2.18,2.18,0,0,0-.461-1.419,1.034,1.034,0,0,1-.1.893,4.621,4.621,0,0,0-.121-1.076h-.014a2.4,2.4,0,0,0-.714.816.851.851,0,0,1,.349-.765,2.514,2.514,0,0,0-.854.422,1.367,1.367,0,0,1,.542-.663A2.036,2.036,0,0,0,311.738,281.886Z" transform="translate(-311.689 -280.308)"/></g><g transform="translate(37.624 5.501)"><path class="n" d="M243.406,300.527v.053c-.374,3.08,0,3.957,0,3.957h-.573C242.728,300.685,243.406,300.527,243.406,300.527Z" transform="translate(-241.377 -299.209)"/><path class="n" d="M235,294.915s.628-.772,1.35-.623a1.68,1.68,0,0,0-1.4.12s.836-.719,1.523-.294a2.243,2.243,0,0,0-1.145-.526,1.044,1.044,0,0,1,1.5.641c-.093-.461-.019-1.028.982-.871a1.093,1.093,0,0,0-.824.948c.243-1.194,1.381-.649,1.381-.649a1.376,1.376,0,0,0-1.111.589,1.053,1.053,0,0,1,1.421.119,1.1,1.1,0,0,0-.76-.117,1.608,1.608,0,0,1,.815.9,1.315,1.315,0,0,0-1.486-.484,1.341,1.341,0,0,1,1.431,1.472,1.844,1.844,0,0,0-1.414-1.241,1.231,1.231,0,0,1,.346,1.472,2.181,2.181,0,0,0-.461-1.42,1.035,1.035,0,0,1-.1.893,4.615,4.615,0,0,0-.121-1.076h-.014a2.4,2.4,0,0,0-.714.816.85.85,0,0,1,.349-.765,2.515,2.515,0,0,0-.854.422,1.367,1.367,0,0,1,.542-.663A2.037,2.037,0,0,0,235,294.915Z" transform="translate(-234.951 -293.337)"/></g><g transform="translate(29.742 4.475)"><path class="n" d="M200.478,294.932v.052c-.374,3.08,0,3.957,0,3.957H199.9C199.8,295.09,200.478,294.932,200.478,294.932Z" transform="translate(-198.448 -293.614)"/><path class="n" d="M192.071,289.32s.628-.772,1.35-.623a1.68,1.68,0,0,0-1.4.12s.836-.719,1.523-.294A2.241,2.241,0,0,0,192.4,288a1.044,1.044,0,0,1,1.5.641c-.093-.461-.019-1.028.982-.871a1.092,1.092,0,0,0-.824.948c.243-1.194,1.381-.649,1.381-.649a1.376,1.376,0,0,0-1.111.588,1.053,1.053,0,0,1,1.421.12,1.1,1.1,0,0,0-.761-.117,1.608,1.608,0,0,1,.815.9,1.315,1.315,0,0,0-1.486-.484,1.341,1.341,0,0,1,1.431,1.471,1.845,1.845,0,0,0-1.414-1.241,1.23,1.23,0,0,1,.346,1.472,2.18,2.18,0,0,0-.461-1.419,1.034,1.034,0,0,1-.1.893,4.623,4.623,0,0,0-.121-1.076h-.014a2.4,2.4,0,0,0-.714.816.851.851,0,0,1,.349-.766,2.513,2.513,0,0,0-.854.422,1.365,1.365,0,0,1,.542-.663A2.035,2.035,0,0,0,192.071,289.32Z" transform="translate(-192.022 -287.742)"/></g><g transform="translate(40.387 5.018)"><path class="n" d="M258.456,297.895v.052c-.374,3.08,0,3.957,0,3.957h-.573C257.777,298.053,258.456,297.895,258.456,297.895Z" transform="translate(-256.426 -296.577)"/><path class="n" d="M250.049,292.283s.627-.772,1.35-.623a1.68,1.68,0,0,0-1.4.12s.836-.719,1.523-.293a2.241,2.241,0,0,0-1.145-.526,1.044,1.044,0,0,1,1.5.641c-.093-.461-.019-1.028.982-.871a1.093,1.093,0,0,0-.824.948c.243-1.194,1.381-.649,1.381-.649a1.376,1.376,0,0,0-1.111.589,1.053,1.053,0,0,1,1.421.12,1.1,1.1,0,0,0-.761-.117,1.608,1.608,0,0,1,.815.9,1.315,1.315,0,0,0-1.486-.484,1.341,1.341,0,0,1,1.431,1.471,1.845,1.845,0,0,0-1.414-1.241,1.231,1.231,0,0,1,.346,1.472,2.181,2.181,0,0,0-.461-1.42,1.034,1.034,0,0,1-.1.893,4.631,4.631,0,0,0-.121-1.076h-.014a2.4,2.4,0,0,0-.714.816.85.85,0,0,1,.349-.765,2.511,2.511,0,0,0-.853.422,1.365,1.365,0,0,1,.542-.664A2.036,2.036,0,0,0,250.049,292.283Z" transform="translate(-250 -290.705)"/></g><g transform="translate(24.933 6.903)"><path class="n" d="M174.291,308.178v.052c-.374,3.08,0,3.957,0,3.957h-.573C173.613,308.336,174.291,308.178,174.291,308.178Z" transform="translate(-172.261 -306.86)"/><path class="n" d="M165.884,302.566s.628-.772,1.35-.623a1.68,1.68,0,0,0-1.4.12s.836-.719,1.523-.293a2.241,2.241,0,0,0-1.145-.526,1.044,1.044,0,0,1,1.5.641c-.093-.461-.019-1.028.982-.871a1.092,1.092,0,0,0-.824.948c.243-1.194,1.381-.649,1.381-.649a1.376,1.376,0,0,0-1.111.589,1.054,1.054,0,0,1,1.421.119,1.1,1.1,0,0,0-.761-.117,1.608,1.608,0,0,1,.815.9,1.315,1.315,0,0,0-1.486-.484,1.341,1.341,0,0,1,1.431,1.471,1.845,1.845,0,0,0-1.415-1.241,1.23,1.23,0,0,1,.346,1.472,2.18,2.18,0,0,0-.461-1.419,1.034,1.034,0,0,1-.1.893,4.621,4.621,0,0,0-.121-1.076H167.8a2.4,2.4,0,0,0-.714.816.851.851,0,0,1,.349-.765,2.513,2.513,0,0,0-.854.422,1.365,1.365,0,0,1,.542-.663A2.035,2.035,0,0,0,165.884,302.566Z" transform="translate(-165.835 -300.988)"/></g><g transform="translate(27.848 5.018)"><path class="n" d="M190.167,297.895v.052c-.374,3.08,0,3.957,0,3.957h-.573C189.488,298.053,190.167,297.895,190.167,297.895Z" transform="translate(-188.137 -296.577)"/><path class="n" d="M181.76,292.283s.628-.772,1.35-.623a1.68,1.68,0,0,0-1.4.12s.836-.719,1.523-.293a2.241,2.241,0,0,0-1.145-.526,1.044,1.044,0,0,1,1.5.641c-.093-.461-.019-1.028.982-.871a1.093,1.093,0,0,0-.824.948c.243-1.194,1.381-.649,1.381-.649a1.376,1.376,0,0,0-1.111.589,1.053,1.053,0,0,1,1.421.12,1.1,1.1,0,0,0-.761-.117,1.608,1.608,0,0,1,.815.9,1.315,1.315,0,0,0-1.486-.484,1.341,1.341,0,0,1,1.431,1.471,1.845,1.845,0,0,0-1.414-1.241,1.231,1.231,0,0,1,.346,1.472,2.181,2.181,0,0,0-.461-1.42,1.034,1.034,0,0,1-.1.893,4.624,4.624,0,0,0-.122-1.076h-.014a2.4,2.4,0,0,0-.714.816.85.85,0,0,1,.348-.765,2.511,2.511,0,0,0-.853.422,1.365,1.365,0,0,1,.542-.664A2.037,2.037,0,0,0,181.76,292.283Z" transform="translate(-181.711 -290.705)"/></g><g transform="translate(47.603 4.611)"><path class="n" d="M297.754,295.674v.052c-.375,3.08,0,3.957,0,3.957h-.573C297.076,295.832,297.754,295.674,297.754,295.674Z" transform="translate(-295.725 -294.356)"/><path class="n" d="M289.348,290.062s.628-.772,1.35-.623a1.68,1.68,0,0,0-1.4.121s.836-.719,1.523-.294a2.241,2.241,0,0,0-1.145-.526,1.044,1.044,0,0,1,1.5.641c-.093-.461-.019-1.028.982-.871a1.093,1.093,0,0,0-.824.948c.243-1.194,1.381-.649,1.381-.649a1.375,1.375,0,0,0-1.111.589,1.053,1.053,0,0,1,1.421.119,1.1,1.1,0,0,0-.761-.117,1.609,1.609,0,0,1,.815.9,1.316,1.316,0,0,0-1.486-.484,1.341,1.341,0,0,1,1.431,1.471,1.846,1.846,0,0,0-1.414-1.241,1.23,1.23,0,0,1,.346,1.472,2.181,2.181,0,0,0-.461-1.419,1.034,1.034,0,0,1-.1.893,4.6,4.6,0,0,0-.122-1.076h-.014a2.4,2.4,0,0,0-.714.816.85.85,0,0,1,.348-.766,2.511,2.511,0,0,0-.853.422,1.365,1.365,0,0,1,.542-.663A2.036,2.036,0,0,0,289.348,290.062Z" transform="translate(-289.299 -288.484)"/></g><g transform="translate(64.696 5.27)"><path class="n" d="M390.85,299.27v.052c-.374,3.08,0,3.957,0,3.957h-.573C390.172,299.428,390.85,299.27,390.85,299.27Z" transform="translate(-388.82 -297.952)"/><path class="n" d="M382.443,293.658s.628-.772,1.35-.623a1.681,1.681,0,0,0-1.4.12s.836-.719,1.523-.293a2.239,2.239,0,0,0-1.145-.526,1.044,1.044,0,0,1,1.5.641c-.092-.461-.019-1.028.982-.871a1.092,1.092,0,0,0-.824.948c.243-1.194,1.381-.649,1.381-.649a1.377,1.377,0,0,0-1.111.589,1.054,1.054,0,0,1,1.421.12,1.1,1.1,0,0,0-.761-.117,1.608,1.608,0,0,1,.815.9,1.315,1.315,0,0,0-1.486-.484,1.341,1.341,0,0,1,1.431,1.471,1.846,1.846,0,0,0-1.414-1.241,1.231,1.231,0,0,1,.346,1.472,2.18,2.18,0,0,0-.461-1.42,1.035,1.035,0,0,1-.1.893,4.614,4.614,0,0,0-.122-1.076h-.014a2.4,2.4,0,0,0-.714.816.851.851,0,0,1,.349-.765,2.513,2.513,0,0,0-.854.422,1.367,1.367,0,0,1,.542-.664A2.036,2.036,0,0,0,382.443,293.658Z" transform="translate(-382.394 -292.08)"/></g><g transform="translate(70.611 4.353)"><path class="n" d="M423.068,294.267v.052c-.374,3.08,0,3.957,0,3.957h-.573C422.39,294.425,423.068,294.267,423.068,294.267Z" transform="translate(-421.038 -292.949)"/><path class="n" d="M414.661,288.655s.628-.772,1.35-.623a1.68,1.68,0,0,0-1.4.12s.836-.719,1.523-.293a2.24,2.24,0,0,0-1.145-.526,1.044,1.044,0,0,1,1.5.641c-.093-.461-.019-1.028.982-.871a1.092,1.092,0,0,0-.824.948c.243-1.194,1.381-.649,1.381-.649a1.376,1.376,0,0,0-1.111.589,1.053,1.053,0,0,1,1.421.119,1.1,1.1,0,0,0-.76-.117,1.608,1.608,0,0,1,.815.9,1.315,1.315,0,0,0-1.486-.484,1.341,1.341,0,0,1,1.431,1.471,1.846,1.846,0,0,0-1.414-1.241,1.231,1.231,0,0,1,.346,1.472,2.179,2.179,0,0,0-.461-1.419,1.034,1.034,0,0,1-.1.893,4.621,4.621,0,0,0-.122-1.076h-.014a2.4,2.4,0,0,0-.714.816.851.851,0,0,1,.349-.765,2.511,2.511,0,0,0-.854.422,1.366,1.366,0,0,1,.542-.664A2.037,2.037,0,0,0,414.661,288.655Z" transform="translate(-414.612 -287.077)"/></g><g transform="translate(77.776 2.354)"><path class="n" d="M462.087,283.363v.052c-.375,3.08,0,3.957,0,3.957h-.573C461.409,283.521,462.087,283.363,462.087,283.363Z" transform="translate(-460.058 -282.045)"/><path class="n" d="M453.681,277.751s.628-.772,1.35-.623a1.679,1.679,0,0,0-1.4.12s.836-.719,1.523-.294a2.242,2.242,0,0,0-1.145-.526,1.044,1.044,0,0,1,1.5.641c-.093-.461-.019-1.028.982-.871a1.093,1.093,0,0,0-.824.948c.243-1.194,1.381-.649,1.381-.649a1.376,1.376,0,0,0-1.111.589,1.053,1.053,0,0,1,1.421.119,1.1,1.1,0,0,0-.761-.116,1.608,1.608,0,0,1,.815.9,1.316,1.316,0,0,0-1.486-.484,1.341,1.341,0,0,1,1.431,1.472,1.846,1.846,0,0,0-1.414-1.241,1.23,1.23,0,0,1,.346,1.472,2.18,2.18,0,0,0-.461-1.419,1.034,1.034,0,0,1-.1.893,4.6,4.6,0,0,0-.122-1.076h-.014a2.4,2.4,0,0,0-.714.816.85.85,0,0,1,.348-.765,2.509,2.509,0,0,0-.853.422,1.367,1.367,0,0,1,.542-.663A2.037,2.037,0,0,0,453.681,277.751Z" transform="translate(-453.632 -276.173)"/></g><g transform="translate(34.574 6.463)"><path class="n" d="M224.091,303.478v.036a6.351,6.351,0,0,0,0,2.691h-.39C223.63,303.585,224.091,303.478,224.091,303.478Z" transform="translate(-222.711 -302.581)"/><path class="n" d="M218.372,299.66s.427-.525.918-.424a1.143,1.143,0,0,0-.952.082s.569-.489,1.036-.2a1.525,1.525,0,0,0-.779-.358.71.71,0,0,1,1.023.436c-.063-.314-.013-.7.668-.592a.743.743,0,0,0-.561.645c.165-.812.94-.442.94-.442a.936.936,0,0,0-.756.4.716.716,0,0,1,.967.081.75.75,0,0,0-.517-.079,1.094,1.094,0,0,1,.554.612.9.9,0,0,0-1.011-.33.912.912,0,0,1,.973,1,1.254,1.254,0,0,0-.962-.844.837.837,0,0,1,.235,1,1.484,1.484,0,0,0-.314-.966.7.7,0,0,1-.071.607,3.152,3.152,0,0,0-.083-.732h-.01a1.636,1.636,0,0,0-.486.555.578.578,0,0,1,.237-.521,1.707,1.707,0,0,0-.581.287.929.929,0,0,1,.369-.451A1.386,1.386,0,0,0,218.372,299.66Z" transform="translate(-218.339 -298.587)"/></g><g transform="translate(31.998 6.242)"><path class="n" d="M210.062,302.272v.036a6.351,6.351,0,0,0,0,2.691h-.39C209.6,302.379,210.062,302.272,210.062,302.272Z" transform="translate(-208.682 -301.376)"/><path class="n" d="M204.344,298.455s.427-.525.918-.424a1.143,1.143,0,0,0-.952.082s.569-.489,1.036-.2a1.526,1.526,0,0,0-.779-.358.71.71,0,0,1,1.023.436c-.063-.314-.013-.7.668-.592a.743.743,0,0,0-.561.645c.165-.812.94-.442.94-.442a.936.936,0,0,0-.756.4.716.716,0,0,1,.967.081.751.751,0,0,0-.517-.079,1.094,1.094,0,0,1,.555.612.9.9,0,0,0-1.011-.33.912.912,0,0,1,.973,1,1.255,1.255,0,0,0-.962-.844.836.836,0,0,1,.235,1,1.483,1.483,0,0,0-.314-.966.7.7,0,0,1-.07.607,3.151,3.151,0,0,0-.082-.732h-.01a1.637,1.637,0,0,0-.486.555.578.578,0,0,1,.237-.521,1.707,1.707,0,0,0-.581.287.93.93,0,0,1,.369-.451A1.385,1.385,0,0,0,204.344,298.455Z" transform="translate(-204.311 -297.381)"/></g><g transform="translate(18.585 6.582)"><path class="n" d="M137.009,304.125v.036a6.352,6.352,0,0,0,0,2.692h-.39C136.548,304.232,137.009,304.125,137.009,304.125Z" transform="translate(-135.629 -303.229)"/><path class="n" d="M131.291,300.308s.427-.525.918-.424a1.143,1.143,0,0,0-.952.082s.569-.489,1.036-.2a1.525,1.525,0,0,0-.779-.358.71.71,0,0,1,1.023.436c-.063-.314-.013-.7.668-.592a.743.743,0,0,0-.561.645c.165-.812.94-.442.94-.442a.936.936,0,0,0-.756.4.716.716,0,0,1,.967.081.751.751,0,0,0-.517-.079,1.094,1.094,0,0,1,.554.612.9.9,0,0,0-1.011-.329.912.912,0,0,1,.974,1,1.255,1.255,0,0,0-.962-.844.837.837,0,0,1,.235,1,1.484,1.484,0,0,0-.314-.966.7.7,0,0,1-.071.607,3.141,3.141,0,0,0-.083-.732h-.01a1.635,1.635,0,0,0-.486.555.579.579,0,0,1,.237-.521,1.705,1.705,0,0,0-.581.287.929.929,0,0,1,.369-.451A1.384,1.384,0,0,0,131.291,300.308Z" transform="translate(-131.258 -299.234)"/></g><g transform="translate(12.775 5.327)"><path class="n" d="M105.371,297.278v.036a6.351,6.351,0,0,0,0,2.691h-.39C104.91,297.385,105.371,297.278,105.371,297.278Z" transform="translate(-103.991 -296.382)"/><path class="n" d="M99.652,293.461s.427-.525.918-.424a1.143,1.143,0,0,0-.952.082s.569-.489,1.036-.2a1.525,1.525,0,0,0-.779-.358A.71.71,0,0,1,100.9,293c-.063-.314-.013-.7.668-.592a.743.743,0,0,0-.561.645c.165-.812.94-.442.94-.442a.936.936,0,0,0-.756.4.716.716,0,0,1,.967.081.751.751,0,0,0-.517-.079,1.094,1.094,0,0,1,.555.612.9.9,0,0,0-1.011-.33.912.912,0,0,1,.973,1,1.255,1.255,0,0,0-.962-.844.837.837,0,0,1,.235,1,1.483,1.483,0,0,0-.314-.966.7.7,0,0,1-.07.607,3.162,3.162,0,0,0-.083-.732h-.01a1.634,1.634,0,0,0-.486.555.578.578,0,0,1,.237-.521,1.707,1.707,0,0,0-.581.287.93.93,0,0,1,.369-.451A1.384,1.384,0,0,0,99.652,293.461Z" transform="translate(-99.619 -292.387)"/></g><g transform="translate(79.669)"><path class="n" d="M474.443,272.257v.065c-.465,3.825,0,4.914,0,4.914h-.711C473.6,272.453,474.443,272.257,474.443,272.257Z" transform="translate(-471.923 -270.62)"/><path class="n" d="M464,265.288s.779-.958,1.676-.774a2.087,2.087,0,0,0-1.737.15s1.038-.893,1.892-.364a2.782,2.782,0,0,0-1.421-.653,1.3,1.3,0,0,1,1.867.8c-.115-.573-.024-1.276,1.219-1.081a1.357,1.357,0,0,0-1.023,1.177c.3-1.483,1.715-.806,1.715-.806a1.709,1.709,0,0,0-1.38.731,1.308,1.308,0,0,1,1.765.148,1.37,1.37,0,0,0-.945-.145,2,2,0,0,1,1.012,1.118,1.634,1.634,0,0,0-1.845-.6,1.665,1.665,0,0,1,1.777,1.827,2.292,2.292,0,0,0-1.757-1.541,1.528,1.528,0,0,1,.429,1.828,2.707,2.707,0,0,0-.573-1.763,1.283,1.283,0,0,1-.129,1.108,5.749,5.749,0,0,0-.151-1.336h-.018a2.981,2.981,0,0,0-.887,1.013,1.056,1.056,0,0,1,.433-.95,3.119,3.119,0,0,0-1.06.524,1.693,1.693,0,0,1,.673-.824A2.528,2.528,0,0,0,464,265.288Z" transform="translate(-463.943 -263.328)"/></g><g transform="translate(82.82 1.091)"><path class="n" d="M491.605,278.208v.065c-.465,3.825,0,4.914,0,4.914h-.711C490.763,278.4,491.605,278.208,491.605,278.208Z" transform="translate(-489.085 -276.571)"/><path class="n" d="M481.166,271.239s.78-.958,1.676-.774a2.087,2.087,0,0,0-1.737.15s1.038-.893,1.892-.364a2.783,2.783,0,0,0-1.422-.653,1.3,1.3,0,0,1,1.867.8c-.115-.573-.024-1.276,1.219-1.081a1.357,1.357,0,0,0-1.023,1.177c.3-1.483,1.715-.806,1.715-.806a1.709,1.709,0,0,0-1.38.731,1.308,1.308,0,0,1,1.765.148,1.371,1.371,0,0,0-.945-.145,2,2,0,0,1,1.012,1.118,1.634,1.634,0,0,0-1.845-.6,1.665,1.665,0,0,1,1.777,1.827,2.292,2.292,0,0,0-1.757-1.541,1.528,1.528,0,0,1,.429,1.828,2.706,2.706,0,0,0-.573-1.763,1.283,1.283,0,0,1-.129,1.108,5.757,5.757,0,0,0-.151-1.336h-.018a2.982,2.982,0,0,0-.887,1.013,1.056,1.056,0,0,1,.433-.951,3.119,3.119,0,0,0-1.06.524,1.694,1.694,0,0,1,.673-.824A2.529,2.529,0,0,0,481.166,271.239Z" transform="translate(-481.105 -269.28)"/></g><g transform="translate(19.873 5.797)"><path class="n" d="M148.772,303.881v.065c-.465,3.825,0,4.913,0,4.913h-.711C147.93,304.077,148.772,303.881,148.772,303.881Z" transform="translate(-146.252 -302.244)"/><path class="n" d="M138.333,296.912s.779-.958,1.676-.774a2.087,2.087,0,0,0-1.737.15s1.038-.893,1.892-.364a2.782,2.782,0,0,0-1.422-.653,1.3,1.3,0,0,1,1.867.8c-.115-.573-.024-1.276,1.22-1.081a1.357,1.357,0,0,0-1.023,1.177c.3-1.483,1.715-.806,1.715-.806a1.709,1.709,0,0,0-1.379.731,1.308,1.308,0,0,1,1.765.148,1.369,1.369,0,0,0-.944-.145,2,2,0,0,1,1.012,1.118,1.634,1.634,0,0,0-1.845-.6,1.665,1.665,0,0,1,1.777,1.827,2.292,2.292,0,0,0-1.756-1.541,1.528,1.528,0,0,1,.429,1.828,2.708,2.708,0,0,0-.573-1.763,1.284,1.284,0,0,1-.129,1.108,5.738,5.738,0,0,0-.151-1.336h-.018a2.984,2.984,0,0,0-.887,1.013,1.056,1.056,0,0,1,.433-.95,3.122,3.122,0,0,0-1.06.524,1.694,1.694,0,0,1,.673-.824A2.528,2.528,0,0,0,138.333,296.912Z" transform="translate(-138.272 -294.952)"/></g><g transform="translate(44.714 5.859)"><path class="n" d="M280.867,300.776v.04a7.121,7.121,0,0,1,0,3.018h.437C281.384,300.9,280.867,300.776,280.867,300.776Z" transform="translate(-279.526 -299.771)"/><path class="n" d="M276.417,296.495s-.479-.589-1.03-.475a1.282,1.282,0,0,1,1.067.092s-.638-.549-1.162-.224a1.71,1.71,0,0,1,.873-.4.8.8,0,0,0-1.147.489c.071-.352.015-.784-.749-.664a.834.834,0,0,1,.629.723c-.186-.911-1.054-.5-1.054-.5a1.048,1.048,0,0,1,.847.449.8.8,0,0,0-1.084.091.842.842,0,0,1,.58-.089,1.228,1.228,0,0,0-.622.687,1,1,0,0,1,1.134-.369,1.023,1.023,0,0,0-1.092,1.122,1.408,1.408,0,0,1,1.079-.947.938.938,0,0,0-.264,1.123,1.662,1.662,0,0,1,.352-1.083.789.789,0,0,0,.079.681,3.532,3.532,0,0,1,.093-.82h.011a1.832,1.832,0,0,1,.545.622.649.649,0,0,0-.266-.584,1.918,1.918,0,0,1,.651.322,1.041,1.041,0,0,0-.413-.506A1.552,1.552,0,0,1,276.417,296.495Z" transform="translate(-273.566 -295.291)"/></g><g transform="translate(56.814 4.126)"><path class="n" d="M346.769,291.325v.04a7.121,7.121,0,0,1,0,3.018h.437C347.286,291.445,346.769,291.325,346.769,291.325Z" transform="translate(-345.429 -290.32)"/><path class="n" d="M342.32,287.044s-.479-.589-1.029-.475a1.282,1.282,0,0,1,1.067.092s-.638-.548-1.162-.224a1.71,1.71,0,0,1,.873-.4.8.8,0,0,0-1.147.489c.071-.352.015-.784-.749-.664a.834.834,0,0,1,.629.723c-.186-.911-1.054-.5-1.054-.5a1.05,1.05,0,0,1,.847.449.8.8,0,0,0-1.084.091.842.842,0,0,1,.58-.089,1.227,1.227,0,0,0-.622.687,1,1,0,0,1,1.134-.369,1.023,1.023,0,0,0-1.092,1.122,1.408,1.408,0,0,1,1.079-.947.938.938,0,0,0-.263,1.123,1.662,1.662,0,0,1,.352-1.083.788.788,0,0,0,.079.681,3.531,3.531,0,0,1,.093-.82h.011a1.834,1.834,0,0,1,.545.622.649.649,0,0,0-.266-.584,1.914,1.914,0,0,1,.651.322,1.04,1.04,0,0,0-.413-.506A1.551,1.551,0,0,1,342.32,287.044Z" transform="translate(-339.469 -285.84)"/></g><g transform="translate(74.398 3.754)"><path class="n" d="M441.686,289.292v.04a7.119,7.119,0,0,0,0,3.018h-.437C441.169,289.412,441.686,289.292,441.686,289.292Z" transform="translate(-440.138 -288.287)"/><path class="n" d="M435.273,285.011s.479-.589,1.03-.475a1.284,1.284,0,0,0-1.067.092s.638-.548,1.162-.224a1.71,1.71,0,0,0-.873-.4.8.8,0,0,1,1.147.489c-.071-.352-.015-.784.749-.664a.834.834,0,0,0-.629.723c.186-.911,1.054-.5,1.054-.5a1.049,1.049,0,0,0-.847.449.8.8,0,0,1,1.084.091.842.842,0,0,0-.58-.089,1.228,1.228,0,0,1,.622.687,1,1,0,0,0-1.134-.37,1.023,1.023,0,0,1,1.092,1.123A1.408,1.408,0,0,0,437,285a.938.938,0,0,1,.264,1.123,1.663,1.663,0,0,0-.352-1.083.789.789,0,0,1-.079.681,3.528,3.528,0,0,0-.093-.82h-.011a1.832,1.832,0,0,0-.545.622.649.649,0,0,1,.266-.584,1.917,1.917,0,0,0-.651.322,1.041,1.041,0,0,1,.413-.506A1.552,1.552,0,0,0,435.273,285.011Z" transform="translate(-435.235 -283.807)"/></g><g transform="translate(9.925 3.669)"><g transform="translate(0.851 1.286)"><path class="n" d="M89.212,290.361v.044a7.731,7.731,0,0,0,0,3.276h-.474C88.65,290.492,89.212,290.361,89.212,290.361Z" transform="translate(-88.728 -290.361)"/></g><path class="n" d="M86.945,284.779a.809.809,0,0,0-1.211-.516,1.279,1.279,0,0,1,.816-.819,1.063,1.063,0,0,0-1,.622.852.852,0,0,0-.708-.721,1.132,1.132,0,0,1,.489.686.884.884,0,0,0-1.023-.1.985.985,0,0,1,.83.186c-.637-.159-1.017.523-1.017.523a1.029,1.029,0,0,1,.927-.275,1.351,1.351,0,0,0-.956.7,1.939,1.939,0,0,1,.74-.478,1.693,1.693,0,0,0-.71,1.083,1.574,1.574,0,0,1,1.226-.954c.351.195.308.954.308.954a1.029,1.029,0,0,0,.006-.844,1.2,1.2,0,0,1,.43.988,1.018,1.018,0,0,0-.235-1.1,1.237,1.237,0,0,1,.6.45c-.1-.544-.351-.71-.54-.755A.863.863,0,0,1,86.945,284.779Z" transform="translate(-84.094 -283.345)"/></g><g transform="translate(3.368 3.494)"><g transform="translate(0.851 1.286)"><path class="n" d="M53.5,289.4v.044a7.731,7.731,0,0,0,0,3.276h-.474C52.937,289.536,53.5,289.4,53.5,289.4Z" transform="translate(-53.015 -289.405)"/></g><path class="n" d="M51.232,283.823a.809.809,0,0,0-1.211-.516,1.28,1.28,0,0,1,.816-.819,1.063,1.063,0,0,0-1,.622.852.852,0,0,0-.708-.721,1.132,1.132,0,0,1,.489.686.884.884,0,0,0-1.023-.1.985.985,0,0,1,.83.185c-.637-.159-1.017.523-1.017.523a1.029,1.029,0,0,1,.926-.275,1.351,1.351,0,0,0-.956.7,1.939,1.939,0,0,1,.74-.478,1.693,1.693,0,0,0-.71,1.083,1.573,1.573,0,0,1,1.226-.954c.351.195.308.954.308.954a1.03,1.03,0,0,0,.006-.844,1.2,1.2,0,0,1,.43.988,1.018,1.018,0,0,0-.235-1.1,1.237,1.237,0,0,1,.6.45c-.1-.544-.351-.71-.54-.755A.864.864,0,0,1,51.232,283.823Z" transform="translate(-48.381 -282.389)"/></g></g><path class="k" d="M76.2,290.076a19.059,19.059,0,0,1-4.683-.745c-1.517-.444-2.467-1.529-3.9-1.936-2.893-.82-5.518-2.856-8.63-1.717-2.831,1.036-5.163,3.8-7.907,3.965-1.933.115-3.076,2.148-4.9,2.572-1.555.362-3-.328-4.5-.433-1.712-.12-3.333.318-5.032-.061a27.932,27.932,0,0,0-4.21-.67c-3.255-.207-6.194,1.719-9.559,1.218a108.149,108.149,0,0,0-17.343-.731c-1.5.022-3-.006-4.5,0-1.67.007-2.666-.88-4.214-1.218-2.98-.65-5.69-1.024-8.749-1.462-1.638-.234-2.671-1.859-4.254-1.949a8.821,8.821,0,0,0-4.1.9c-1.5.837-1.883,2-3.684,2.023-1.142.014-3.073-.582-3.89.731v4.369H76.109Z" transform="translate(27.898 -255.662)"/></g><g transform="translate(-8.455 4.495)"><g transform="translate(11.185 9.005)"><path class="h" d="M17.273,252.643c-3.472-13.809-2.547-24.5-1.16-31.032a37.231,37.231,0,0,1,3.926-11.072l1.116.688c-.092.149-9.118,15.211-2.61,41.1Z" transform="translate(-14.869 -210.539)"/></g><path class="h" d="M-24.452,173.135c.443.146.886.3,1.329.454l.9-1.123-.434,1.29q.532.192,1.056.389l.761-1.284-.352,1.439q.524.2,1.029.4l.536-1.16-.264,1.268c.321.127.634.253.937.377l.568-.832-.18.991.807.335.868-1.406-.28,1.654.777.334.124-1.777.55,2.073c.766.338,1.222.549,1.222.549-2.078-7.559-7.329-7.929-11.152-7.043.363-.185.75-.376,1.154-.571l-.238-.88.813.608q.344-.159.7-.32l-.386-.739.782.564q.252-.11.511-.22l-.432-1.329,1.025,1.082q.382-.156.775-.309l-.375-.773,1.042.52q.31-.115.626-.226l-.314-.744.921.534q.433-.146.875-.284l-.385-.545.918.383q.7-.207,1.419-.39s-7.95-2.313-11.535,1.831c.42-1.969-.016-4.5-3.381-6.841,0,0,.109.507.27,1.3l.5-.049-.4.507c.043.215.088.444.135.685l.543-.054-.445.56c.052.273.106.556.159.846l1.07.125-.977.384c.045.247.089.5.133.747l1.118.13-1.027.4c.055.326.108.651.158.972-1.28-2.9-4.067-5.57-10.137-2.8,0,0,.32.133.853.375l1.26-.349-.624.644c.243.115.508.243.793.384l1.229-.781-.649,1.073c.294.15.6.312.92.484l.784-.875-.385,1.093q.3.164.6.337l.925-.779-.393,1.089q.352.208.708.43l1.124-.557-.542.928c.4.263.806.537,1.2.821-3.934-1.316-10.771-2.208-13.811,5.816a14.086,14.086,0,0,1,2.954-1.557l.666-1.761.162,1.439c.539-.2,1.136-.4,1.795-.585v-1.629l.49,1.492q.552-.149,1.156-.286v-.974l.355.9q.355-.076.728-.147l.781-1.51.355,1.314q.706-.11,1.466-.2l.2-1.209.5,1.136c.839-.08,1.724-.136,2.658-.164-8.678,1.4-8.684,10.47-8.684,10.47l1.025-.976-.2-1.139.659.705,1.081-1.027-.188-1.059.613.657.776-.735-.127-.715.414.444.328-.311-.178-1.006.582.624.91-.859v-1.215l.458.783.868-.818-.161-.91.528.565.429-.4-.238-1.34.777.833c1.032-.97,1.856-1.741,2.363-2.215l.012.008c.024.52.068,1.395.138,2.552h1.317l-1.29.443c.022.353.046.73.073,1.127l1.02.22-.99.213q.036.532.078,1.107l1.589.144-1.526.7q.051.665.109,1.377l1.784.258-1.726.449q.056.664.119,1.362l1.466.16-1.394.631q.085.917.181,1.879l1.749-.9-1.669,1.691q.037.353.075.711l.832-.43-.759,1.1q.059.546.123,1.1s5.524-5.663,2.062-12.288c.347.478.687.975,1.016,1.478l.916-.742-.715,1.052q.35.545.681,1.091l1.276-.857-.983,1.345q.088.147.173.294l1.8-1.771-1.512,2.264q.236.412.457.81l1.055-.455-.925.693q.139.254.271.5l1.077-.656-.828,1.122c.175.331.338.645.486.935l.568-.649-.265,1.25c.448.9.707,1.465.707,1.465C-20.048,177.956-22.066,174.7-24.452,173.135Z" transform="translate(46.047 -161.409)"/><g transform="translate(7.536 14.847)"><g transform="translate(7.936 6.389)"><path class="h" d="M39.92,307.136a48.793,48.793,0,0,1-.823-22.018,26.41,26.41,0,0,1,2.786-7.856l.792.488c-.065.106-6.469,10.793-1.852,29.159Z" transform="translate(-38.214 -277.263)"/></g><path class="h" d="M10.316,250.725c.314.1.629.212.943.322l.642-.8-.308.915q.378.137.749.276l.54-.911-.25,1.021c.248.094.492.189.73.282l.38-.823-.187.9c.227.09.45.18.665.267l.4-.59-.128.7.573.238.616-1-.2,1.173.551.237.088-1.261.391,1.471c.543.24.867.39.867.39-1.474-5.363-5.2-5.626-7.912-5,.257-.131.532-.267.819-.4l-.169-.624.577.431c.163-.075.328-.151.5-.227l-.274-.524.554.4.363-.156-.307-.943.727.768q.271-.111.55-.219l-.266-.548.739.369q.22-.082.444-.161l-.223-.528.653.379q.307-.1.621-.2l-.273-.387.651.272q.5-.147,1.007-.277s-5.64-1.641-8.184,1.3c.3-1.4-.012-3.194-2.4-4.854,0,0,.077.36.191.924l.352-.035-.286.36q.045.229.1.486l.385-.038L6,244.5c.037.194.075.394.113.6l.759.089-.693.273c.032.175.063.352.094.53l.794.092-.729.287c.039.231.077.462.112.69-.908-2.056-2.886-3.952-7.193-1.984,0,0,.227.094.606.266l.894-.248-.443.457c.172.082.36.172.562.273l.872-.554-.46.761c.208.107.427.222.653.343l.556-.621-.273.775q.21.116.425.239l.656-.553-.279.773q.25.148.5.305l.8-.4-.385.658c.287.187.572.381.85.582-2.791-.934-7.642-1.566-9.8,4.126a10,10,0,0,1,2.1-1.105l.472-1.249.115,1.021c.382-.141.806-.281,1.273-.415v-1.156l.347,1.059q.392-.106.82-.2v-.691l.252.637c.168-.036.34-.071.516-.1l.554-1.071.252.932q.5-.078,1.04-.14l.141-.858.353.806c.6-.056,1.223-.1,1.886-.116-6.157.992-6.161,7.429-6.161,7.429l.727-.692-.143-.809.467.5.767-.729-.133-.751.435.466.551-.521L1.532,254l.294.315.233-.221-.127-.713.413.443.646-.609v-.862l.325.555.616-.58-.115-.646.374.4.3-.286-.169-.951.552.591c.732-.688,1.316-1.235,1.676-1.572l.008.006c.017.369.048.99.1,1.811H7.6l-.916.315c.016.25.033.518.052.8l.724.156-.7.151q.026.377.055.785l1.128.1-1.083.5q.036.472.077.977l1.266.184-1.225.319q.04.472.084.966l1.04.114-.989.447q.06.651.129,1.333l1.241-.642-1.184,1.2q.026.251.053.5l.59-.305-.539.78q.042.387.087.781s3.919-4.018,1.463-8.718c.246.34.487.692.721,1.048l.65-.526-.507.746q.248.386.483.774l.905-.608-.7.954.123.208,1.276-1.256-1.073,1.607q.167.292.324.575l.749-.323-.656.492q.1.18.192.354l.764-.466-.588.8c.124.235.24.457.345.664l.4-.46-.188.887c.318.637.5,1.039.5,1.039C13.441,254.145,12.009,251.835,10.316,250.725Z" transform="translate(5.006 -242.405)"/></g><g transform="translate(1.497 24.216)"><g transform="translate(7.936 6.389)"><path class="h" d="M7.033,358.252a48.793,48.793,0,0,1-.823-22.018,26.419,26.419,0,0,1,2.785-7.856l.792.488c-.065.106-6.469,10.793-1.852,29.159Z" transform="translate(-5.327 -328.379)"/></g><path class="h" d="M-22.572,301.841c.314.1.629.212.943.322l.642-.8-.308.915q.378.136.749.276l.54-.911-.25,1.021c.248.094.492.189.73.282l.38-.823-.187.9q.342.136.665.267l.4-.59-.128.7.573.238.616-1-.2,1.173.551.237.088-1.261.391,1.471c.543.24.867.39.867.39-1.474-5.363-5.2-5.626-7.912-5,.257-.131.532-.267.818-.4l-.169-.624.577.431q.244-.113.5-.227l-.274-.524.555.4.363-.156-.307-.943.727.768q.271-.111.55-.22l-.266-.548.739.369q.22-.082.444-.161l-.223-.528.653.379q.307-.1.621-.2l-.273-.387.651.272q.5-.147,1.007-.277s-5.64-1.641-8.184,1.3c.3-1.4-.011-3.194-2.4-4.854,0,0,.077.359.191.923l.352-.035-.286.36c.03.153.062.315.1.486l.385-.038-.315.4c.037.194.075.394.113.6l.759.088-.693.273c.032.175.063.352.094.53l.794.092-.728.287c.039.231.077.462.112.69-.908-2.056-2.886-3.952-7.192-1.984,0,0,.227.094.606.266l.894-.248-.443.457c.172.082.36.172.562.273l.872-.554-.46.761c.208.107.427.222.653.343l.556-.621-.273.775q.21.116.425.239l.656-.552-.279.772q.25.148.5.305l.8-.4-.385.658c.287.187.572.381.85.582-2.791-.934-7.642-1.566-9.8,4.126a10,10,0,0,1,2.1-1.105l.472-1.249.115,1.021c.382-.14.806-.281,1.273-.415v-1.156l.347,1.059q.392-.106.82-.2v-.691l.252.637q.252-.054.516-.1l.554-1.071.251.932q.5-.078,1.04-.14l.141-.858.353.806c.6-.056,1.223-.1,1.886-.116-6.157.992-6.161,7.429-6.161,7.429l.727-.692-.143-.809.467.5.767-.728-.133-.751.435.466.551-.521-.09-.508.294.315.233-.221-.127-.713.413.443.646-.609v-.862l.325.555.616-.58-.115-.646.374.4.3-.286-.169-.951.552.591c.732-.688,1.316-1.235,1.676-1.572l.008.006c.017.369.048.99.1,1.811h.935l-.916.315c.016.25.033.518.052.8l.724.156-.7.151q.026.378.055.785l1.128.1-1.083.5q.036.472.077.977l1.266.183-1.225.319q.04.471.084.966l1.04.114-.989.447q.06.651.129,1.333l1.241-.642-1.184,1.2q.026.251.053.5l.59-.305-.539.78q.042.387.087.781s3.919-4.018,1.463-8.718c.246.34.487.692.721,1.048l.65-.526-.507.746q.248.387.483.774l.905-.608-.7.954.123.208,1.276-1.256-1.073,1.607q.167.292.324.575l.749-.323-.656.491q.1.18.192.354l.764-.465-.588.8c.124.235.24.457.345.664l.4-.46-.188.887c.318.637.5,1.039.5,1.039C-19.447,305.262-20.879,302.951-22.572,301.841Z" transform="translate(37.894 -293.522)"/></g><g transform="translate(85.861 22.027)"><g transform="translate(9.152 5.852)"><path class="h" d="M473.944,340.86a44.689,44.689,0,0,0,.754-20.165,24.2,24.2,0,0,0-2.551-7.195l-.725.447c.06.1,5.925,9.885,1.7,26.706Z" transform="translate(-471.422 -313.5)"/></g><path class="h" d="M428.049,289.2c-.288.095-.576.194-.863.3l-.588-.73.282.838q-.346.125-.686.253l-.494-.834.229.935c-.227.086-.45.173-.669.259l-.348-.754.171.824-.609.245-.369-.541.117.644-.525.218-.564-.914.182,1.075-.5.217-.08-1.155-.358,1.347c-.5.219-.794.357-.794.357,1.35-4.912,4.762-5.152,7.247-4.577-.236-.12-.487-.245-.75-.37l.155-.572-.528.395c-.149-.069-.3-.139-.456-.208l.251-.48-.508.366-.332-.143.281-.864-.666.7q-.249-.1-.5-.2l.244-.5-.677.338q-.2-.075-.407-.147l.2-.483-.6.347q-.281-.1-.569-.185l.25-.354-.6.249q-.455-.135-.922-.254s5.166-1.5,7.5,1.19c-.273-1.279.01-2.925,2.2-4.446,0,0-.071.329-.175.846l-.322-.032.262.33c-.028.14-.057.289-.088.445l-.353-.035.289.364c-.033.177-.069.361-.1.55l-.7.081.635.25c-.029.16-.058.322-.086.485l-.727.085.667.263c-.036.212-.07.423-.1.631.832-1.883,2.643-3.619,6.587-1.817,0,0-.207.086-.554.244l-.819-.227.405.419c-.158.075-.33.158-.515.25l-.8-.508.421.7c-.191.1-.391.2-.6.315l-.51-.568.25.71q-.193.106-.39.219l-.6-.506.256.708q-.229.135-.46.279l-.73-.362.352.6c-.262.171-.523.349-.779.533,2.556-.855,7-1.435,8.975,3.779a9.156,9.156,0,0,0-1.92-1.012l-.433-1.144-.105.935c-.35-.129-.738-.257-1.166-.38v-1.058l-.318.97q-.359-.1-.751-.186V288.1l-.23.583q-.23-.05-.473-.1l-.507-.981-.23.853q-.459-.072-.953-.128l-.129-.786-.323.738c-.545-.051-1.12-.088-1.728-.106,5.639.908,5.643,6.8,5.643,6.8l-.666-.634.131-.741-.428.458-.7-.667.122-.688-.4.427-.5-.478.082-.465-.269.288-.214-.2.116-.653-.378.405-.591-.558v-.789l-.3.508-.564-.531.1-.591-.343.367-.279-.262.155-.871-.505.541c-.671-.63-1.206-1.131-1.535-1.44l-.008.005c-.016.338-.044.906-.089,1.659h-.856l.839.288c-.014.229-.03.475-.047.732l-.663.143.644.138c-.016.231-.033.47-.051.719l-1.033.094.992.457q-.033.432-.07.894l-1.16.168,1.122.292q-.037.432-.077.885l-.953.1.906.41q-.055.6-.117,1.221l-1.136-.588,1.084,1.1q-.024.23-.048.462l-.541-.279.494.715q-.039.355-.08.716s-3.589-3.68-1.34-7.985c-.225.311-.446.633-.66.96l-.6-.482.465.684q-.227.354-.443.709l-.829-.557.639.874-.113.191-1.168-1.151.982,1.472c-.1.178-.2.354-.3.526l-.686-.3.6.45-.176.324-.7-.426.538.729c-.114.215-.22.419-.316.608l-.369-.422.172.812c-.291.583-.46.952-.46.952C425.187,292.328,426.5,290.212,428.049,289.2Z" transform="translate(-421.578 -281.576)"/></g><g transform="translate(73.567 27.389)"><g transform="translate(9.152 5.852)"><path class="h" d="M406.988,370.116a44.688,44.688,0,0,0,.754-20.165,24.194,24.194,0,0,0-2.551-7.195l-.725.447c.06.1,5.925,9.885,1.7,26.706Z" transform="translate(-404.466 -342.756)"/></g><path class="h" d="M361.093,318.451c-.288.095-.576.194-.863.3l-.588-.73.282.838q-.346.125-.686.252l-.494-.834.229.935c-.227.086-.45.173-.669.259l-.348-.754.171.824-.609.245-.369-.541.117.644-.525.218-.564-.914.182,1.075-.5.217-.081-1.155-.357,1.347c-.5.219-.794.357-.794.357,1.35-4.912,4.762-5.152,7.247-4.577-.236-.12-.487-.244-.75-.37l.155-.572-.528.395c-.149-.069-.3-.139-.456-.208l.251-.48-.508.366-.332-.143.281-.864-.666.7q-.249-.1-.5-.2l.244-.5-.677.338q-.2-.075-.407-.147l.2-.483-.6.347q-.281-.1-.569-.185l.25-.354-.6.249q-.455-.135-.922-.254s5.166-1.5,7.5,1.19c-.273-1.279.01-2.925,2.2-4.446,0,0-.071.329-.175.846l-.322-.032.262.33c-.028.14-.057.289-.088.445l-.353-.035.289.364c-.033.177-.068.361-.1.55l-.7.081.635.25c-.029.16-.058.322-.086.485l-.727.085.667.263c-.036.212-.07.423-.1.631.832-1.883,2.643-3.619,6.587-1.817,0,0-.207.086-.554.244l-.819-.227.405.419c-.158.075-.33.158-.515.25l-.8-.508.421.7c-.191.1-.391.2-.6.315l-.51-.568.25.71q-.193.107-.39.219l-.6-.506.256.708q-.229.136-.46.28l-.73-.362.352.6c-.262.171-.523.349-.779.533,2.556-.855,7-1.435,8.975,3.779a9.157,9.157,0,0,0-1.92-1.012l-.433-1.144-.105.935c-.35-.129-.738-.257-1.166-.38V317.2l-.318.97q-.359-.1-.751-.186v-.633l-.23.583c-.154-.033-.312-.065-.473-.1l-.507-.981-.23.853q-.459-.072-.953-.128l-.129-.786-.324.738c-.545-.051-1.12-.088-1.728-.106,5.639.908,5.643,6.8,5.643,6.8l-.666-.634.131-.741-.428.458-.7-.667.122-.688-.4.427-.5-.478.082-.465-.269.288-.214-.2.116-.653-.378.405-.591-.558v-.789l-.3.508-.564-.531.1-.591-.343.367-.279-.262.155-.871-.505.541c-.671-.63-1.206-1.131-1.535-1.439l-.008.005c-.016.338-.044.906-.089,1.659h-.856l.839.288c-.014.229-.03.475-.047.732l-.663.143.644.138q-.023.346-.051.719l-1.033.094.992.457q-.033.432-.07.895l-1.16.168,1.122.292c-.025.288-.05.583-.077.885l-.953.1.906.41q-.055.6-.117,1.221l-1.136-.588,1.084,1.1q-.024.23-.048.462l-.541-.279.494.715c-.026.237-.052.475-.08.716,0,0-3.589-3.68-1.34-7.985-.225.311-.446.634-.66.96l-.6-.482.465.684q-.227.354-.443.709l-.829-.557.639.874-.112.191-1.168-1.151.983,1.472c-.1.178-.2.354-.3.526l-.686-.3.6.45-.176.324-.7-.426.538.729c-.114.215-.22.419-.316.608l-.369-.422.172.812c-.291.583-.459.952-.459.952C358.231,321.584,359.543,319.468,361.093,318.451Z" transform="translate(-354.622 -310.832)"/></g><g transform="translate(75.656 4.319)"><g transform="translate(13.493 8.628)"><path class="h" d="M443.208,272.377c3.327-13.231,2.441-23.471,1.112-29.731a35.67,35.67,0,0,0-3.761-10.608l-1.069.659c.088.143,8.736,14.574,2.5,39.374Z" transform="translate(-439.49 -232.038)"/></g><path class="h" d="M375.543,196.2q-.636.21-1.273.435l-.866-1.076.416,1.236q-.51.184-1.012.372l-.728-1.23.337,1.378q-.5.191-.986.381l-.513-1.112.253,1.215q-.461.183-.9.361l-.545-.8.172.949c-.267.11-.525.217-.773.321l-.832-1.347.268,1.584-.744.32-.119-1.7-.527,1.986C366.439,199.8,366,200,366,200c1.99-7.242,7.022-7.6,10.684-6.748-.348-.177-.718-.361-1.105-.546l.228-.843-.778.582c-.22-.1-.443-.2-.673-.307l.37-.708-.749.54q-.241-.1-.49-.211l.414-1.273-.982,1.037q-.367-.15-.743-.3l.36-.74-1,.5q-.3-.111-.6-.217l.3-.713-.882.512q-.415-.14-.838-.272l.369-.522-.879.367q-.671-.2-1.36-.374s7.617-2.216,11.052,1.755c-.4-1.886.015-4.313,3.239-6.554,0,0-.1.486-.259,1.247l-.475-.047.386.486c-.041.206-.085.426-.129.656l-.521-.051.426.536c-.049.261-.1.532-.152.811l-1.025.12.936.368c-.043.236-.085.475-.127.716l-1.072.125.984.387c-.053.312-.1.624-.151.931,1.226-2.776,3.9-5.336,9.712-2.679,0,0-.306.127-.817.359l-1.207-.335.6.618c-.232.111-.487.233-.759.368l-1.178-.748.621,1.028c-.281.144-.577.3-.882.464l-.751-.838.369,1.047q-.283.157-.574.323l-.886-.746.376,1.043q-.337.2-.678.412l-1.077-.534.519.889c-.387.252-.772.514-1.148.786,3.769-1.261,10.319-2.115,13.232,5.572a13.511,13.511,0,0,0-2.831-1.492l-.638-1.687-.155,1.379c-.516-.19-1.089-.379-1.719-.56v-1.56l-.469,1.43q-.529-.142-1.108-.274v-.933l-.34.86q-.34-.074-.7-.141l-.748-1.447-.34,1.258q-.676-.106-1.4-.189l-.19-1.159-.477,1.088c-.8-.076-1.652-.13-2.547-.156,8.314,1.339,8.32,10.031,8.32,10.031q-.492-.469-.982-.935l.194-1.092-.631.675-1.036-.983.181-1.015-.587.629-.744-.7.121-.686-.4.425-.315-.3.171-.963-.558.6-.872-.822V198.4l-.439.75-.831-.783.154-.872-.505.541-.411-.386.228-1.284-.745.8c-.989-.929-1.778-1.668-2.264-2.122l-.011.008c-.023.5-.065,1.336-.132,2.445h-1.262l1.237.425c-.022.338-.045.7-.07,1.08l-.977.211.949.2q-.034.51-.075,1.06l-1.523.139,1.462.673q-.049.637-.1,1.319l-1.71.248,1.654.43q-.055.637-.114,1.3l-1.405.153,1.336.6q-.081.879-.174,1.8l-1.675-.867,1.6,1.62c-.023.225-.047.453-.071.681l-.8-.412.728,1.054q-.057.523-.118,1.055s-5.292-5.425-1.976-11.773c-.333.458-.658.934-.973,1.416l-.878-.71.686,1.008q-.335.522-.653,1.045l-1.222-.821.942,1.289q-.084.14-.166.281l-1.722-1.7,1.449,2.17q-.226.394-.437.776l-1.011-.436.886.664q-.134.243-.26.478L373,203.335l.794,1.075c-.168.317-.324.617-.465.9l-.545-.622.254,1.2c-.43.86-.678,1.4-.678,1.4C371.323,200.822,373.257,197.7,375.543,196.2Z" transform="translate(-366.002 -184.97)"/></g></g></g></g></g></g><path class="o" d="M260.146,252.475h-3.268a.738.738,0,0,1,0-1.475h3.268a.738.738,0,0,1,0,1.475Z" transform="translate(-167.137 -170.691)"/><path class="o" d="M239.746,252.475h-3.689a.738.738,0,1,1,0-1.475h3.689a.738.738,0,1,1,0,1.475Z" transform="translate(-153.997 -170.691)"/><path class="o" d="M120.878,252.475H59.448a.738.738,0,0,1,0-1.475h61.431a.738.738,0,0,1,0,1.475Z" transform="translate(-42.532 -170.691)"/><path class="o" d="M26.141,252.475H15.588a.738.738,0,0,1,0-1.475H26.141a.738.738,0,0,1,0,1.475Z" transform="translate(-14.85 -170.691)"/><path class="b" d="M154.152,55.2a4.949,4.949,0,0,0-2.992,4.006H189.6c1.815,0,3.626,0,5.466-.081-.2-.07-9.878-1.343-12.283-1.638-1.051-.129-2.1-.343-3.154-.369a3.729,3.729,0,0,1-2.888-1.387,5.651,5.651,0,0,0-2.213-.69.649.649,0,0,1-.623-.457c-.59-1.509-1.951-1.97-3.32-2.427-.236-.081-.483-.129-.738-.192l-.328-.033c-.586,0-1.254.232-1.542-.568h0L167.641,51a7.672,7.672,0,0,0-6.1-2.147,8.089,8.089,0,0,0-4.7,2.335,9.075,9.075,0,0,0-1.675,3.423C155.1,55.2,154.59,55.153,154.152,55.2Z" transform="translate(-100.88 -43.084)"/><path class="p" d="M51.027,84.812a3.6,3.6,0,0,1,2.184,2.91H25.177c-1.324,0-2.645,0-3.987-.059.148-.052,7.208-.977,8.96-1.2.767-.1,1.531-.251,2.3-.273a2.719,2.719,0,0,0,2.106-1.011,4.124,4.124,0,0,1,1.608-.505.476.476,0,0,0,.454-.332c.432-1.107,1.424-1.435,2.416-1.771.173-.059.369-.1.527-.14l.24-.022c.428,0,.915.17,1.125-.413h0l.247-.258a5.6,5.6,0,0,1,4.452-1.568,5.961,5.961,0,0,1,3.427,1.7,6.61,6.61,0,0,1,1.206,2.5C50.341,84.808,50.71,84.779,51.027,84.812Z" transform="translate(-18.851 -62.861)"/><circle class="q" cx="1.188" cy="1.188" r="1.188" transform="translate(2.154 54.662)"/><circle class="q" cx="1.645" cy="1.645" r="1.645" transform="translate(86.849 70.929)"/><circle class="q" cx="3.382" cy="3.382" r="3.382" transform="translate(18.738 9.649)"/><circle class="q" cx="0.915" cy="0.915" r="0.915" transform="translate(68.631 8.174)"/><path class="q" d="M253.929,167.746a1.689,1.689,0,0,1-1.582,2.811,1.634,1.634,0,0,1-1.228-1.228A1.688,1.688,0,0,1,253.929,167.746Z" transform="translate(-163.941 -117.868)"/><circle class="q" cx="1.099" cy="1.099" r="1.099" transform="translate(73.013 30.8)"/><circle class="r" cx="1.007" cy="1.007" r="1.007" transform="translate(7.222 31.394)"/><circle class="q" cx="1.007" cy="1.007" r="1.007" transform="translate(13.552 67.967)"/><g transform="translate(11.588 22.57)"><path class="s" d="M63.985,18.47,37.011.167a.963.963,0,0,0-1.082,0L8.955,18.47a.963.963,0,0,0-.422.8V56.838A.963.963,0,0,0,9.5,57.8H63.444a.963.963,0,0,0,.963-.963V19.267A.962.962,0,0,0,63.985,18.47Z" transform="translate(0 -0.001)"/><path class="t" d="M11.423,56.837V19.267a.963.963,0,0,1,.422-.8L37.915.779l-.9-.614a.963.963,0,0,0-1.082,0L8.955,18.469a.963.963,0,0,0-.422.8V56.837A.963.963,0,0,0,9.5,57.8h2.89A.963.963,0,0,1,11.423,56.837Z" transform="translate(0 0)"/><path class="u" d="M129.511,204.8H94.83a.963.963,0,0,0-.963.963v32.754a.963.963,0,0,0,.963.963h34.681a.963.963,0,0,0,.963-.963V205.763A.963.963,0,0,0,129.511,204.8Z" transform="translate(-75.7 -181.68)"/><path class="v" d="M94.83,204.8a.963.963,0,0,0-.963.963v32.754a.963.963,0,0,0,.963.963h1.927V204.8Z" transform="translate(-75.7 -181.68)"/><path class="w" d="M116.3,170.667H77.764a.963.963,0,0,0-.963.963v3.853a.963.963,0,0,0,.963.963H116.3a.963.963,0,0,0,.963-.963V171.63A.963.963,0,0,0,116.3,170.667Z" transform="translate(-60.561 -151.4)"/><path class="x" d="M116.3,197.23H77.764a.963.963,0,0,1-.963-.963v1.927a.963.963,0,0,0,.963.963H116.3a.963.963,0,0,0,.963-.963v-1.927A.963.963,0,0,1,116.3,197.23Z" transform="translate(-60.561 -174.11)"/><g transform="translate(31.654 6.743)"><path class="t" d="M222,61.661H214.3a.963.963,0,1,1,0-1.927H222a.963.963,0,1,1,0,1.927Z" transform="translate(-213.334 -59.734)"/><path class="t" d="M222,95.795H214.3a.963.963,0,1,1,0-1.927H222a.963.963,0,1,1,0,1.927Z" transform="translate(-213.334 -90.015)"/><path class="t" d="M222,129.928H214.3a.963.963,0,1,1,0-1.927H222a.963.963,0,1,1,0,1.927Z" transform="translate(-213.334 -120.294)"/></g><g transform="translate(18.167 30.827)"><path class="y" d="M106.391,273.067H94.83a.963.963,0,0,0-.963.963v11.56a.963.963,0,0,0,.963.963l5.78.963,5.78-.963a.963.963,0,0,0,.963-.963V274.03A.963.963,0,0,0,106.391,273.067Z" transform="translate(-93.867 -273.067)"/><path class="y" d="M106.391,392.534H94.83a.963.963,0,0,0-.963.963v11.56a.963.963,0,0,0,.963.963h11.56a.963.963,0,0,0,.963-.963V393.5A.963.963,0,0,0,106.391,392.534Z" transform="translate(-93.867 -379.047)"/></g><path class="z" d="M95.794,405.058V393.5a.963.963,0,0,1,.963-.963H94.83a.963.963,0,0,0-.963.963v11.56a.963.963,0,0,0,.963.963h1.927A.963.963,0,0,1,95.794,405.058Z" transform="translate(-75.7 -348.22)"/><path class="aa" d="M140.387,392.534h-3.853v4.817a.963.963,0,0,0,.963.963h1.927a.963.963,0,0,0,.963-.963Z" transform="translate(-113.551 -348.22)"/><path class="u" d="M132.818,479.795h-3.853a.963.963,0,1,1,0-1.927h3.853a.963.963,0,0,1,0,1.927Z" transform="translate(-105.981 -423.921)"/><path class="z" d="M95.794,285.591V274.03a.963.963,0,0,1,.963-.963H94.83a.963.963,0,0,0-.963.963v11.56a.963.963,0,0,0,.963.963h1.927A.963.963,0,0,1,95.794,285.591Z" transform="translate(-75.7 -242.24)"/><path class="aa" d="M140.387,273.067h-3.853v4.817a.963.963,0,0,0,.963.963h1.927a.963.963,0,0,0,.963-.963Z" transform="translate(-113.551 -242.24)"/><path class="ab" d="M132.818,360.328h-3.853a.963.963,0,1,1,0-1.927h3.853a.963.963,0,1,1,0,1.927Z" transform="translate(-105.981 -317.941)"/><path class="y" d="M225.858,392.534H214.3a.963.963,0,0,0-.963.963v11.56a.963.963,0,0,0,.963.963h11.56a.963.963,0,0,0,.963-.963V393.5A.963.963,0,0,0,225.858,392.534Z" transform="translate(-181.68 -348.22)"/><path class="z" d="M215.26,405.058V393.5a.963.963,0,0,1,.963-.963H214.3a.963.963,0,0,0-.963.963v11.56a.963.963,0,0,0,.963.963h1.927A.963.963,0,0,1,215.26,405.058Z" transform="translate(-181.68 -348.22)"/><path class="aa" d="M259.853,392.534H256v4.817a.963.963,0,0,0,.963.963h1.927a.963.963,0,0,0,.963-.963v-4.817Z" transform="translate(-219.53 -348.22)"/><path class="u" d="M252.284,479.795H248.43a.963.963,0,0,1,0-1.927h3.853a.963.963,0,0,1,0,1.927Z" transform="translate(-211.96 -423.921)"/></g></g></g></svg>