<svg xmlns="http://www.w3.org/2000/svg" viewBox="0 0 160 160"><defs><style>.a{fill:#31db93;}.b{fill:#efefef;}.c{fill:#bcbcbc;}.d{fill:#7c532a;}.e{fill:#6e4013;}.f{fill:#8b6642;}.g{fill:#8eb845;}.h{fill:#b4d46a;}.i{fill:none;}</style></defs><g transform="translate(-100 -117)"><g transform="translate(109 125.717)"><path class="a" d="M12.747,8H140.912a4.747,4.747,0,0,1,4.747,4.747v87.817H8V12.747A4.747,4.747,0,0,1,12.747,8Zm0,0" transform="translate(-5.627 -5.627)"/><path class="b" d="M8,320H145.659v18.987a4.747,4.747,0,0,1-4.747,4.747H12.747A4.747,4.747,0,0,1,8,338.987Zm0,0" transform="translate(-5.627 -225.063)"/><path class="c" d="M184,400h33.228v21.361H184Zm0,0" transform="translate(-129.411 -281.328)"/><path d="M233.494,348.747A4.747,4.747,0,1,1,228.747,344,4.747,4.747,0,0,1,233.494,348.747Zm0,0" transform="translate(-157.544 -241.942)"/><path d="M174.589,424h-4.747v11.867H141.361V424h-4.747v11.867H120v4.747h71.2v-4.747H174.589Zm0,0" transform="translate(-84.399 -298.208)"/><path d="M135.286,0H7.12A7.128,7.128,0,0,0,0,7.12v106.8a7.128,7.128,0,0,0,7.12,7.12H135.286a7.128,7.128,0,0,0,7.12-7.12V7.12A7.128,7.128,0,0,0,135.286,0Zm2.373,113.925a2.375,2.375,0,0,1-2.373,2.373H7.12a2.375,2.375,0,0,1-2.373-2.373V97.311H137.659ZM4.747,92.564V7.12A2.375,2.375,0,0,1,7.12,4.747H135.286a2.375,2.375,0,0,1,2.373,2.373V92.564Zm0,0"/></g><g transform="translate(116.822 140.29)"><path class="d" d="M204.176,420.013h9.472l2.842,11.658H201.334Z" transform="translate(-145.992 -361.791)"/><path class="e" d="M204.176,420.013l-2.842,11.658H203.7l2.842-11.658Z" transform="translate(-145.992 -361.791)"/><path class="f" d="M207.593,352.731h8.525l2.842,11.075H204.751Z" transform="translate(-148.935 -303.835)"/><g transform="translate(55.816 41.318)"><path class="d" d="M207.593,352.731l-2.842,11.075h2.368l2.842-11.075Z" transform="translate(-204.751 -345.153)"/><path class="d" d="M211.009,298.064h7.578l2.842,9.91H208.167Z" transform="translate(-207.693 -298.064)"/></g><path class="e" d="M211.009,298.064l-2.842,9.91h2.368l2.842-9.91Z" transform="translate(-151.877 -256.746)"/><path class="f" d="M214.426,239.192h6.631L223.9,249.1H211.584Z" transform="translate(-154.821 -206.035)"/><g transform="translate(56.763 25.579)"><path class="d" d="M214.426,239.192l-2.842,9.909h2.368l2.842-9.909Z" transform="translate(-211.584 -231.614)"/><path class="d" d="M216.32,184.526h2.842l4.736,9.91H211.584Z" transform="translate(-211.584 -184.526)"/></g><path class="e" d="M216.32,184.526l-4.736,9.91h2.368l4.736-9.91Z" transform="translate(-154.821 -158.947)"/><path class="f" d="M222.68,134.064h1.895l4.263,9.91h-10.42Z" transform="translate(-160.707 -115.48)"/><path class="d" d="M224.574,134.064H222.68l-4.263,9.91h2.368l4.026-9.359Z" transform="translate(-160.707 -115.48)"/><path class="g" d="M273.434,105.334a18.058,18.058,0,0,1,7,16.165A15.739,15.739,0,1,0,256,102.807,18.058,18.058,0,0,1,273.434,105.334Z" transform="translate(-193.08 -80.764)"/><g transform="translate(32.934 1.097)"><path class="h" d="M52.235,105.334a18.058,18.058,0,0,0-7,16.165,15.739,15.739,0,1,1,24.436-18.692A18.058,18.058,0,0,0,52.235,105.334Z" transform="translate(-39.683 -81.861)"/><path class="h" d="M260.8,17.254a18.622,18.622,0,0,1,16.338,2.682,15.073,15.073,0,0,0-.372-1.475,14.913,14.913,0,1,0-28.518,8.732,15.088,15.088,0,0,0,.518,1.43A18.622,18.622,0,0,1,260.8,17.254Z" transform="translate(-218.771 -7.911)"/></g><path class="g" d="M67.592,17.254a18.622,18.622,0,0,0-16.338,2.682,15.08,15.08,0,0,1,.372-1.475,14.913,14.913,0,1,1,28.519,8.732,15.09,15.09,0,0,1-.518,1.43A18.622,18.622,0,0,0,67.592,17.254Z" transform="translate(-16.716 -6.814)"/><path d="M87.393,15.368a16.681,16.681,0,0,0-6.73-3.1,1.093,1.093,0,1,0-.453,2.139,14.514,14.514,0,0,1,5.855,2.7A14.662,14.662,0,0,1,88.8,37.635q-.137.179-.28.354A19.175,19.175,0,0,0,65.265,20.2q.132-.183.269-.363a14.577,14.577,0,0,1,11.394-5.746,1.093,1.093,0,1,0-.037-2.186,16.987,16.987,0,0,0-4.157.588A17.51,17.51,0,0,1,90.665,14.01a1.115,1.115,0,0,0,1.534-.266,1.373,1.373,0,0,0,.111-1.139q-.142-.645-.335-1.278a16,16,0,0,0-29.055-3.5,16.006,16.006,0,0,0-29.056,3.5q-.182.592-.317,1.2a1.608,1.608,0,0,0-.016,1.024,1.1,1.1,0,0,0,1.643.462,17.622,17.622,0,0,1,8.611-3.224,1.093,1.093,0,1,0-.2-2.176A19.778,19.778,0,0,0,36.408,10.7a13.821,13.821,0,0,1,26.308,8.048A19.58,19.58,0,0,0,51.2,9.395a19.874,19.874,0,0,0-3.91-.78,1.093,1.093,0,1,0-.209,2.176A17.762,17.762,0,0,1,53.2,12.533,16.831,16.831,0,0,0,37.776,41.567a1.1,1.1,0,0,0,1.8-.941A16.984,16.984,0,0,1,59.241,22.17l-2.535,5.892a1.1,1.1,0,0,0,1,1.525h.662l-2.6,5.431a1.1,1.1,0,0,0,.986,1.564h.723l-1.773,6.184a1.1,1.1,0,0,0,1.051,1.394h.416l-1.94,6.767A1.1,1.1,0,0,0,56.29,52.32h.361L54.757,59.7a1.1,1.1,0,0,0,1.059,1.365h.55l-2.086,8.558a1.1,1.1,0,0,0,1.062,1.352H70.5a1.1,1.1,0,0,0,1.062-1.352l-2.086-8.558h.55A1.1,1.1,0,0,0,71.084,59.7L69.19,52.32h.361A1.1,1.1,0,0,0,70.6,50.926l-1.94-6.767h.416a1.1,1.1,0,0,0,1.051-1.394l-1.773-6.184h.723a1.1,1.1,0,0,0,.986-1.564l-2.6-5.431h.662a1.1,1.1,0,0,0,1-1.525L66.6,22.17A16.985,16.985,0,0,1,86.269,40.626a1.1,1.1,0,0,0,1.8.941,16.84,16.84,0,0,0-.672-26.2ZM72.625,2.8a13.823,13.823,0,0,1,16.8,7.9,19.75,19.75,0,0,0-24.25,5.031,15.849,15.849,0,0,0-1.073-5.47A13.835,13.835,0,0,1,72.625,2.8Zm-27.8,20.9a19.032,19.032,0,0,0-7.5,14.287q-.142-.175-.28-.354a14.646,14.646,0,0,1,23.265-17.8q.137.179.269.363A19.032,19.032,0,0,0,44.822,23.7ZM69.107,68.787H56.734l1.883-7.724h8.608Zm-.491-9.91H57.225l1.683-6.558h8.026ZM68.1,50.134H57.74l1.713-5.975h6.934Zm-.474-8.161H58.214l1.546-5.392h6.321ZM67.343,34.4H58.5l2.3-4.809h4.25ZM66.47,27.4h-7.1L61.4,22.678c.379.115.755.243,1.129.386.018.007.036.01.054.016s.063.021.1.028.049.008.074.012.057.01.086.012.052,0,.079,0,.055,0,.082,0,.054-.007.082-.011.052-.006.077-.012.061-.017.091-.027.039-.01.058-.017c.374-.143.751-.27,1.129-.386Z" transform="translate(0 0)"/></g><rect class="i" width="160" height="160" transform="translate(100 117)"/></g></svg>