<svg xmlns="http://www.w3.org/2000/svg" xmlns:xlink="http://www.w3.org/1999/xlink" viewBox="0 0 230 138.736"><defs><style>.a{fill:none;}.b{fill:url(#a);}.c{fill:#f0efef;}.d{clip-path:url(#b);}.e{fill:#bbbebf;}.f{opacity:0.101;}.g{clip-path:url(#c);}.h,.j{fill:#fff;}.h{opacity:0.2;}.i{fill:url(#d);}.j{opacity:0.1;}.k{fill:#61f9b4;}.l{fill:#fbb32b;}.m{fill:#2ace85;}.n{fill:#381c10;}.o{fill:#36b149;}.p{fill:#1e9447;}.q{fill:#e0e0e0;}.r{fill:#353535;}.s{fill:#262626;}.t{fill:#4b8865;}.u{fill:#9fa3a7;}</style><linearGradient id="a" x1="-6.681" y1="2.725" x2="-6.681" y2="1.725" gradientUnits="objectBoundingBox"><stop offset="0" stop-color="#e6e7e7"/><stop offset="1" stop-color="#f2f2f2" stop-opacity="0"/></linearGradient><clipPath id="b"><path class="a" d="M3.083,78.867c4.986,44.873,71.448,65.814,114.876,65.814,52.452,0,114.427-30.813,114.876-65.814.249-20.891-23.384-45.023-41.383-58.335C170.51,5.075,164.527,5.075,128.629,6.571c-34.8,1.446-38.691,33.7-60.828,35.4C39.031,44.165-.657,45.312,3.083,78.867Z" transform="translate(-2.837 -5.945)"/></clipPath><clipPath id="c"><rect class="a" width="230" height="166.75"/></clipPath><linearGradient id="d" x1="0.5" y1="1" x2="0.5" gradientUnits="objectBoundingBox"><stop offset="0" stop-color="#6affba"/><stop offset="1" stop-color="#2ed991"/></linearGradient></defs><path class="b" d="M3.083,78.867c4.986,44.873,71.448,65.814,114.876,65.814,52.452,0,114.427-30.813,114.876-65.814.249-20.891-23.384-45.023-41.383-58.335C170.51,5.075,164.527,5.075,128.629,6.571c-34.8,1.446-38.691,33.7-60.828,35.4C39.031,44.165-.657,45.312,3.083,78.867Z" transform="translate(-2.837 -5.945)"/><path class="c" d="M233.853,18.014a7.572,7.572,0,0,1,4.587,6.133H179.506c-2.792,0-5.534,0-8.376-.1.3-.1,15.157-2.044,18.847-2.493,1.6-.2,3.191-.548,4.836-.6a5.7,5.7,0,0,0,4.437-2.144,10.032,10.032,0,0,1,3.341-1.047,1,1,0,0,0,.947-.7c.9-2.294,2.992-2.992,5.086-3.739l1.1-.3.5-.05c.9,0,1.945.349,2.393-.9h0l.5-.548a11.822,11.822,0,0,1,9.374-3.291,12.676,12.676,0,0,1,7.18,3.59,12.828,12.828,0,0,1,2.543,5.235C232.392,18.014,233.155,17.915,233.853,18.014Z" transform="translate(-64.22 10.932)"/><path class="c" d="M108.64,57.751a4.742,4.742,0,0,1,2.892,3.839h-36.8c-1.745,0-3.49,0-5.235-.1.2-.05,9.473-1.3,11.767-1.6a29.84,29.84,0,0,1,3.041-.349A3.6,3.6,0,0,0,87.1,58.2a5.385,5.385,0,0,1,2.094-.648.643.643,0,0,0,.6-.449c.548-1.446,1.895-1.895,3.191-2.343.2-.1.449-.1.7-.2l.3-.05c.548,0,1.2.2,1.5-.548h0l.349-.349a7.424,7.424,0,0,1,5.834-2.044,7.735,7.735,0,0,1,4.487,2.244,9.064,9.064,0,0,1,1.546,3.291C107.757,57.751,108.206,57.7,108.64,57.751Z" transform="translate(-13.262 -10.805)"/><g class="d"><path class="e" d="M246.753,259.65c-.748,17.75-65.665,32.608-119.912,32.409-58.051-.2-120.211-17.7-119.912-32.409.2-9.324,25.428-16,38.392-19.445,30.215-8.027,40.436-1.2,82.268-3.989,39.189-2.643,43.727-9.573,66.812-5.485C216.787,234.72,247.251,247.335,246.753,259.65Z" transform="translate(-4.888 -118.022)"/><g class="f" transform="translate(7 -109.305)"><g transform="translate(0 99)"><g class="g"><g transform="translate(-12.904 -6.178)"><path class="h" d="M193.022,202.4c2.1-2.1,6.345-2.586,9.02-3.326,1.749-.483,4.316-.386,5.812-1.363s1.461-2.7,2.737-3.643c1.377-1.022,3.387-.417,4.74-1.456,1.21-.928,1.219-2.76,2.325-3.847,2.587-2.542,6.081-2.136,9.06-3.2.974-.349,3.507-1.912,4.778-2.566,2.944-1.515,1.664-.832,3.121-3.372,1.573-2.741,2.2-6.008,5.113-7.282,3.112-1.363,7.528.986,6.663-5.1,2.094-.993,5.806.583,6.271-2.786,2.5-.149,5.015.069,7.342-.6,0-1.566.425-2.946.51-4.485,2.653-.358,2.092-3.331,3.86-4.262,1.6-.841,5.05.2,6.661.393,5.706.682,6.372-.722,10.631-3.12,1.88-1.059,4.394-.589,6.2-1.967,1.9-1.447,1.486-3.372,3.994-4.054,1.88-.511,4.028.286,5.995-.339,1.775-.564,2.565-1.729,4.938-1.582-.245-5.86,4.328-7.935,8.3-10.2,5.542-3.169,10.068,1.03,15.318-.823,2.351-.83,3.283-2.443,5.888-2.772,3.192-.4,4.527.36,6.958-1.863,1.047-.958,1.251-2.427,2.369-3.336a1.8,1.8,0,0,1,.512-.278v78.489H192.149A5.372,5.372,0,0,1,193.022,202.4Z" transform="translate(-90.856 -124.371)"/><path class="h" d="M-18.2,123.432c.2.062.4.124.6.185,4.623,1.384,9.333,5.4,13.26,8.795,6.655,5.76,13.719,6.517,20.786,11.559,6.846,4.884,14.128,6.165,21.373,9.616,6.921,3.3,14.18,8.352,21.533,11.081a96.209,96.209,0,0,0,11.355,3.467c3.685.85,7.646-.3,11.385.338a41.651,41.651,0,0,1,12.177,4.634c4.665,2.61,6.5,6.728,11.864,6.934,3.752.145,6.939.316,10.285,2.277,4.287,2.512,5.82,2.071,10.414,2.337,3.7.214,7.459,2.721,10.914,4.273a83.037,83.037,0,0,0,10.294,3.493c4.4,1.334,7.775,4.9,11.875,7.4a42.027,42.027,0,0,0,8.342,3.8H-18.2Z" transform="translate(22.73 -123.432)"/><path class="h" d="M130.912,243.689c-2.1-2.1-6.345-2.586-9.02-3.326-1.749-.483-4.316-.386-5.812-1.363s-1.461-2.7-2.737-3.643c-1.377-1.021-3.387-.417-4.74-1.456-1.21-.929-1.219-2.76-2.325-3.847-2.587-2.542-6.081-2.137-9.06-3.2-.974-.348-3.507-1.912-4.778-2.566-2.944-1.515-1.664-.833-3.122-3.372-1.573-2.741-2.2-6.008-5.113-7.282-3.111-1.363-7.527.986-6.664-5.1-2.093-.993-5.806.583-6.27-2.786-2.5-.15-5.015.068-7.342-.6,0-1.565-.425-2.946-.51-4.485-2.653-.359-2.093-3.331-3.86-4.262-1.6-.841-5.05.2-6.661.393-5.706.682-6.372-.722-10.631-3.12-1.88-1.059-4.394-.589-6.2-1.967-1.9-1.446-1.486-3.372-3.994-4.055-1.88-.511-4.028.286-5.995-.339-1.774-.563-2.564-1.729-4.938-1.582.244-5.86-4.329-7.935-8.3-10.2-5.543-3.169-10.068,1.03-15.318-.823-2.352-.83-3.283-2.443-5.888-2.772-3.192-.4-4.527.361-6.958-1.863-1.046-.958-1.251-2.427-2.369-3.336a1.8,1.8,0,0,0-.512-.278v78.489H131.785A5.352,5.352,0,0,0,130.912,243.689Z" transform="translate(22.73 -146.698)"/><path class="h" d="M299.307,164.719c-.2.062-.4.124-.6.186-4.623,1.384-9.333,5.4-13.26,8.795-6.655,5.759-13.719,6.517-20.786,11.559-6.846,4.884-14.128,6.165-21.373,9.616-6.921,3.3-14.18,8.352-21.533,11.081a96.293,96.293,0,0,1-11.355,3.467c-3.685.85-7.646-.3-11.385.338a41.66,41.66,0,0,0-12.177,4.634c-4.665,2.609-6.5,6.728-11.864,6.934-3.751.145-6.939.316-10.285,2.277-4.287,2.512-5.82,2.071-10.413,2.337-3.7.214-7.46,2.721-10.915,4.273a82.883,82.883,0,0,1-10.294,3.493c-4.4,1.334-7.775,4.9-11.876,7.4a42.01,42.01,0,0,1-8.342,3.8H299.307Z" transform="translate(-48.033 -145.759)"/><path class="h" d="M224.035,183.79a32.646,32.646,0,0,0-7.066,7.613c-1.182,1.771-1.086,4.831-2.042,6.265-.983,1.475-3.343,2.418-4.632,3.987-2.563,3.12-5.206,5.174-7.556,8.519-2.812-2.487-4.191.9-6.566,1.468-2.424.582-4.548-1.026-6.956.107-2.784,1.31-4.476,3.957-7.587,4.84-2.728.776-6.029.159-8.712.949-3.565,1.049-6.234,4.574-9.432,6.921-2.862,2.1-5.209,1.969-8.54,1.965-6.752-.007-11.761,1.8-18.059,3.212-7.38,1.65-14.965,1.412-22.374,2.7-7.465,1.293-11.2-.1-18.058-3.031-6.508-2.778-13.459-.565-20.413-.565-4.338,0-17.223-1-18.517-6.4-.978-.059-2.072.084-3.055-.068-4.051-.625-6.894-.618-10.6-2.336a88.56,88.56,0,0,0-8.252-3.79c-4.027-1.4-5.909-.933-9.814.218-5.3,1.561-4.681-2.421-9.039-3.245-3.1-.586-6.255,1.936-9.814.5-1.575-.637-3.149-2.708-4.8-3.271-1.441-.491-3.336.234-4.645-.531-2.558-1.494-3.731-5.147-6.631-6.96a39.69,39.69,0,0,0-9.073-4.132v53.107H228.544V179.172C226.919,180.832,225.416,182.675,224.035,183.79Z" transform="translate(22.73 -153.575)"/><path class="i" d="M-18.2,337.671v40.022c12.449.331,25.587-1.814,38.08.625a130.839,130.839,0,0,0,26.186,2.548c9.717,0,17.747-4.028,27.229-4.857a302.337,302.337,0,0,1,53.18.023c8.994.859,17.281,3.079,26.183,3.851,8.43.731,15.081-2.923,23.323-2.9,5.206.012,9.171,2,14.125,2.9a55.876,55.876,0,0,0,16.048.5c5.756-.637,11.115-2.2,16.926-2.538,1.628-.1,3.508-.055,5.462-.015V337.671Z" transform="translate(22.73 -239.288)"/><path class="j" d="M-18,349.185c8.753-.271,17.886.788,26.564,1.69a223.279,223.279,0,0,0,31.427.845c10.741-.387,21.655.688,32.174-.845a115.456,115.456,0,0,1,17.016-1.69c5.4.014,9.971,1.192,15.165,1.7,6.966.682,14.358.013,21.247.411,6.319.365,14.857-.97,20.614.752-8.187-.314-16.822,1.784-25.363,1.784-8.762,0-17.651,0-26.244.423-9.047.441-17.855.62-26.545,2.96-5.206,1.4-10.239,3.07-15.786,2.544-4.5-.427-8.4-1.278-13.1-1.278-9.552,0-19.248-.479-28.784-.01-9.7.477-19.547,2.425-29.23,2.123" transform="translate(23.083 -245.491)"/><path class="j" d="M351.673,360.495a74.248,74.248,0,0,1-3.406-7.448c-5.066-.13-10.464,1.2-15.891,1.2-5.98.007-11.545-1.257-17.582-.843-14.026.961-28.25,2.618-42.493,3.7-12.367.937-25.233.933-37.466,2.639-5.459.761-10.945,1.275-16.5,1.679-4.531.329-12.241-.455-15.956.857h-7.992c9.376.62,17.818,2.085,27.733,1.712,21.069-.793,43.229-.608,64.56-1.384,22.748-.828,47.268-1.67,68.945,4.36C354.907,364.773,352.725,362.506,351.673,360.495Z" transform="translate(-92.063 -247.598)"/><path class="j" d="M-17.653,378.517c14.837,0,29.758-1.363,44.531-1.805,14.889-.445,30.81,2.1,44.856,2.1a293.34,293.34,0,0,0-43.692,3.6c-15.4,2.239-31.255.6-47.046.6h-.765" transform="translate(23.58 -260.372)"/><path class="j" d="M355.129,389.015c-10.767-3.114-25.787,0-37.148,0-15.932,0-31.725-.425-47.522-.423-8.349,0-16.248,1.7-24.541,1.69q-12.705-.012-25.41,0c-6.881,0-13.51.385-20.273.94,6.541,2.57,16.223,1.174,23.671,1.174,8.679,0,17.376-.252,25.823.961,17.713,2.542,34.711-2.318,52.807-1.384,9.456.488,18.937.815,28.487,1.258,4.263.2,8.821.2,13.194.433,6.159.334,14.893,3.474,20.648.422" transform="translate(-95.223 -266.306)"/><path class="j" d="M-21.114,401.885c14.717-4.256,35.239.246,50.169.845,9.328.375,18.492.041,27.647.845,7.233.635,16.708,1.554,23.132,1.268-8.4,0-15.783.952-23.559,1.69-8.106.768-16.648-.2-24.684.413-9,.685-17.578,1.081-26.553.022-12.035-1.42-21.371.632-33.09,2.1" transform="translate(28.052 -273.034)"/><g transform="translate(4.533 77.173)"><path class="k" d="M228.544,293.256c-5.535.907-11.314-1.771-17.07-1.771-12.564,0-23.285,10.856-36.382,9.9-13.046-.952-25.993-6.193-39.571-5.194-13.681,1.007-27.241,11.22-40.813,7.065-13.184-4.036-25.505,4.643-38.8.488-11.447-3.578-24.932-11.821-36.944-8.848-6.416,1.588-11.243,7.689-18.147,7.208-6.584-.459-12.825-4.475-19.01-4.719v15.308H228.544Z" transform="translate(18.197 -291.485)"/></g><g transform="translate(15.656 74.638)"><path class="l" d="M17.868,294.892v.163c1.164,9.582,0,12.31,0,12.31H19.65C19.977,295.382,17.868,294.892,17.868,294.892Z" transform="translate(-12.401 -290.792)"/><path class="l" d="M17.61,290.873s-1.953-2.4-4.2-1.938a5.229,5.229,0,0,1,4.353.375s-2.6-2.237-4.74-.913a6.972,6.972,0,0,1,3.561-1.636s-3.145-1.691-4.678,1.994c.288-1.435.06-3.2-3.055-2.708A3.4,3.4,0,0,1,11.416,289c-.757-3.714-4.3-2.02-4.3-2.02a4.28,4.28,0,0,1,3.456,1.831,3.278,3.278,0,0,0-4.422.372,3.428,3.428,0,0,1,2.367-.363c-1.717.563-2.536,2.8-2.536,2.8a4.093,4.093,0,0,1,4.622-1.507c-1.553.043-4.468.647-4.453,4.578a5.742,5.742,0,0,1,4.4-3.86,3.827,3.827,0,0,0-1.075,4.58s-.3-1.783,1.434-4.416a3.216,3.216,0,0,0,.322,2.777,14.371,14.371,0,0,1,.378-3.347h.044a7.47,7.47,0,0,1,2.222,2.538A2.646,2.646,0,0,0,12.8,290.58a7.82,7.82,0,0,1,2.655,1.313,4.243,4.243,0,0,0-1.687-2.064A6.333,6.333,0,0,1,17.61,290.873Z" transform="translate(-5.983 -285.963)"/><g transform="translate(7.821 5.034)"><g transform="translate(2.132 3.222)"><path class="l" d="M28.832,303.941v.109c-.776,6.389,0,8.208,0,8.208H27.643C27.425,304.268,28.832,303.941,28.832,303.941Z" transform="translate(-27.62 -303.941)"/></g><path class="l" d="M30.127,300.517s-.536-2.315-3.034-1.293a3.206,3.206,0,0,1,2.045-2.052,2.662,2.662,0,0,0-2.5,1.559,2.135,2.135,0,0,0-1.775-1.807,2.837,2.837,0,0,1,1.225,1.718,2.215,2.215,0,0,0-2.564-.239,2.467,2.467,0,0,1,2.079.465c-1.6-.4-2.547,1.312-2.547,1.312a2.577,2.577,0,0,1,2.322-.689,3.383,3.383,0,0,0-2.4,1.746,4.858,4.858,0,0,1,1.853-1.2,4.242,4.242,0,0,0-1.779,2.714,3.944,3.944,0,0,1,3.071-2.391c.88.488.771,2.391.771,2.391a2.579,2.579,0,0,0,.015-2.115,3.015,3.015,0,0,1,1.078,2.476,2.551,2.551,0,0,0-.589-2.749A3.1,3.1,0,0,1,28.9,301.5c-.257-1.363-.88-1.779-1.352-1.891A2.163,2.163,0,0,1,30.127,300.517Z" transform="translate(-22.986 -296.925)"/></g></g><g transform="translate(26.722 64.243)"><g transform="translate(17.043 4.158)"><path class="m" d="M78.976,281.311v.163c1.163,9.582,0,12.31,0,12.31h1.782C81.085,281.8,78.976,281.311,78.976,281.311Z" transform="translate(-73.509 -277.211)"/><path class="m" d="M78.718,277.293s-1.953-2.4-4.2-1.938a5.229,5.229,0,0,1,4.353.375s-2.6-2.237-4.74-.913a6.971,6.971,0,0,1,3.561-1.636s-3.145-1.691-4.678,1.994c.288-1.435.06-3.2-3.055-2.708a3.4,3.4,0,0,1,2.564,2.949c-.757-3.714-4.3-2.02-4.3-2.02a4.281,4.281,0,0,1,3.456,1.831,3.278,3.278,0,0,0-4.422.372,3.429,3.429,0,0,1,2.367-.363c-1.717.563-2.536,2.8-2.536,2.8a4.093,4.093,0,0,1,4.622-1.507c-1.552.043-4.468.647-4.453,4.578a5.743,5.743,0,0,1,4.4-3.86,3.827,3.827,0,0,0-1.075,4.58s-.3-1.783,1.434-4.416a3.215,3.215,0,0,0,.322,2.777,14.369,14.369,0,0,1,.378-3.347h.044a7.47,7.47,0,0,1,2.222,2.538A2.647,2.647,0,0,0,73.9,277a7.826,7.826,0,0,1,2.655,1.313,4.243,4.243,0,0,0-1.687-2.064A6.334,6.334,0,0,1,78.718,277.293Z" transform="translate(-67.091 -272.383)"/></g><g transform="translate(0 6.505)"><path class="m" d="M41.925,286.422v.163c1.164,9.582,0,12.31,0,12.31h1.782C44.034,286.912,41.925,286.422,41.925,286.422Z" transform="translate(-36.458 -282.322)"/><path class="m" d="M41.667,282.4s-1.953-2.4-4.2-1.938a5.229,5.229,0,0,1,4.353.375s-2.6-2.237-4.74-.913a6.974,6.974,0,0,1,3.561-1.636s-3.145-1.691-4.678,1.994c.288-1.435.06-3.2-3.055-2.708a3.4,3.4,0,0,1,2.564,2.95c-.756-3.714-4.3-2.02-4.3-2.02a4.282,4.282,0,0,1,3.456,1.831,3.278,3.278,0,0,0-4.422.372,3.434,3.434,0,0,1,2.367-.363c-1.717.563-2.536,2.8-2.536,2.8a4.093,4.093,0,0,1,4.622-1.507c-1.553.043-4.468.647-4.453,4.578a5.742,5.742,0,0,1,4.4-3.86,3.828,3.828,0,0,0-1.075,4.581s-.3-1.783,1.434-4.416a3.216,3.216,0,0,0,.322,2.777,14.4,14.4,0,0,1,.378-3.347h.044a7.474,7.474,0,0,1,2.223,2.539,2.647,2.647,0,0,0-1.084-2.381,7.821,7.821,0,0,1,2.655,1.313,4.245,4.245,0,0,0-1.687-2.064A6.333,6.333,0,0,1,41.667,282.4Z" transform="translate(-30.04 -277.493)"/></g><g transform="translate(38.007 8.286)"><path class="m" d="M124.548,290.3v.163c1.164,9.582,0,12.31,0,12.31h1.782C126.657,290.791,124.548,290.3,124.548,290.3Z" transform="translate(-119.081 -286.201)"/><path class="m" d="M124.29,286.282s-1.953-2.4-4.2-1.938a5.229,5.229,0,0,1,4.353.375s-2.6-2.237-4.74-.913a6.973,6.973,0,0,1,3.561-1.636s-3.145-1.691-4.678,1.994c.288-1.435.06-3.2-3.055-2.708a3.4,3.4,0,0,1,2.564,2.95c-.756-3.714-4.3-2.02-4.3-2.02a4.282,4.282,0,0,1,3.456,1.831,3.278,3.278,0,0,0-4.422.372,3.432,3.432,0,0,1,2.367-.363c-1.717.563-2.536,2.8-2.536,2.8a4.094,4.094,0,0,1,4.622-1.507c-1.552.043-4.468.647-4.453,4.578a5.742,5.742,0,0,1,4.4-3.86,3.827,3.827,0,0,0-1.075,4.581s-.3-1.783,1.434-4.416a3.216,3.216,0,0,0,.322,2.777,14.4,14.4,0,0,1,.378-3.347h.044a7.473,7.473,0,0,1,2.223,2.539,2.646,2.646,0,0,0-1.084-2.381,7.814,7.814,0,0,1,2.655,1.313,4.24,4.24,0,0,0-1.687-2.064A6.33,6.33,0,0,1,124.29,286.282Z" transform="translate(-112.663 -281.372)"/></g><g transform="translate(155.047 6.919)"><path class="m" d="M378.689,287.324v.163c-1.164,9.582,0,12.309,0,12.309h-1.782C376.579,287.815,378.689,287.324,378.689,287.324Z" transform="translate(-372.376 -283.224)"/><path class="m" d="M367.251,283.305s1.953-2.4,4.2-1.938a5.228,5.228,0,0,0-4.352.375s2.6-2.237,4.739-.913a6.97,6.97,0,0,0-3.561-1.636s3.146-1.691,4.678,1.994c-.288-1.435-.06-3.2,3.055-2.708a3.4,3.4,0,0,0-2.564,2.95c.757-3.714,4.3-2.02,4.3-2.02a4.279,4.279,0,0,0-3.456,1.831,3.278,3.278,0,0,1,4.422.372,3.434,3.434,0,0,0-2.367-.363c1.717.563,2.536,2.8,2.536,2.8a4.093,4.093,0,0,0-4.622-1.507c1.552.043,4.468.647,4.453,4.578a5.743,5.743,0,0,0-4.4-3.861,3.828,3.828,0,0,1,1.075,4.581s.3-1.783-1.435-4.416a3.215,3.215,0,0,1-.322,2.777,14.435,14.435,0,0,0-.378-3.347H373.2a7.475,7.475,0,0,0-2.222,2.539,2.647,2.647,0,0,1,1.084-2.382,7.818,7.818,0,0,0-2.655,1.313,4.243,4.243,0,0,1,1.687-2.064A6.33,6.33,0,0,0,367.251,283.305Z" transform="translate(-367.098 -278.396)"/></g><g transform="translate(129.559 7.797)"><path class="m" d="M321.024,287.5v.131c-.937,7.716,0,9.913,0,9.913h-1.435C319.325,287.893,321.024,287.5,321.024,287.5Z" transform="translate(-315.94 -284.196)"/><path class="m" d="M311.812,284.262s1.572-1.934,3.382-1.56a4.207,4.207,0,0,0-3.505.3s2.095-1.8,3.817-.736a5.615,5.615,0,0,0-2.868-1.318,2.616,2.616,0,0,1,3.768,1.606c-.232-1.156-.048-2.575,2.46-2.181a2.737,2.737,0,0,0-2.064,2.375c.609-2.991,3.46-1.627,3.46-1.627a3.447,3.447,0,0,0-2.783,1.475,2.64,2.64,0,0,1,3.561.3,2.764,2.764,0,0,0-1.906-.292,4.029,4.029,0,0,1,2.042,2.256,3.3,3.3,0,0,0-3.722-1.214,3.36,3.36,0,0,1,3.586,3.686,4.623,4.623,0,0,0-3.544-3.108,3.081,3.081,0,0,1,.866,3.688,5.461,5.461,0,0,0-1.155-3.556,2.592,2.592,0,0,1-.26,2.237,11.573,11.573,0,0,0-.3-2.7h-.036a6.018,6.018,0,0,0-1.79,2.044,2.132,2.132,0,0,1,.874-1.918,6.3,6.3,0,0,0-2.139,1.058,3.423,3.423,0,0,1,1.358-1.662A5.1,5.1,0,0,0,311.812,284.262Z" transform="translate(-311.689 -280.308)"/></g><g transform="translate(94.259 13.781)"><path class="m" d="M244.285,300.527v.132c-.937,7.715,0,9.912,0,9.912h-1.435C242.586,300.922,244.285,300.527,244.285,300.527Z" transform="translate(-239.201 -297.225)"/><path class="m" d="M235.074,297.291s1.572-1.934,3.382-1.56a4.209,4.209,0,0,0-3.5.3s2.094-1.8,3.817-.736a5.621,5.621,0,0,0-2.869-1.318,2.616,2.616,0,0,1,3.768,1.606c-.232-1.155-.049-2.575,2.46-2.181a2.738,2.738,0,0,0-2.064,2.375c.609-2.991,3.461-1.626,3.461-1.626a3.447,3.447,0,0,0-2.783,1.474,2.638,2.638,0,0,1,3.56.3,2.762,2.762,0,0,0-1.905-.292,4.027,4.027,0,0,1,2.042,2.255,3.3,3.3,0,0,0-3.722-1.214,3.359,3.359,0,0,1,3.585,3.687,4.621,4.621,0,0,0-3.543-3.109,3.084,3.084,0,0,1,.866,3.688,5.463,5.463,0,0,0-1.156-3.556,2.592,2.592,0,0,1-.26,2.237,11.564,11.564,0,0,0-.3-2.7h-.036a6.02,6.02,0,0,0-1.79,2.044,2.13,2.13,0,0,1,.874-1.917,6.3,6.3,0,0,0-2.139,1.057,3.425,3.425,0,0,1,1.359-1.662A5.1,5.1,0,0,0,235.074,297.291Z" transform="translate(-234.951 -293.337)"/></g><g transform="translate(74.512 11.211)"><path class="m" d="M201.357,294.932v.131c-.937,7.716,0,9.913,0,9.913h-1.435C199.658,295.327,201.357,294.932,201.357,294.932Z" transform="translate(-196.273 -291.63)"/><path class="m" d="M192.145,291.7s1.572-1.934,3.382-1.561a4.21,4.21,0,0,0-3.505.3s2.095-1.8,3.817-.735a5.616,5.616,0,0,0-2.868-1.318,2.615,2.615,0,0,1,3.767,1.606c-.232-1.156-.048-2.575,2.46-2.181a2.737,2.737,0,0,0-2.064,2.375c.609-2.991,3.461-1.626,3.461-1.626a3.448,3.448,0,0,0-2.783,1.474,2.639,2.639,0,0,1,3.56.3,2.764,2.764,0,0,0-1.905-.292,4.03,4.03,0,0,1,2.042,2.255,3.3,3.3,0,0,0-3.722-1.213,3.359,3.359,0,0,1,3.585,3.686,4.622,4.622,0,0,0-3.543-3.108,3.082,3.082,0,0,1,.866,3.688,5.461,5.461,0,0,0-1.155-3.556,2.591,2.591,0,0,1-.26,2.236,11.582,11.582,0,0,0-.3-2.7h-.036a6.02,6.02,0,0,0-1.79,2.045,2.132,2.132,0,0,1,.874-1.918,6.3,6.3,0,0,0-2.139,1.058,3.419,3.419,0,0,1,1.358-1.662A5.1,5.1,0,0,0,192.145,291.7Z" transform="translate(-192.022 -287.742)"/></g><g transform="translate(101.182 12.572)"><path class="m" d="M259.335,297.895v.131c-.937,7.715,0,9.913,0,9.913H257.9C257.636,298.29,259.335,297.895,259.335,297.895Z" transform="translate(-254.251 -294.593)"/><path class="m" d="M250.123,294.659s1.572-1.934,3.381-1.561a4.209,4.209,0,0,0-3.5.3s2.095-1.8,3.817-.735a5.613,5.613,0,0,0-2.869-1.318,2.616,2.616,0,0,1,3.768,1.607c-.232-1.156-.049-2.575,2.46-2.181a2.737,2.737,0,0,0-2.064,2.375c.609-2.991,3.461-1.627,3.461-1.627a3.448,3.448,0,0,0-2.783,1.474,2.639,2.639,0,0,1,3.56.3,2.763,2.763,0,0,0-1.905-.292,4.03,4.03,0,0,1,2.042,2.255,3.3,3.3,0,0,0-3.722-1.213,3.359,3.359,0,0,1,3.586,3.686,4.623,4.623,0,0,0-3.543-3.109,3.083,3.083,0,0,1,.866,3.689,5.464,5.464,0,0,0-1.155-3.557,2.592,2.592,0,0,1-.259,2.237,11.6,11.6,0,0,0-.3-2.7h-.036a6.022,6.022,0,0,0-1.789,2.044,2.13,2.13,0,0,1,.873-1.918,6.291,6.291,0,0,0-2.138,1.058,3.421,3.421,0,0,1,1.358-1.662A5.1,5.1,0,0,0,250.123,294.659Z" transform="translate(-250 -290.705)"/></g><g transform="translate(62.466 17.294)"><path class="m" d="M175.17,308.178v.131c-.937,7.716,0,9.913,0,9.913h-1.435C173.471,308.573,175.17,308.178,175.17,308.178Z" transform="translate(-170.086 -304.876)"/><path class="m" d="M165.958,304.942s1.572-1.934,3.382-1.561a4.21,4.21,0,0,0-3.505.3s2.095-1.8,3.817-.735a5.615,5.615,0,0,0-2.868-1.318,2.615,2.615,0,0,1,3.767,1.606c-.232-1.156-.048-2.575,2.46-2.181a2.737,2.737,0,0,0-2.064,2.376c.609-2.991,3.46-1.627,3.46-1.627a3.446,3.446,0,0,0-2.783,1.475,2.64,2.64,0,0,1,3.561.3,2.764,2.764,0,0,0-1.906-.292,4.028,4.028,0,0,1,2.042,2.255,3.3,3.3,0,0,0-3.722-1.213,3.36,3.36,0,0,1,3.586,3.686,4.623,4.623,0,0,0-3.544-3.108,3.082,3.082,0,0,1,.866,3.688,5.461,5.461,0,0,0-1.155-3.556,2.592,2.592,0,0,1-.26,2.236,11.576,11.576,0,0,0-.3-2.7h-.036a6.016,6.016,0,0,0-1.79,2.044,2.132,2.132,0,0,1,.874-1.918,6.3,6.3,0,0,0-2.138,1.058,3.418,3.418,0,0,1,1.358-1.662A5.1,5.1,0,0,0,165.958,304.942Z" transform="translate(-165.835 -300.988)"/></g><g transform="translate(69.769 12.572)"><path class="m" d="M191.046,297.895v.131c-.937,7.715,0,9.913,0,9.913H189.61C189.347,298.29,191.046,297.895,191.046,297.895Z" transform="translate(-185.962 -294.593)"/><path class="m" d="M181.834,294.659s1.572-1.934,3.382-1.561a4.209,4.209,0,0,0-3.5.3s2.095-1.8,3.817-.735a5.614,5.614,0,0,0-2.869-1.318,2.616,2.616,0,0,1,3.768,1.607c-.232-1.156-.049-2.575,2.46-2.181a2.737,2.737,0,0,0-2.064,2.375c.609-2.991,3.461-1.627,3.461-1.627a3.448,3.448,0,0,0-2.783,1.474,2.639,2.639,0,0,1,3.56.3,2.762,2.762,0,0,0-1.905-.292,4.03,4.03,0,0,1,2.042,2.255,3.3,3.3,0,0,0-3.722-1.213,3.359,3.359,0,0,1,3.586,3.686,4.623,4.623,0,0,0-3.543-3.109,3.083,3.083,0,0,1,.866,3.689,5.465,5.465,0,0,0-1.156-3.557,2.591,2.591,0,0,1-.259,2.237,11.584,11.584,0,0,0-.3-2.7h-.036a6.021,6.021,0,0,0-1.789,2.044,2.13,2.13,0,0,1,.873-1.918,6.291,6.291,0,0,0-2.138,1.058,3.42,3.42,0,0,1,1.358-1.662A5.1,5.1,0,0,0,181.834,294.659Z" transform="translate(-181.711 -290.705)"/></g><g transform="translate(119.259 11.552)"><path class="m" d="M298.634,295.674v.131c-.938,7.716,0,9.913,0,9.913H297.2C296.934,296.069,298.634,295.674,298.634,295.674Z" transform="translate(-293.549 -292.372)"/><path class="m" d="M289.422,292.438s1.572-1.934,3.382-1.561a4.208,4.208,0,0,0-3.5.3s2.095-1.8,3.817-.736a5.615,5.615,0,0,0-2.868-1.318,2.615,2.615,0,0,1,3.767,1.606c-.232-1.156-.049-2.575,2.46-2.181a2.737,2.737,0,0,0-2.064,2.376c.609-2.991,3.46-1.627,3.46-1.627a3.446,3.446,0,0,0-2.782,1.475,2.639,2.639,0,0,1,3.56.3,2.766,2.766,0,0,0-1.906-.292,4.031,4.031,0,0,1,2.042,2.255,3.3,3.3,0,0,0-3.722-1.213,3.36,3.36,0,0,1,3.586,3.686,4.624,4.624,0,0,0-3.543-3.108,3.082,3.082,0,0,1,.866,3.688,5.463,5.463,0,0,0-1.156-3.556,2.59,2.59,0,0,1-.26,2.236,11.526,11.526,0,0,0-.3-2.7h-.036a6.017,6.017,0,0,0-1.789,2.044,2.131,2.131,0,0,1,.873-1.918,6.291,6.291,0,0,0-2.138,1.058,3.419,3.419,0,0,1,1.358-1.662A5.1,5.1,0,0,0,289.422,292.438Z" transform="translate(-289.299 -288.484)"/></g><g transform="translate(162.083 13.203)"><path class="m" d="M391.729,299.27v.131c-.938,7.715,0,9.913,0,9.913h-1.436C390.03,299.665,391.729,299.27,391.729,299.27Z" transform="translate(-386.645 -295.968)"/><path class="m" d="M382.517,296.034s1.572-1.934,3.382-1.561a4.21,4.21,0,0,0-3.505.3s2.1-1.8,3.817-.735a5.61,5.61,0,0,0-2.868-1.317,2.615,2.615,0,0,1,3.767,1.606c-.231-1.156-.048-2.575,2.46-2.181a2.736,2.736,0,0,0-2.064,2.375c.609-2.991,3.46-1.627,3.46-1.627a3.449,3.449,0,0,0-2.783,1.475,2.639,2.639,0,0,1,3.561.3,2.765,2.765,0,0,0-1.906-.292,4.029,4.029,0,0,1,2.042,2.255,3.3,3.3,0,0,0-3.722-1.213,3.36,3.36,0,0,1,3.586,3.686A4.624,4.624,0,0,0,388.2,296a3.083,3.083,0,0,1,.866,3.689,5.462,5.462,0,0,0-1.155-3.557,2.592,2.592,0,0,1-.26,2.237,11.559,11.559,0,0,0-.3-2.7h-.036a6.02,6.02,0,0,0-1.79,2.044,2.131,2.131,0,0,1,.874-1.918,6.3,6.3,0,0,0-2.139,1.058,3.425,3.425,0,0,1,1.358-1.662A5.1,5.1,0,0,0,382.517,296.034Z" transform="translate(-382.394 -292.08)"/></g><g transform="translate(176.903 10.906)"><path class="m" d="M423.947,294.267v.131c-.938,7.715,0,9.913,0,9.913h-1.436C422.248,294.662,423.947,294.267,423.947,294.267Z" transform="translate(-418.863 -290.965)"/><path class="m" d="M414.735,291.03s1.572-1.933,3.381-1.56a4.21,4.21,0,0,0-3.5.3s2.1-1.8,3.817-.735a5.612,5.612,0,0,0-2.868-1.318,2.615,2.615,0,0,1,3.767,1.606c-.232-1.156-.048-2.575,2.46-2.181a2.737,2.737,0,0,0-2.063,2.376c.609-2.991,3.46-1.627,3.46-1.627a3.448,3.448,0,0,0-2.782,1.475,2.639,2.639,0,0,1,3.56.3,2.764,2.764,0,0,0-1.905-.292,4.028,4.028,0,0,1,2.042,2.255,3.3,3.3,0,0,0-3.722-1.213,3.359,3.359,0,0,1,3.585,3.686,4.624,4.624,0,0,0-3.543-3.109,3.083,3.083,0,0,1,.866,3.689,5.459,5.459,0,0,0-1.156-3.556,2.59,2.59,0,0,1-.259,2.236,11.578,11.578,0,0,0-.3-2.7h-.036a6.016,6.016,0,0,0-1.79,2.044,2.131,2.131,0,0,1,.874-1.918,6.292,6.292,0,0,0-2.139,1.058,3.423,3.423,0,0,1,1.358-1.662A5.1,5.1,0,0,0,414.735,291.03Z" transform="translate(-414.612 -287.077)"/></g><g transform="translate(194.852 5.899)"><path class="m" d="M462.967,283.363v.131c-.938,7.716,0,9.913,0,9.913H461.53C461.267,283.758,462.967,283.363,462.967,283.363Z" transform="translate(-457.882 -280.061)"/><path class="m" d="M453.755,280.127s1.572-1.934,3.382-1.56a4.207,4.207,0,0,0-3.5.3s2.095-1.8,3.817-.736a5.616,5.616,0,0,0-2.868-1.318,2.615,2.615,0,0,1,3.767,1.606c-.232-1.155-.049-2.575,2.46-2.181a2.737,2.737,0,0,0-2.064,2.376c.609-2.991,3.46-1.627,3.46-1.627a3.448,3.448,0,0,0-2.782,1.475,2.639,2.639,0,0,1,3.56.3,2.767,2.767,0,0,0-1.906-.292,4.029,4.029,0,0,1,2.042,2.255,3.3,3.3,0,0,0-3.722-1.214,3.36,3.36,0,0,1,3.586,3.687,4.624,4.624,0,0,0-3.543-3.109,3.082,3.082,0,0,1,.866,3.688,5.462,5.462,0,0,0-1.155-3.556,2.59,2.59,0,0,1-.26,2.236,11.523,11.523,0,0,0-.3-2.7h-.036a6.02,6.02,0,0,0-1.789,2.044,2.13,2.13,0,0,1,.873-1.917,6.287,6.287,0,0,0-2.138,1.057,3.424,3.424,0,0,1,1.358-1.662A5.1,5.1,0,0,0,453.755,280.127Z" transform="translate(-453.632 -276.173)"/></g><g transform="translate(86.618 16.191)"><path class="m" d="M224.689,303.478v.09c-.638,5.248,0,6.743,0,6.743h-.976C223.534,303.747,224.689,303.478,224.689,303.478Z" transform="translate(-221.231 -301.232)"/><path class="m" d="M218.423,301.276s1.07-1.315,2.3-1.061a2.863,2.863,0,0,0-2.384.205s1.425-1.226,2.6-.5a3.821,3.821,0,0,0-1.951-.9,1.779,1.779,0,0,1,2.563,1.093c-.158-.786-.033-1.752,1.673-1.484a1.862,1.862,0,0,0-1.4,1.616c.414-2.035,2.354-1.106,2.354-1.106a2.345,2.345,0,0,0-1.893,1,1.8,1.8,0,0,1,2.422.2,1.88,1.88,0,0,0-1.3-.2,2.74,2.74,0,0,1,1.389,1.534,2.243,2.243,0,0,0-2.532-.826,2.285,2.285,0,0,1,2.439,2.508,3.143,3.143,0,0,0-2.41-2.114,2.1,2.1,0,0,1,.589,2.509,3.717,3.717,0,0,0-.786-2.419,1.764,1.764,0,0,1-.177,1.521,7.9,7.9,0,0,0-.207-1.834h-.024a4.1,4.1,0,0,0-1.218,1.391,1.449,1.449,0,0,1,.594-1.3,4.276,4.276,0,0,0-1.455.719,2.328,2.328,0,0,1,.924-1.131A3.473,3.473,0,0,0,218.423,301.276Z" transform="translate(-218.339 -298.587)"/></g><g transform="translate(80.165 15.638)"><path class="m" d="M210.66,302.272v.09c-.638,5.248,0,6.743,0,6.743h-.977C209.5,302.541,210.66,302.272,210.66,302.272Z" transform="translate(-207.202 -300.026)"/><path class="m" d="M204.395,300.071s1.07-1.315,2.3-1.061a2.863,2.863,0,0,0-2.384.205s1.425-1.226,2.6-.5a3.823,3.823,0,0,0-1.951-.9,1.779,1.779,0,0,1,2.563,1.092c-.158-.786-.033-1.752,1.673-1.484a1.862,1.862,0,0,0-1.4,1.616c.414-2.035,2.354-1.106,2.354-1.106a2.344,2.344,0,0,0-1.893,1,1.8,1.8,0,0,1,2.422.2,1.881,1.881,0,0,0-1.3-.2,2.741,2.741,0,0,1,1.389,1.534,2.242,2.242,0,0,0-2.532-.826,2.285,2.285,0,0,1,2.439,2.508,3.144,3.144,0,0,0-2.41-2.114,2.1,2.1,0,0,1,.589,2.509,3.716,3.716,0,0,0-.786-2.419,1.762,1.762,0,0,1-.177,1.521,7.892,7.892,0,0,0-.207-1.834h-.025a4.1,4.1,0,0,0-1.217,1.391,1.448,1.448,0,0,1,.594-1.3,4.277,4.277,0,0,0-1.455.719,2.331,2.331,0,0,1,.924-1.131A3.47,3.47,0,0,0,204.395,300.071Z" transform="translate(-204.311 -297.381)"/></g><g transform="translate(46.56 16.489)"><path class="m" d="M137.607,304.125v.09c-.638,5.248,0,6.743,0,6.743h-.977C136.452,304.394,137.607,304.125,137.607,304.125Z" transform="translate(-134.149 -301.879)"/><path class="m" d="M131.342,301.924s1.07-1.315,2.3-1.062a2.864,2.864,0,0,0-2.384.206s1.425-1.226,2.6-.5a3.822,3.822,0,0,0-1.951-.9,1.779,1.779,0,0,1,2.563,1.093c-.158-.786-.033-1.752,1.673-1.484a1.862,1.862,0,0,0-1.4,1.616c.414-2.035,2.354-1.107,2.354-1.107a2.345,2.345,0,0,0-1.893,1,1.8,1.8,0,0,1,2.422.2,1.881,1.881,0,0,0-1.3-.2,2.74,2.74,0,0,1,1.389,1.534,2.242,2.242,0,0,0-2.532-.825,2.285,2.285,0,0,1,2.439,2.508,3.145,3.145,0,0,0-2.41-2.115,2.1,2.1,0,0,1,.589,2.509,3.717,3.717,0,0,0-.786-2.42,1.762,1.762,0,0,1-.177,1.522,7.87,7.87,0,0,0-.207-1.834H134.6a4.1,4.1,0,0,0-1.217,1.391,1.449,1.449,0,0,1,.594-1.3,4.272,4.272,0,0,0-1.454.72,2.328,2.328,0,0,1,.924-1.131A3.467,3.467,0,0,0,131.342,301.924Z" transform="translate(-131.258 -299.234)"/></g><g transform="translate(32.006 13.345)"><path class="m" d="M105.969,297.278v.09c-.638,5.248,0,6.743,0,6.743h-.976C104.813,297.547,105.969,297.278,105.969,297.278Z" transform="translate(-102.511 -295.032)"/><path class="m" d="M99.7,295.077s1.069-1.315,2.3-1.061a2.862,2.862,0,0,0-2.384.205s1.425-1.226,2.6-.5a3.821,3.821,0,0,0-1.951-.9,1.779,1.779,0,0,1,2.563,1.092c-.158-.786-.033-1.752,1.673-1.484a1.862,1.862,0,0,0-1.4,1.616c.414-2.035,2.354-1.106,2.354-1.106a2.344,2.344,0,0,0-1.893,1,1.8,1.8,0,0,1,2.422.2,1.881,1.881,0,0,0-1.3-.2,2.741,2.741,0,0,1,1.389,1.534,2.241,2.241,0,0,0-2.532-.826,2.285,2.285,0,0,1,2.439,2.508,3.144,3.144,0,0,0-2.41-2.115,2.1,2.1,0,0,1,.589,2.509,3.715,3.715,0,0,0-.786-2.419,1.762,1.762,0,0,1-.176,1.521,7.921,7.921,0,0,0-.207-1.834h-.024a4.094,4.094,0,0,0-1.218,1.391,1.449,1.449,0,0,1,.594-1.3,4.276,4.276,0,0,0-1.455.719,2.33,2.33,0,0,1,.924-1.131A3.467,3.467,0,0,0,99.7,295.077Z" transform="translate(-99.619 -292.387)"/></g><g transform="translate(199.595)"><path class="m" d="M475.535,272.257v.163c-1.164,9.582,0,12.31,0,12.31h-1.782C473.426,272.747,475.535,272.257,475.535,272.257Z" transform="translate(-469.222 -268.157)"/><path class="m" d="M464.1,268.238s1.953-2.4,4.2-1.938a5.228,5.228,0,0,0-4.352.375s2.6-2.237,4.739-.913a6.969,6.969,0,0,0-3.561-1.636s3.145-1.691,4.678,1.994c-.289-1.435-.06-3.2,3.055-2.708a3.4,3.4,0,0,0-2.564,2.95c.757-3.714,4.3-2.02,4.3-2.02a4.283,4.283,0,0,0-3.456,1.831,3.278,3.278,0,0,1,4.422.372,3.432,3.432,0,0,0-2.367-.363c1.717.563,2.536,2.8,2.536,2.8a4.094,4.094,0,0,0-4.622-1.507c1.553.043,4.468.647,4.453,4.578a5.742,5.742,0,0,0-4.4-3.86,3.828,3.828,0,0,1,1.075,4.581s.3-1.783-1.435-4.416a3.215,3.215,0,0,1-.322,2.777,14.41,14.41,0,0,0-.378-3.347h-.044a7.469,7.469,0,0,0-2.222,2.539,2.645,2.645,0,0,1,1.084-2.381,7.813,7.813,0,0,0-2.655,1.313,4.241,4.241,0,0,1,1.687-2.064A6.334,6.334,0,0,0,464.1,268.238Z" transform="translate(-463.943 -263.328)"/></g><g transform="translate(207.49 2.733)"><path class="m" d="M492.7,278.208v.163c-1.164,9.582,0,12.31,0,12.31h-1.782C490.587,278.7,492.7,278.208,492.7,278.208Z" transform="translate(-486.384 -274.108)"/><path class="m" d="M481.258,274.189s1.953-2.4,4.2-1.938a5.228,5.228,0,0,0-4.352.375s2.6-2.237,4.739-.913a6.971,6.971,0,0,0-3.561-1.636s3.146-1.691,4.678,1.994c-.288-1.435-.06-3.2,3.055-2.708a3.4,3.4,0,0,0-2.564,2.95c.757-3.714,4.3-2.02,4.3-2.02a4.282,4.282,0,0,0-3.456,1.831,3.278,3.278,0,0,1,4.422.372,3.434,3.434,0,0,0-2.367-.363c1.717.563,2.536,2.8,2.536,2.8a4.093,4.093,0,0,0-4.622-1.507c1.552.043,4.468.647,4.453,4.577a5.743,5.743,0,0,0-4.4-3.86,3.829,3.829,0,0,1,1.076,4.581s.3-1.783-1.435-4.416a3.214,3.214,0,0,1-.322,2.777,14.419,14.419,0,0,0-.378-3.347h-.045a7.471,7.471,0,0,0-2.222,2.539,2.646,2.646,0,0,1,1.084-2.382,7.814,7.814,0,0,0-2.655,1.313,4.245,4.245,0,0,1,1.687-2.064A6.335,6.335,0,0,0,481.258,274.189Z" transform="translate(-481.105 -269.28)"/></g><g transform="translate(49.787 14.522)"><path class="m" d="M149.864,303.881v.163c-1.164,9.582,0,12.31,0,12.31h-1.782C147.754,304.371,149.864,303.881,149.864,303.881Z" transform="translate(-143.55 -299.781)"/><path class="m" d="M138.425,299.862s1.953-2.4,4.2-1.938a5.227,5.227,0,0,0-4.352.375s2.6-2.237,4.739-.913a6.97,6.97,0,0,0-3.562-1.636s3.146-1.691,4.678,1.994c-.288-1.435-.06-3.2,3.055-2.708a3.4,3.4,0,0,0-2.564,2.95c.756-3.714,4.3-2.02,4.3-2.02a4.281,4.281,0,0,0-3.456,1.831,3.277,3.277,0,0,1,4.422.372,3.43,3.43,0,0,0-2.366-.363c1.717.563,2.535,2.8,2.535,2.8a4.094,4.094,0,0,0-4.622-1.507c1.553.043,4.469.647,4.453,4.578a5.742,5.742,0,0,0-4.4-3.86,3.828,3.828,0,0,1,1.076,4.581s.3-1.783-1.435-4.416a3.216,3.216,0,0,1-.322,2.777,14.375,14.375,0,0,0-.378-3.347h-.045a7.476,7.476,0,0,0-2.222,2.539,2.646,2.646,0,0,1,1.084-2.381,7.821,7.821,0,0,0-2.655,1.313,4.243,4.243,0,0,1,1.687-2.064A6.334,6.334,0,0,0,138.425,299.862Z" transform="translate(-138.272 -294.952)"/></g><g transform="translate(112.022 14.678)"><path class="m" d="M280.867,300.776v.1c.715,5.886,0,7.562,0,7.562h1.1C282.163,301.078,280.867,300.776,280.867,300.776Z" transform="translate(-277.509 -298.257)"/><path class="m" d="M280.709,298.307s-1.2-1.475-2.58-1.191a3.213,3.213,0,0,1,2.674.231s-1.6-1.374-2.912-.561a4.285,4.285,0,0,1,2.188-1.005,2,2,0,0,0-2.874,1.225c.177-.881.037-1.964-1.877-1.664a2.09,2.09,0,0,1,1.576,1.813c-.465-2.282-2.64-1.241-2.64-1.241a2.627,2.627,0,0,1,2.122,1.125,2.013,2.013,0,0,0-2.716.228,2.11,2.11,0,0,1,1.454-.223,3.077,3.077,0,0,0-1.558,1.721,2.514,2.514,0,0,1,2.84-.925,2.563,2.563,0,0,0-2.736,2.812,3.527,3.527,0,0,1,2.7-2.371,2.349,2.349,0,0,0-.66,2.814,4.164,4.164,0,0,1,.881-2.713,1.976,1.976,0,0,0,.2,1.706,8.849,8.849,0,0,1,.232-2.055h.027a4.59,4.59,0,0,1,1.365,1.559,1.625,1.625,0,0,0-.666-1.463,4.8,4.8,0,0,1,1.631.806,2.609,2.609,0,0,0-1.036-1.268A3.888,3.888,0,0,1,280.709,298.307Z" transform="translate(-273.566 -295.291)"/></g><g transform="translate(142.337 10.338)"><path class="m" d="M346.769,291.325v.1c.715,5.886,0,7.562,0,7.562h1.1C348.065,291.626,346.769,291.325,346.769,291.325Z" transform="translate(-343.411 -288.806)"/><path class="m" d="M346.611,288.856s-1.2-1.475-2.579-1.191a3.213,3.213,0,0,1,2.674.23s-1.6-1.374-2.912-.561a4.284,4.284,0,0,1,2.188-1.005,2,2,0,0,0-2.874,1.225c.177-.881.037-1.964-1.877-1.664a2.089,2.089,0,0,1,1.576,1.812c-.465-2.281-2.64-1.241-2.64-1.241a2.63,2.63,0,0,1,2.123,1.125,2.014,2.014,0,0,0-2.716.228,2.109,2.109,0,0,1,1.454-.223,3.075,3.075,0,0,0-1.558,1.721,2.514,2.514,0,0,1,2.84-.925,2.563,2.563,0,0,0-2.736,2.812,3.527,3.527,0,0,1,2.7-2.371,2.35,2.35,0,0,0-.66,2.814,4.163,4.163,0,0,1,.881-2.713,1.975,1.975,0,0,0,.2,1.706,8.847,8.847,0,0,1,.232-2.055h.027a4.6,4.6,0,0,1,1.366,1.56,1.626,1.626,0,0,0-.667-1.463,4.8,4.8,0,0,1,1.631.806,2.6,2.6,0,0,0-1.036-1.268A3.887,3.887,0,0,1,346.611,288.856Z" transform="translate(-339.469 -285.84)"/></g><g transform="translate(186.39 9.404)"><path class="m" d="M442.357,289.292v.1c-.715,5.886,0,7.562,0,7.562h-1.1C441.061,289.593,442.357,289.292,442.357,289.292Z" transform="translate(-438.478 -286.773)"/><path class="m" d="M435.329,286.823s1.2-1.476,2.58-1.191a3.217,3.217,0,0,0-2.674.231s1.6-1.374,2.912-.561a4.284,4.284,0,0,0-2.188-1,2,2,0,0,1,2.874,1.225c-.177-.881-.037-1.964,1.877-1.664a2.089,2.089,0,0,0-1.575,1.812c.465-2.281,2.64-1.241,2.64-1.241a2.628,2.628,0,0,0-2.122,1.125,2.014,2.014,0,0,1,2.716.228,2.111,2.111,0,0,0-1.454-.223,3.077,3.077,0,0,1,1.558,1.721,2.516,2.516,0,0,0-2.84-.926,2.563,2.563,0,0,1,2.736,2.812,3.527,3.527,0,0,0-2.7-2.371,2.349,2.349,0,0,1,.661,2.813,4.166,4.166,0,0,0-.881-2.713,1.976,1.976,0,0,1-.2,1.706,8.839,8.839,0,0,0-.232-2.055h-.027a4.589,4.589,0,0,0-1.366,1.559,1.626,1.626,0,0,1,.666-1.463,4.8,4.8,0,0,0-1.631.806,2.607,2.607,0,0,1,1.036-1.267A3.888,3.888,0,0,0,435.329,286.823Z" transform="translate(-435.235 -283.807)"/></g><g transform="translate(24.865 9.192)"><g transform="translate(2.132 3.222)"><path class="m" d="M89.94,290.361v.109c-.776,6.389,0,8.208,0,8.208H88.751C88.533,290.688,89.94,290.361,89.94,290.361Z" transform="translate(-88.728 -290.361)"/></g><path class="m" d="M91.235,286.937s-.536-2.315-3.034-1.293a3.205,3.205,0,0,1,2.045-2.052,2.662,2.662,0,0,0-2.5,1.559,2.135,2.135,0,0,0-1.775-1.807,2.837,2.837,0,0,1,1.225,1.718,2.215,2.215,0,0,0-2.564-.239,2.467,2.467,0,0,1,2.079.465c-1.6-.4-2.547,1.312-2.547,1.312a2.579,2.579,0,0,1,2.322-.689,3.385,3.385,0,0,0-2.4,1.746,4.858,4.858,0,0,1,1.853-1.2,4.242,4.242,0,0,0-1.779,2.714,3.943,3.943,0,0,1,3.071-2.391c.88.488.771,2.391.771,2.391a2.579,2.579,0,0,0,.015-2.115,3.015,3.015,0,0,1,1.078,2.476,2.551,2.551,0,0,0-.589-2.749A3.1,3.1,0,0,1,90,287.915c-.257-1.363-.88-1.78-1.352-1.891A2.163,2.163,0,0,1,91.235,286.937Z" transform="translate(-84.094 -283.345)"/></g><g transform="translate(8.437 8.753)"><g transform="translate(2.132 3.222)"><path class="m" d="M54.227,289.405v.109c-.776,6.389,0,8.208,0,8.208H53.038C52.82,289.732,54.227,289.405,54.227,289.405Z" transform="translate(-53.015 -289.405)"/></g><path class="m" d="M55.522,285.981s-.536-2.315-3.034-1.293a3.206,3.206,0,0,1,2.045-2.052,2.662,2.662,0,0,0-2.5,1.56,2.135,2.135,0,0,0-1.775-1.807,2.837,2.837,0,0,1,1.225,1.718,2.215,2.215,0,0,0-2.564-.239,2.467,2.467,0,0,1,2.079.465c-1.6-.4-2.547,1.312-2.547,1.312a2.577,2.577,0,0,1,2.321-.689,3.385,3.385,0,0,0-2.4,1.746,4.857,4.857,0,0,1,1.853-1.2,4.241,4.241,0,0,0-1.779,2.715,3.942,3.942,0,0,1,3.07-2.391c.88.488.771,2.391.771,2.391a2.58,2.58,0,0,0,.014-2.115,3.016,3.016,0,0,1,1.078,2.476,2.551,2.551,0,0,0-.59-2.749,3.1,3.1,0,0,1,1.491,1.128c-.257-1.364-.88-1.779-1.352-1.891A2.164,2.164,0,0,1,55.522,285.981Z" transform="translate(-48.381 -282.389)"/></g></g><path class="j" d="M232.836,297.205A47.75,47.75,0,0,1,221.1,295.34c-3.8-1.113-6.18-3.831-9.779-4.851-7.248-2.055-13.825-7.155-21.621-4.3-7.093,2.6-12.934,9.524-19.809,9.934-4.842.289-7.706,5.381-12.273,6.444-3.895.906-7.515-.821-11.281-1.086-4.288-.3-8.35.8-12.606-.153a69.976,69.976,0,0,0-10.548-1.678c-8.156-.518-15.518,4.306-23.948,3.052-14.117-2.1-28.921-2.048-43.45-1.832-3.76.056-7.521-.015-11.281,0-4.183.017-6.68-2.206-10.558-3.052-7.466-1.629-14.255-2.565-21.919-3.662-4.1-.587-6.693-4.658-10.658-4.884a22.1,22.1,0,0,0-10.263,2.259c-3.766,2.1-4.718,5.01-9.229,5.067-2.862.036-7.7-1.459-9.746,1.831v10.945H232.619Z" transform="translate(27.95 -210.988)"/></g><g transform="translate(-21.182 11.262)"><g transform="translate(28.021 22.562)"><path class="n" d="M20.89,316.022c-8.7-34.6-6.382-61.374-2.907-77.745,3.785-17.831,9.59-27.342,9.835-27.738l2.8,1.723c-.231.373-22.843,38.109-6.538,102.961Z" transform="translate(-14.869 -210.539)"/></g><path class="n" d="M8.055,190.785c1.109.366,2.221.748,3.329,1.138l2.266-2.812-1.088,3.232q1.333.482,2.645.974l1.905-3.218-.882,3.6q1.313.5,2.579,1l1.343-2.907-.661,3.176c.8.319,1.588.634,2.348.944l1.424-2.085-.451,2.482q1.048.432,2.022.84l2.175-3.522-.7,4.144c.69.294,1.343.574,1.946.836l.31-4.453,1.379,5.192c1.92.846,3.062,1.376,3.062,1.376-5.2-18.938-18.361-19.865-27.939-17.645.909-.463,1.879-.943,2.89-1.43l-.6-2.2,2.036,1.523q.861-.4,1.758-.8l-.966-1.851,1.958,1.412q.631-.276,1.28-.551l-1.083-3.33,2.569,2.711q.957-.391,1.942-.775l-.941-1.936,2.611,1.3q.776-.288,1.569-.567l-.787-1.864,2.307,1.339q1.085-.366,2.191-.712l-.965-1.365,2.3.96q1.755-.519,3.556-.978s-19.916-5.795-28.9,4.588c1.053-4.932-.04-11.277-8.471-17.14,0,0,.273,1.27.676,3.262l1.241-.123-1.009,1.27c.107.54.22,1.113.337,1.717l1.36-.135-1.114,1.4c.13.683.264,1.392.4,2.121l2.68.313-2.447.962c.113.618.223,1.244.333,1.873l2.8.326-2.572,1.013c.138.816.271,1.632.4,2.434-3.206-7.259-10.19-13.955-25.4-7,0,0,.8.332,2.138.94l3.157-.875-1.564,1.615c.608.289,1.272.609,1.986.963l3.08-1.956-1.625,2.688c.736.377,1.508.782,2.306,1.211l1.964-2.191-.965,2.737q.742.41,1.5.845l2.317-1.951-.986,2.728q.881.522,1.773,1.077l2.817-1.4-1.358,2.325c1.012.659,2.019,1.344,3,2.056-9.855-3.3-26.985-5.531-34.6,14.571a35.29,35.29,0,0,1,7.4-3.9l1.668-4.412.406,3.6c1.351-.5,2.847-.991,4.5-1.464v-4.08l1.226,3.738q1.383-.373,2.9-.716v-2.439l.888,2.248q.889-.192,1.823-.368l1.956-3.783.888,3.291q1.768-.276,3.673-.495l.5-3.029,1.248,2.846c2.1-.2,4.318-.342,6.66-.41-21.741,3.5-21.756,26.231-21.756,26.231q1.286-1.227,2.569-2.445l-.506-2.855,1.65,1.767q1.363-1.3,2.708-2.572l-.472-2.653,1.536,1.646q.982-.931,1.944-1.841l-.318-1.792,1.037,1.111.823-.779-.447-2.519,1.459,1.564,2.279-2.151V196.52l1.149,1.961,2.174-2.049-.4-2.279,1.322,1.416,1.075-1.011-.6-3.356,1.948,2.086c2.586-2.429,4.649-4.361,5.92-5.55l.029.021c.061,1.3.17,3.494.345,6.395h3.3l-3.233,1.11c.055.884.115,1.83.182,2.823l2.556.551-2.481.534q.09,1.332.2,2.772l3.982.362-3.823,1.762q.128,1.667.272,3.449l4.47.647-4.324,1.126q.141,1.664.3,3.412l3.673.4-3.492,1.58q.213,2.3.454,4.707l4.381-2.266-4.18,4.235q.092.885.188,1.782l2.084-1.077-1.9,2.755q.148,1.369.307,2.759S11.9,213.39,3.225,196.793c.869,1.2,1.72,2.443,2.545,3.7l2.3-1.858-1.792,2.635q.876,1.365,1.706,2.734l3.2-2.147L8.712,205.23q.219.369.433.736l4.5-4.436L9.861,207.2q.591,1.032,1.144,2.03l2.644-1.141-2.317,1.735q.348.636.679,1.25l2.7-1.644-2.075,2.811c.439.83.847,1.615,1.217,2.343l1.424-1.625-.663,3.131c1.123,2.25,1.771,3.67,1.771,3.67C19.089,202.863,14.032,194.7,8.055,190.785Z" transform="translate(46.047 -161.409)"/><g transform="translate(18.879 37.195)"><g transform="translate(19.881 16.008)"><path class="n" d="M42.487,352.1c-6.172-24.547-4.528-43.546-2.063-55.161,2.685-12.651,6.8-19.4,6.979-19.681l1.983,1.223c-.163.265-16.207,27.039-4.639,73.053Z" transform="translate(-38.214 -277.263)"/></g><path class="n" d="M33.38,263.248c.787.259,1.576.53,2.362.807l1.608-2-.772,2.292q.946.342,1.877.691l1.352-2.283-.626,2.557c.621.236,1.232.473,1.829.707l.953-2.063-.469,2.253c.57.226,1.127.45,1.666.67l1.011-1.479-.32,1.761q.743.307,1.435.6l1.543-2.5-.5,2.94c.489.209.953.408,1.381.593l.22-3.16.978,3.684c1.362.6,2.172.977,2.172.977-3.693-13.437-13.028-14.094-19.823-12.519.645-.329,1.333-.669,2.051-1.014l-.424-1.564,1.444,1.08c.408-.188.822-.379,1.248-.569l-.685-1.313,1.389,1q.448-.2.909-.391l-.769-2.362,1.823,1.923q.679-.278,1.378-.55l-.667-1.374,1.852.925q.551-.2,1.113-.4l-.558-1.322L43,252.8q.769-.26,1.555-.505l-.684-.969L45.5,252q1.245-.369,2.523-.694s-14.13-4.111-20.5,3.255c.747-3.5-.029-8-6.01-12.161,0,0,.194.9.479,2.314l.881-.087-.717.9q.114.574.24,1.218l.965-.1-.79.995c.092.485.188.988.283,1.5l1.9.222-1.736.683c.08.438.158.882.236,1.328l1.989.231-1.825.718c.1.58.192,1.158.282,1.728-2.275-5.151-7.23-9.9-18.02-4.97,0,0,.569.235,1.517.666l2.24-.621-1.11,1.146c.431.205.9.432,1.409.684l2.185-1.389-1.153,1.907c.522.268,1.07.556,1.636.86l1.394-1.555-.684,1.942q.526.291,1.066.6l1.644-1.385-.7,1.936q.626.371,1.258.765l2-.991-.964,1.649c.719.467,1.433.954,2.13,1.459-6.992-2.34-19.146-3.924-24.55,10.338a25.061,25.061,0,0,1,5.251-2.769l1.183-3.13.288,2.558c.958-.352,2.02-.7,3.19-1.039v-2.895l.87,2.652q.981-.264,2.055-.508v-1.731l.63,1.6c.421-.091.852-.178,1.294-.262l1.388-2.684.63,2.335q1.254-.2,2.606-.351l.352-2.15.885,2.02c1.491-.141,3.064-.242,4.725-.291C4.919,262.943,4.908,279.069,4.908,279.069q.913-.871,1.823-1.735l-.359-2.026,1.171,1.253,1.922-1.825-.334-1.882,1.09,1.168q.7-.661,1.38-1.307l-.225-1.272.736.789.584-.553-.317-1.787L13.411,271c.551-.519,1.091-1.03,1.617-1.526v-2.16l.815,1.391,1.542-1.453-.287-1.617.938,1.005.763-.718-.423-2.382,1.382,1.48c1.834-1.724,3.3-3.094,4.2-3.938l.021.015c.043.924.121,2.479.245,4.537h2.342l-2.294.788c.039.627.082,1.3.129,2l1.813.391-1.76.378q.064.946.139,1.967l2.825.257-2.713,1.25q.09,1.183.193,2.447l3.172.46-3.068.8q.1,1.181.211,2.421l2.606.285L25.343,280.2q.151,1.63.322,3.34l3.108-1.607-2.966,3q.066.628.133,1.265l1.478-.764-1.35,1.955q.106.971.219,1.958s9.818-10.066,3.665-21.842c.617.851,1.22,1.734,1.806,2.627l1.629-1.318-1.271,1.87q.621.968,1.21,1.94l2.268-1.524L33.846,273.5q.156.262.307.522l3.2-3.147L34.661,274.9q.42.732.812,1.44l1.876-.81L35.7,276.758q.248.451.482.887l1.915-1.166-1.472,1.994c.312.589.6,1.145.864,1.662l1.01-1.153-.47,2.222c.8,1.6,1.257,2.6,1.257,2.6C41.209,271.817,37.621,266.029,33.38,263.248Z" transform="translate(5.006 -242.405)"/></g><g transform="translate(3.75 60.669)"><g transform="translate(19.882 16.007)"><path class="n" d="M9.6,403.221c-6.172-24.547-4.528-43.546-2.063-55.161,2.685-12.651,6.8-19.4,6.978-19.681L16.5,329.6c-.164.265-16.207,27.039-4.639,73.053Z" transform="translate(-5.327 -328.379)"/></g><path class="n" d="M.492,314.365c.787.26,1.576.53,2.362.807l1.608-2-.772,2.293q.946.342,1.877.691l1.352-2.282-.626,2.557c.621.236,1.232.473,1.829.707l.953-2.063-.469,2.253q.856.34,1.666.67l1.011-1.479-.32,1.761q.743.306,1.435.6l1.543-2.5-.5,2.94c.489.209.953.408,1.38.593l.22-3.16.978,3.684c1.362.6,2.172.977,2.172.977C14.5,307.978,5.166,307.32-1.629,308.9c.645-.329,1.333-.669,2.05-1.014L0,306.318l1.444,1.08q.611-.282,1.248-.569L2,305.516l1.389,1q.448-.195.909-.391l-.768-2.363,1.822,1.924q.68-.278,1.378-.55l-.667-1.373,1.852.925q.551-.2,1.113-.4l-.558-1.322,1.637.95q.769-.26,1.555-.5l-.685-.969,1.632.681q1.245-.369,2.523-.694S1,298.316-5.369,305.683c.748-3.5-.029-8-6.01-12.161,0,0,.193.9.479,2.314l.881-.087-.717.9c.076.383.156.79.24,1.218l.965-.1-.79.995c.092.485.188.988.283,1.5l1.9.221-1.736.683c.08.438.158.882.236,1.328l1.988.231-1.825.718c.1.58.192,1.158.281,1.728-2.274-5.151-7.23-9.9-18.019-4.97,0,0,.568.236,1.517.666l2.24-.621-1.11,1.146c.431.2.9.432,1.409.683l2.185-1.389-1.152,1.908c.522.267,1.07.555,1.636.86l1.394-1.555-.684,1.943q.526.291,1.066.6l1.644-1.384-.7,1.935q.626.371,1.258.765l2-.991-.964,1.649c.719.468,1.432.954,2.13,1.459-6.992-2.34-19.146-3.924-24.55,10.338a25.056,25.056,0,0,1,5.252-2.769l1.183-3.13.288,2.558c.958-.352,2.02-.7,3.19-1.039v-2.9l.87,2.652q.981-.264,2.055-.508v-1.731l.63,1.6q.631-.136,1.294-.262l1.388-2.684.63,2.335q1.255-.2,2.606-.351l.353-2.15.885,2.02c1.491-.141,3.064-.242,4.726-.291-15.425,2.485-15.436,18.611-15.436,18.611q.913-.87,1.823-1.734l-.359-2.026,1.171,1.253,1.922-1.825-.334-1.882,1.09,1.168,1.38-1.306-.225-1.272.736.789.584-.553-.317-1.787,1.035,1.109c.55-.519,1.091-1.03,1.617-1.526v-2.16l.815,1.391,1.542-1.453-.287-1.617.938,1.005.763-.718-.423-2.382,1.382,1.48c1.834-1.723,3.3-3.094,4.2-3.938l.021.015c.043.924.121,2.479.245,4.537h2.342l-2.294.788c.039.627.082,1.3.129,2l1.813.39-1.76.378q.064.946.139,1.967l2.825.257-2.713,1.25q.09,1.183.193,2.447l3.172.46-3.068.8q.1,1.181.211,2.421l2.606.285-2.478,1.121q.15,1.63.322,3.34l3.108-1.607-2.966,3q.065.628.133,1.264l1.479-.764-1.35,1.955q.106.971.218,1.958S3.218,330.4-2.935,318.627c.617.851,1.22,1.734,1.805,2.627L.5,319.936l-1.271,1.87q.621.969,1.21,1.94l2.268-1.523L.959,324.613q.156.261.307.522l3.2-3.148-2.688,4.025q.42.732.812,1.44l1.876-.809-1.644,1.231q.247.451.482.887L5.214,327.6l-1.472,1.994c.311.589.6,1.146.864,1.663l1.01-1.154-.47,2.222c.8,1.6,1.256,2.6,1.256,2.6C8.321,322.934,4.733,317.146.492,314.365Z" transform="translate(37.894 -293.522)"/></g><g transform="translate(215.108 55.183)"><g transform="translate(22.928 14.66)"><path class="n" d="M477.74,382.046c5.653-22.482,4.147-39.882,1.889-50.52-2.46-11.587-6.232-17.767-6.391-18.025l-1.817,1.12c.149.243,14.844,24.764,4.249,66.906Z" transform="translate(-471.422 -313.5)"/></g><path class="n" d="M437.79,300.665c-.72.237-1.443.486-2.163.74l-1.472-1.828.707,2.1q-.867.313-1.719.633l-1.238-2.09.573,2.342c-.569.216-1.128.433-1.675.648l-.873-1.89.43,2.064q-.784.312-1.526.613l-.925-1.355.293,1.613q-.682.28-1.315.546l-1.413-2.289.455,2.692c-.449.191-.872.374-1.265.544l-.2-2.894-.9,3.374c-1.247.55-1.989.895-1.989.895,3.382-12.307,11.931-12.908,18.155-11.466-.591-.3-1.22-.613-1.878-.928l.388-1.432-1.323.989c-.373-.172-.753-.347-1.144-.521l.628-1.2-1.272.917q-.41-.178-.832-.358l.7-2.164-1.668,1.762q-.623-.254-1.263-.5l.612-1.258-1.7.847q-.5-.188-1.02-.369l.512-1.211-1.5.87q-.705-.238-1.425-.463l.627-.888-1.494.624q-1.14-.338-2.311-.636s12.942-3.766,18.779,2.981c-.684-3.2.026-7.328,5.5-11.137,0,0-.177.825-.439,2.119l-.806-.08.656.826c-.07.35-.144.723-.219,1.115l-.885-.087.724.911c-.084.444-.172.9-.26,1.378l-1.741.2,1.59.626c-.073.4-.145.808-.216,1.216l-1.821.212,1.671.658c-.089.53-.176,1.06-.258,1.582,2.084-4.717,6.622-9.068,16.5-4.552,0,0-.52.216-1.389.61l-2.052-.568,1.016,1.049c-.395.188-.827.4-1.29.626l-2-1.271,1.056,1.746c-.478.245-.98.509-1.5.788l-1.277-1.424.627,1.779q-.482.267-.976.549l-1.505-1.268.64,1.773q-.573.339-1.152.7l-1.83-.907.882,1.51c-.657.428-1.312.874-1.951,1.336,6.4-2.143,17.535-3.594,22.485,9.468a22.941,22.941,0,0,0-4.81-2.536l-1.084-2.867-.264,2.343c-.878-.322-1.85-.645-2.921-.952v-2.652l-.8,2.429q-.9-.242-1.882-.466v-1.585l-.577,1.461q-.577-.126-1.185-.239l-1.271-2.458-.577,2.138q-1.15-.18-2.388-.321l-.323-1.969-.81,1.849c-1.366-.129-2.806-.221-4.329-.266,14.127,2.276,14.138,17.045,14.138,17.045q-.836-.8-1.669-1.589l.329-1.855-1.073,1.148-1.76-1.671.307-1.724-1,1.069-1.264-1.2.206-1.165-.674.723-.535-.506.291-1.637-.948,1.016-1.482-1.4v-1.978l-.746,1.274-1.413-1.331.262-1.482-.858.92-.7-.657.387-2.181-1.266,1.356c-1.68-1.579-3.02-2.834-3.847-3.607l-.019.013c-.039.846-.11,2.271-.224,4.155H444.03l2.1.721c-.036.574-.075,1.189-.119,1.835l-1.661.358,1.612.347c-.039.578-.081,1.177-.127,1.8l-2.588.235,2.484,1.145q-.083,1.083-.176,2.24l-2.905.421,2.81.731q-.092,1.082-.194,2.217l-2.387.261,2.269,1.026q-.138,1.493-.294,3.059l-2.847-1.472,2.716,2.752q-.06.575-.122,1.158l-1.355-.7,1.237,1.791q-.1.889-.2,1.793s-8.992-9.219-3.357-20c-.565.779-1.117,1.587-1.653,2.405l-1.492-1.207,1.165,1.712q-.569.887-1.109,1.777l-2.077-1.4,1.6,2.19c-.1.16-.189.319-.282.478l-2.927-2.883,2.461,3.687c-.256.447-.5.888-.743,1.319l-1.719-.741,1.506,1.128q-.226.413-.442.812l-1.753-1.068,1.348,1.827c-.285.539-.55,1.049-.791,1.522l-.925-1.057.431,2.035c-.73,1.462-1.151,2.384-1.151,2.384C430.619,308.513,433.906,303.212,437.79,300.665Z" transform="translate(-421.578 -281.576)"/></g><g transform="translate(184.308 68.618)"><g transform="translate(22.928 14.66)"><path class="n" d="M410.784,411.3c5.653-22.482,4.147-39.882,1.889-50.52-2.46-11.587-6.232-17.767-6.391-18.025l-1.817,1.12c.149.243,14.844,24.764,4.249,66.907Z" transform="translate(-404.466 -342.756)"/></g><path class="n" d="M370.834,329.921c-.72.238-1.443.486-2.163.74l-1.473-1.828.707,2.1q-.867.313-1.719.632l-1.238-2.09.573,2.342c-.569.216-1.128.433-1.675.648l-.873-1.89.43,2.064q-.784.312-1.526.614l-.925-1.355.293,1.613q-.681.28-1.314.546l-1.413-2.289.455,2.692c-.448.191-.873.374-1.264.544l-.2-2.894-.9,3.374c-1.248.55-1.99.894-1.99.894,3.382-12.307,11.932-12.908,18.155-11.466-.591-.3-1.221-.612-1.878-.928l.388-1.432-1.322.989c-.374-.172-.753-.347-1.144-.521l.628-1.2-1.272.917c-.273-.119-.55-.239-.832-.358l.7-2.164-1.668,1.762q-.623-.254-1.263-.5l.612-1.258-1.7.847q-.5-.187-1.02-.369l.511-1.211-1.5.87q-.705-.238-1.425-.462l.627-.888-1.494.624q-1.14-.338-2.311-.636s12.942-3.766,18.779,2.981c-.684-3.2.026-7.328,5.5-11.137,0,0-.178.825-.439,2.119l-.806-.08.656.826c-.07.351-.144.724-.219,1.115l-.885-.087.724.911c-.083.444-.172.9-.259,1.378l-1.742.2,1.59.626c-.073.4-.145.807-.216,1.216l-1.821.212,1.671.658c-.089.53-.176,1.06-.258,1.582,2.084-4.717,6.622-9.068,16.5-4.552,0,0-.52.216-1.389.61L392.766,317l1.016,1.049c-.395.188-.827.4-1.29.626l-2-1.271,1.056,1.746c-.478.245-.98.509-1.5.788l-1.276-1.424.627,1.779q-.482.267-.976.549l-1.505-1.268.64,1.773q-.573.34-1.152.7l-1.83-.907.882,1.51c-.657.428-1.311.874-1.951,1.336,6.4-2.143,17.535-3.595,22.485,9.468a22.939,22.939,0,0,0-4.81-2.536l-1.084-2.867-.264,2.343c-.878-.323-1.85-.645-2.921-.952v-2.652l-.8,2.429q-.9-.243-1.882-.466v-1.585l-.577,1.461c-.385-.084-.781-.163-1.185-.24l-1.271-2.458-.577,2.138q-1.149-.18-2.387-.321l-.323-1.969-.811,1.849c-1.366-.129-2.806-.221-4.328-.266,14.128,2.275,14.138,17.045,14.138,17.045q-.836-.8-1.669-1.589l.329-1.855-1.073,1.148-1.761-1.671.307-1.724-1,1.07q-.638-.605-1.264-1.2l.207-1.165-.674.722-.535-.506.291-1.637-.948,1.016-1.482-1.4v-1.978l-.746,1.274-1.413-1.331.262-1.481-.858.92-.7-.657.387-2.181-1.266,1.356c-1.68-1.578-3.02-2.833-3.846-3.606l-.019.013c-.039.846-.11,2.27-.224,4.156h-2.144l2.1.721c-.036.574-.075,1.189-.119,1.835l-1.661.358,1.612.347q-.059.866-.127,1.8l-2.588.235,2.485,1.144q-.083,1.084-.176,2.241l-2.905.421,2.81.731c-.062.721-.126,1.462-.194,2.217l-2.387.261,2.269,1.027q-.138,1.493-.294,3.059l-2.847-1.472,2.716,2.752q-.059.575-.121,1.158l-1.355-.7,1.237,1.791c-.064.593-.132,1.189-.2,1.793,0,0-8.992-9.219-3.357-20-.565.779-1.117,1.587-1.653,2.406l-1.492-1.207,1.165,1.713q-.569.887-1.109,1.776l-2.077-1.4,1.6,2.191c-.1.16-.189.319-.282.478L367.2,336.9l2.461,3.687c-.256.446-.5.888-.743,1.319l-1.719-.741,1.506,1.128c-.151.275-.3.547-.442.811l-1.753-1.068,1.348,1.827c-.285.539-.55,1.049-.791,1.522l-.925-1.057.431,2.035c-.729,1.462-1.151,2.384-1.151,2.384C363.663,337.769,366.95,332.468,370.834,329.921Z" transform="translate(-354.622 -310.832)"/></g><g transform="translate(189.543 10.82)"><g transform="translate(33.804 21.615)"><path class="n" d="M448.806,333.1c8.334-33.147,6.115-58.8,2.786-74.486-3.626-17.083-9.188-26.195-9.424-26.576l-2.678,1.652c.221.358,21.886,36.512,6.264,98.645Z" transform="translate(-439.49 -232.038)"/></g><path class="n" d="M389.905,213.114q-1.594.526-3.19,1.091l-2.171-2.7,1.042,3.1q-1.278.462-2.535.933l-1.825-3.082.845,3.453q-1.258.478-2.471.955l-1.286-2.786.633,3.043q-1.155.459-2.25.9l-1.364-2,.432,2.377q-1,.414-1.937.8l-2.084-3.374.672,3.969c-.66.282-1.286.551-1.864.8l-.3-4.267-1.321,4.975c-1.839.811-2.933,1.319-2.933,1.319,4.986-18.144,17.591-19.032,26.767-16.905-.871-.444-1.8-.9-2.769-1.369l.572-2.112-1.95,1.458c-.55-.254-1.109-.512-1.685-.768l.926-1.773-1.876,1.353q-.6-.262-1.227-.528l1.038-3.19-2.46,2.6q-.918-.376-1.861-.743l.9-1.855-2.5,1.249q-.745-.277-1.5-.544l.753-1.785L376.917,199q-1.039-.351-2.1-.681l.925-1.308-2.2.919q-1.682-.5-3.408-.937s19.082-5.552,27.688,4.4c-1.009-4.725.038-10.8,8.116-16.421,0,0-.262,1.216-.648,3.125l-1.189-.118.968,1.217c-.1.517-.212,1.066-.323,1.644l-1.3-.129,1.067,1.344c-.124.654-.253,1.333-.382,2.031l-2.568.3,2.344.922c-.108.591-.214,1.191-.319,1.793l-2.685.313,2.464.969c-.132.783-.26,1.564-.379,2.333,3.071-6.955,9.763-13.369,24.332-6.711,0,0-.767.318-2.048.9l-3.025-.839,1.5,1.547c-.582.277-1.22.583-1.9.923l-2.951-1.875,1.557,2.575c-.705.361-1.445.75-2.209,1.161l-1.882-2.1.924,2.622c-.473.263-.952.531-1.439.81l-2.219-1.869.943,2.613q-.844.5-1.7,1.032l-2.7-1.338,1.3,2.227c-.97.631-1.934,1.288-2.876,1.97,9.442-3.159,25.853-5.3,33.151,13.959a33.85,33.85,0,0,0-7.091-3.738l-1.6-4.227-.389,3.454c-1.294-.476-2.727-.951-4.307-1.4V208.5l-1.176,3.581q-1.326-.357-2.775-.686v-2.337l-.851,2.154q-.852-.185-1.747-.353l-1.874-3.624-.851,3.153q-1.694-.265-3.52-.473l-.477-2.9-1.194,2.727c-2.014-.19-4.138-.326-6.382-.392,20.829,3.355,20.844,25.131,20.844,25.131q-1.232-1.175-2.461-2.342l.486-2.736-1.581,1.692-2.6-2.464.452-2.542-1.472,1.577q-.941-.892-1.863-1.764l.3-1.718-.993,1.066-.789-.747.428-2.414-1.4,1.5-2.184-2.061v-2.917l-1.1,1.878-2.083-1.962.387-2.185-1.266,1.357-1.03-.968.572-3.216-1.867,2c-2.478-2.327-4.454-4.178-5.671-5.317l-.028.02c-.057,1.248-.163,3.348-.331,6.126H399.1l3.1,1.064c-.054.847-.112,1.754-.175,2.7l-2.448.528,2.377.511q-.086,1.277-.187,2.656l-3.815.347,3.662,1.687q-.122,1.6-.26,3.3l-4.284.62,4.144,1.078q-.137,1.595-.285,3.269l-3.52.384,3.346,1.514q-.2,2.2-.435,4.51l-4.2-2.171,4,4.058c-.058.565-.118,1.136-.179,1.707l-2-1.031,1.823,2.64q-.142,1.311-.295,2.644s-13.257-13.592-4.95-29.494c-.833,1.148-1.648,2.34-2.438,3.547l-2.2-1.78,1.718,2.525q-.84,1.307-1.636,2.619l-3.062-2.057,2.36,3.23q-.211.352-.415.7l-4.315-4.251,3.629,5.436q-.566.988-1.1,1.944l-2.534-1.092,2.22,1.662q-.335.61-.651,1.2l-2.585-1.574,1.988,2.693c-.42.794-.811,1.547-1.166,2.245l-1.364-1.558.636,3c-1.076,2.155-1.7,3.515-1.7,3.515C379.332,224.685,384.178,216.87,389.905,213.114Z" transform="translate(-366.002 -184.97)"/></g></g></g></g></g><g transform="translate(82.168 48)"><path class="o" d="M322.71,314.759l-6.2-6.2a1.287,1.287,0,0,0-1.932.128,31.838,31.838,0,0,1-5.964,5.963,1.287,1.287,0,0,0-.128,1.932l6.2,6.2a1.287,1.287,0,0,0,1.82,0l6.2-6.2a1.287,1.287,0,0,0,0-1.819Z" transform="translate(-255.221 -255.34)"/><path class="p" d="M318.549,343.531l-7.845-7.845c-.673.612-1.371,1.2-2.092,1.752a1.287,1.287,0,0,0-.128,1.932l6.2,6.2a1.287,1.287,0,0,0,1.82,0Z" transform="translate(-255.221 -278.131)"/><path class="o" d="M58.4,10.01A34.177,34.177,0,0,0,10.066,58.343,34.177,34.177,0,1,0,58.4,10.01Z"/><path class="p" d="M212.081,10.01A33.953,33.953,0,0,0,187.915,0q-1.186,0-2.359.081a34.177,34.177,0,0,1,21.808,58.262,33.922,33.922,0,0,1-21.808,9.929q1.172.079,2.359.081A34.177,34.177,0,0,0,212.081,10.01Z" transform="translate(-153.682)"/><path class="c" d="M69.462,41.748A26.871,26.871,0,1,0,96.333,68.619,26.9,26.9,0,0,0,69.462,41.748Z" transform="translate(-35.229 -34.59)"/><path class="q" d="M187.668,41.748c-.812,0-1.616.038-2.41.109a26.87,26.87,0,0,1,0,53.523c.794.071,1.6.109,2.41.109a26.871,26.871,0,0,0,0-53.742Z" transform="translate(-153.435 -34.59)"/><path class="r" d="M363.125,352.028,346.666,335.57a1.287,1.287,0,0,0-1.819,0l-9.347,9.347a1.287,1.287,0,0,0,0,1.819l16.458,16.458a7.9,7.9,0,0,0,11.166-11.167Z" transform="translate(-277.605 -277.722)"/><path class="s" d="M365.159,395.847c-.6.417-1.273.9-2.031,1.451a6.611,6.611,0,0,1-7.97-1.055l-17.417-17.411-2.242,2.242a1.287,1.287,0,0,0,0,1.819l16.459,16.458a7.9,7.9,0,0,0,13.2-3.5Z" transform="translate(-277.604 -313.878)"/><g transform="translate(23.737 17.868)"><path class="t" d="M15.475,0c5.544,0,11,2.553,11,8.661,0,5.632-6.454,7.8-7.84,9.833-1.041,1.514-.693,3.641-3.552,3.641a2.757,2.757,0,0,1-2.772-2.9c0-5.158,7.578-6.325,7.578-10.572,0-2.338-1.556-3.724-4.156-3.724-5.544,0-3.379,5.716-7.578,5.716A2.592,2.592,0,0,1,5.34,8.013C5.339,3.765,10.189,0,15.475,0Zm-.216,24.947A3.553,3.553,0,1,1,11.706,28.5,3.569,3.569,0,0,1,15.259,24.947Z" transform="translate(-5.34)"/></g></g></g><circle class="u" cx="2.044" cy="2.044" r="2.044" transform="translate(216.386 116.15)"/><circle class="u" cx="2.842" cy="2.842" r="2.842" transform="translate(202.127 103.835)"/><circle class="u" cx="5.883" cy="5.883" r="5.883" transform="translate(20.09 23.162)"/><circle class="u" cx="1.596" cy="1.596" r="1.596" transform="translate(144.539 1.423)"/><path class="u" d="M414.147,140.221c1.945,2.593-.2,5.435-2.742,4.886a2.852,2.852,0,0,1-2.144-2.144C408.713,140.42,411.555,138.226,414.147,140.221Z" transform="translate(-206.586 -72.883)"/><circle class="u" cx="1.895" cy="1.895" r="1.895" transform="translate(178.144 8.703)"/><circle class="u" cx="1.745" cy="1.745" r="1.745" transform="translate(25.724 60.856)"/><circle class="u" cx="1.745" cy="1.745" r="1.745" transform="translate(11.764 109.319)"/></svg>